<svg width="504" height="382" viewBox="0 0 504 382" fill="none" xmlns="http://www.w3.org/2000/svg">
<path d="M363.767 83.3113C350.485 84.2091 354.38 101.886 354.968 110.977C355.361 117.009 353.707 145.797 360.545 148.94C372.762 154.58 371.361 129.131 371.81 122.649C372.482 112.324 378.899 83.7883 363.767 83.3113Z" fill="#FFE2DB"/>
<path d="M363.823 160.808C351.465 160.808 351.213 179.719 363.767 179.888C376.04 180.056 376.292 160.808 363.823 160.808Z" fill="#FFE2DB"/>
<path d="M481.907 206.572C457.696 163.839 433.485 121.134 409.274 78.4009C398.598 59.5457 389.043 39.0911 376.853 21.1899C362.31 -0.190597 350.457 21.5266 343.031 34.6299C314.168 85.5558 285.306 136.51 256.444 187.436C249.102 200.427 231.868 224.557 258.629 228.457C278.076 231.291 300.073 228.457 319.689 228.457C355.893 228.457 392.069 228.457 428.273 228.457C439.594 228.457 498.075 235.135 481.907 206.572ZM466.579 211.931C460.666 218.384 429.898 213.306 422.389 213.306C392.882 213.306 363.403 213.306 333.896 213.306C312.543 213.306 290.406 214.989 269.109 213.306C253.501 212.071 263.477 199.866 268.605 190.859C294.889 144.478 321.174 98.0979 347.458 51.6893C351.493 44.5625 358.835 22.5086 367.942 30.2528C371.697 33.4514 374.443 41.7286 376.825 45.9374C382.598 56.0945 388.342 66.2797 394.115 76.4368C410.367 105.112 426.62 133.816 442.872 162.492C446.263 168.496 473.22 204.664 466.579 211.931Z" fill="#FFE2DB"/>
<path d="M147.58 45.2358C149.177 47.8732 151.279 46.6948 153.128 45.5725C156.575 43.4681 152.54 32.8059 151.615 30.0842C149.233 23.1538 146.263 17.7947 139.958 14.0629C125.611 5.61734 106.22 8.36705 92.2088 16.055C70.66 27.8676 65.1678 52.1101 60.292 74.2481C55.108 97.8452 46.0009 112.744 30.4488 130.786C26.4136 135.471 11.7302 149.978 13.5517 156.768C16.0176 165.943 25.4889 155.028 31.0372 152.755C51.297 144.506 77.3853 147.986 86.8566 123.968C95.039 103.26 93.834 79.0742 93.5258 58.9563C101.232 36.5657 128.777 42.0932 139.454 24.22C141.023 31.6555 143.573 38.6982 147.58 45.2358Z" fill="#FFE2DB"/>
<path d="M164.364 146.358C159.18 139.035 153.436 133.9 149.12 125.819C147.411 122.649 146.346 112.183 141.583 120.881C138.08 127.279 147.299 141.672 150.858 147.256C152.707 150.146 154.501 154.271 158.003 155.365C163.58 157.133 168.399 152.054 164.364 146.358ZM159.012 150.511C159.04 150.539 159.04 150.539 159.068 150.539C159.012 150.539 158.984 150.539 159.012 150.511Z" fill="#FFE2DB"/>
<path d="M100.11 80.3085C107.788 92.3175 124.208 89.175 114.569 76.3803C108.768 68.7204 94.0571 70.8528 100.11 80.3085Z" fill="#F4F5FA"/>
<path d="M150.41 80.0279C150.83 73.7709 153.548 66.2232 145.702 71.1334C136.09 76.717 146.066 85.1626 150.41 80.0279Z" fill="#F4F5FA"/>
<path d="M130.401 106.768C137.491 107.301 139.593 99.248 131.774 98.7429C125.217 98.322 124.124 106.291 130.401 106.768Z" fill="#F4F5FA"/>
<path d="M107.928 164.315C113.084 185.808 144.973 165.943 139.256 150.118C136.762 143.243 128.664 136.481 122.471 138.866C116.222 141.251 106.386 157.918 107.928 164.315Z" fill="#F4F5FA"/>
<path d="M74.7499 321.218C67.8005 324.753 60.1506 326.661 52.2765 326.184C36.6403 325.23 28.1217 314.933 20.8921 301.942C28.2618 298.013 45.0188 301.886 50.0908 303.822C55.6111 305.898 72.6483 313.67 74.7499 321.218Z" fill="#F4F5FA"/>
<path d="M149.457 287.435C140.209 293.861 130.626 299.753 120.734 305.112C115.999 307.665 101.876 315.269 114.429 316.616C121.098 317.317 138.052 303.681 143.796 300.005C146.458 298.294 153.155 295.488 153.996 292.626C154.641 290.325 153.884 284.377 149.457 287.435Z" fill="#F4F5FA"/>
<path d="M146.458 303.232C143.179 299.949 117.147 318.973 119.893 323.518C123.508 329.551 151.894 308.703 146.458 303.232Z" fill="#F4F5FA"/>
<path d="M365.28 354.691C364.636 327.98 365.252 301.184 365.252 274.473C365.252 263.193 366.177 251.521 365.252 240.269C364.075 226.24 353.567 231.066 353.651 242.149C353.904 271.695 353.483 353.962 353.259 361.341C353.091 366.083 365.477 362.913 365.28 354.691Z" fill="#F4F5FA"/>
<path d="M164.364 193.721C161.506 188.417 158.144 194.618 158.059 197.424C157.891 202.839 166.27 214.596 168.315 220.208C174.312 236.678 174.396 249.08 169.52 265.915C165.037 281.459 161.002 297.003 158.788 313.081C157.695 321.021 156.967 328.99 156.714 336.987C156.518 343.244 154.277 360.612 157.919 365.718C167.475 379.102 163.86 345.516 163.916 340.802C164.112 323.35 166.69 305.982 170.753 289.035C174.452 273.575 182.242 257.245 181.121 241.083C180 224.669 172.042 207.974 164.364 193.721Z" fill="#F4F5FA"/>
<path d="M90.2467 170.881C96.4115 172.761 93.5532 165.719 92.1802 163.811C91.7318 163.193 73.0693 152.11 73.2935 152.138C58.554 151.83 85.6511 169.478 90.2467 170.881Z" fill="#F4F5FA"/>
<path d="M143.46 174.332C146.43 179.411 165.849 169.225 163.411 163.417C161.086 157.806 140.265 168.861 143.46 174.332Z" fill="#F4F5FA"/>
<path d="M91.0867 196.919C88.2285 195.32 85.3983 198.182 85.6505 200.96C85.9867 204.467 92.74 205.982 95.346 207.132C101.427 209.77 120.257 217.71 126.814 214.203C135.277 209.658 126.282 207.441 121.462 206.543C110.674 204.467 100.838 202.39 91.0867 196.919Z" fill="#F4F5FA"/>
<path d="M120.454 220.769C111.123 218.328 102.884 214.175 94.6179 209.349C89.602 206.403 80.2707 201.212 84.558 211.229C86.9679 216.841 102.856 222.452 108.152 224.5C110.17 225.286 118.829 229.439 121.351 227.419C123.564 225.651 123.789 221.639 120.454 220.769Z" fill="#F4F5FA"/>
<path d="M47.3172 346.554C39.9755 340.073 21.6212 333.03 34.8755 346.189C36.5849 347.873 54.4628 359.882 51.0161 363.586C45.3557 369.702 25.7404 350.146 27.6459 365.746C29.019 376.969 55.5276 384.517 41.853 370.095C63.2336 375.118 58.8061 356.711 47.3172 346.554Z" fill="#F4F5FA"/>
<path d="M145.421 348.743C141.918 352.054 117.792 370.965 133.932 368.749C136.118 368.44 150.157 356.038 150.577 353.934C151.081 351.38 150.241 344.169 145.421 348.743Z" fill="#F4F5FA"/>
<path d="M53.3974 196.751C50.5952 199.556 59.2539 218.524 63.7094 213.642C67.5484 209.433 58.9177 191.251 53.3974 196.751Z" fill="#F4F5FA"/>
<path d="M56.0036 147.031C39.5268 153.176 0.940822 158.844 6.48913 203.85L4.91992 205.645C5.11607 207.076 6.23695 207.469 7.86221 207.245C11.1688 208.423 20.6682 201.016 23.5264 199.22C36.3884 191.167 45.9718 178.934 53.3416 165.634C60.0668 153.513 56.0036 147.031 56.0036 147.031Z" fill="#F4F5FA"/>
<path d="M146.039 98.0416C147.58 94.4221 148.617 90.4939 149.317 86.6779C151.111 77.1662 151.111 68.8609 150.802 60.0786" stroke="#002464" stroke-width="2.24467" stroke-miterlimit="10" stroke-linecap="round" stroke-linejoin="round"/>
<path d="M98.1206 101.633C109.778 114.989 127.684 113.951 132.924 111.93" stroke="#002464" stroke-width="2.24467" stroke-miterlimit="10" stroke-linecap="round" stroke-linejoin="round"/>
<path d="M108.713 52.6992C113.113 50.3984 118.493 50.0336 123.145 51.7452" stroke="#002464" stroke-width="2.24467" stroke-miterlimit="10" stroke-linecap="round" stroke-linejoin="round"/>
<path d="M145.197 53.148C142.451 52.671 139.593 52.8394 136.931 53.6811C135.194 54.2423 133.372 55.2243 132.784 56.964C132.503 57.7777 132.559 58.6755 132.644 59.5453C132.868 61.7619 133.372 63.9505 134.101 66.0268C135.025 68.6643 136.314 71.1615 137.043 73.8551C137.183 74.3882 137.295 74.9494 137.127 75.4544C136.959 75.9595 136.511 76.3242 136.09 76.6609C134.801 77.6991 133.428 78.6531 131.999 79.4948" stroke="#002464" stroke-width="2.24467" stroke-miterlimit="10" stroke-linecap="round" stroke-linejoin="round"/>
<path d="M126.872 93.3556C129.309 92.6822 131.719 91.9808 134.157 91.3074" stroke="#002464" stroke-width="2.24467" stroke-miterlimit="10" stroke-linecap="round" stroke-linejoin="round"/>
<path d="M97.2522 165.269C95.2627 158.367 96.8879 150.96 98.8775 144.057C100.867 137.155 103.221 130.112 102.66 122.957C102.436 120.095 101.736 117.205 102.184 114.372C102.268 113.782 102.436 113.193 102.857 112.772C104.005 111.678 105.855 112.856 106.864 114.091C111.179 119.338 113.421 126.24 113.057 133.03" stroke="#002464" stroke-width="2.24467" stroke-miterlimit="10" stroke-linecap="round" stroke-linejoin="round"/>
<path d="M108.769 139.175C111.375 134.938 115.831 132.329 119.698 129.186C129.337 121.33 135.754 109.602 146.57 103.485C147.131 103.176 147.859 102.868 148.392 103.232C148.7 103.429 148.84 103.765 148.952 104.102C149.457 105.898 148.588 107.778 147.719 109.433C142.759 118.805 137.043 127.755 130.654 136.201" stroke="#002464" stroke-width="2.24467" stroke-miterlimit="10" stroke-linecap="round" stroke-linejoin="round"/>
<path d="M137.492 128.148C138.5 127.924 139.593 128.513 140.154 129.383C140.742 130.252 140.91 131.347 140.938 132.385C141.05 134.686 140.602 137.014 139.677 139.119" stroke="#002464" stroke-width="2.24467" stroke-miterlimit="10" stroke-linecap="round" stroke-linejoin="round"/>
<path d="M141.442 135.051C143.096 135.443 144.161 137.155 144.357 138.866C144.553 140.55 144.076 142.262 143.6 143.889" stroke="#002464" stroke-width="2.24467" stroke-miterlimit="10" stroke-linecap="round" stroke-linejoin="round"/>
<path d="M144.609 140.073C146.767 141.083 147.747 143.72 147.635 146.105C147.439 150.146 144.889 153.597 142.423 156.796C136.679 164.259 130.934 171.723 125.19 179.186" stroke="#002464" stroke-width="2.24467" stroke-miterlimit="10" stroke-linecap="round" stroke-linejoin="round"/>
<path d="M133.961 144.534C133.653 145.011 133.344 145.46 133.036 145.937" stroke="#002464" stroke-width="2.24467" stroke-miterlimit="10" stroke-linecap="round" stroke-linejoin="round"/>
<path d="M138.865 150.847C138.697 151.24 138.557 151.633 138.388 152.026" stroke="#002464" stroke-width="2.24467" stroke-miterlimit="10" stroke-linecap="round" stroke-linejoin="round"/>
<path d="M134.885 121.049C135.278 121.133 135.67 121.218 136.062 121.274" stroke="#002464" stroke-width="2.24467" stroke-miterlimit="10" stroke-linecap="round" stroke-linejoin="round"/>
<path d="M128.468 182.834C117.092 226.268 114.934 307.273 69.4545 323.883C64.0463 325.847 58.0496 326.521 52.3052 326.184C33.6427 325.034 21.1169 307.609 16.101 291.111C10.7489 273.518 9.68403 254.27 8.47909 236.032C7.49833 221.105 6.96593 206.122 6.74176 191.167C6.57363 179.355 12.5142 167.149 22.2938 160.022C27.1136 156.515 60.5436 144.534 76.7402 139.427" stroke="#002464" stroke-width="2.24467" stroke-miterlimit="10" stroke-linecap="round" stroke-linejoin="round"/>
<path d="M67.9134 200.034C67.5491 218.16 67.1848 236.313 66.8205 254.439C66.6804 262.015 66.5123 269.731 64.5228 276.998C64.2986 277.812 64.0184 278.682 63.4019 279.159C61.6645 280.477 59.7871 277.643 59.5069 275.315C58.7503 269.058 60.936 262.857 63.1217 257.021C74.4985 226.661 81.4759 197.537 95.3748 168.581" stroke="#002464" stroke-width="2.24467" stroke-miterlimit="10" stroke-linecap="round" stroke-linejoin="round"/>
<path d="M158.199 156.655C170.361 158.367 180.084 168.44 184.708 179.831C189.331 191.223 191.097 203.934 189.584 216.139C183.895 261.453 179.328 293.608 174.032 335.724" stroke="#002464" stroke-width="2.24467" stroke-miterlimit="10" stroke-linecap="round" stroke-linejoin="round"/>
<path d="M172.155 344.226C171.959 345.938 171.79 347.649 171.594 349.333" stroke="#002464" stroke-width="2.24467" stroke-miterlimit="10" stroke-linecap="round" stroke-linejoin="round"/>
<path d="M161.002 195.769C165.906 207.049 169.997 218.665 173.247 230.505C174.62 235.528 175.853 240.634 175.993 245.825C176.246 255.225 172.995 264.316 170.305 273.294C161.142 303.794 157.891 336.033 160.806 367.739" stroke="#002464" stroke-width="2.24467" stroke-miterlimit="10" stroke-linecap="round" stroke-linejoin="round"/>
<path d="M27.8141 328.85C25.5163 344.703 21.6213 360.303 16.1851 375.342" stroke="#002464" stroke-width="2.24467" stroke-miterlimit="10" stroke-linecap="round" stroke-linejoin="round"/>
<path d="M61.1323 145.376C69.2586 154.944 77.5531 160.275 89.0981 165.213" stroke="#002464" stroke-width="2.24467" stroke-miterlimit="10" stroke-linecap="round" stroke-linejoin="round"/>
<path d="M144.188 172.873C150.577 170.993 156.658 167.991 162.066 164.063" stroke="#002464" stroke-width="2.24467" stroke-miterlimit="10" stroke-linecap="round" stroke-linejoin="round"/>
<path d="M90.9192 183.563C88.2292 181.796 84.3341 180.954 82.0363 183.199C80.271 184.882 80.1589 187.772 81.1677 190.017C82.1765 192.233 84.0539 193.917 85.9874 195.432C99.0456 205.73 115.803 211.257 132.42 210.724" stroke="#002464" stroke-width="2.24467" stroke-miterlimit="10" stroke-linecap="round" stroke-linejoin="round"/>
<path d="M79.9351 200.566C90.2751 213.08 105.687 221.302 121.828 222.901" stroke="#002464" stroke-width="2.24467" stroke-miterlimit="10" stroke-linecap="round" stroke-linejoin="round"/>
<path d="M57.1255 200.089C59.8996 203.316 61.693 207.356 62.1974 211.593" stroke="#002464" stroke-width="2.24467" stroke-miterlimit="10" stroke-linecap="round" stroke-linejoin="round"/>
<path d="M151.755 291.336C140.854 300.034 128.861 307.329 116.139 312.997" stroke="#002464" stroke-width="2.24467" stroke-miterlimit="10" stroke-linecap="round" stroke-linejoin="round"/>
<path d="M143.516 307.272C137.183 312.8 130.542 318.019 123.677 322.845" stroke="#002464" stroke-width="2.24467" stroke-miterlimit="10" stroke-linecap="round" stroke-linejoin="round"/>
<path d="M33.8668 342.71C43.0019 347.649 50.9881 354.776 56.9287 363.305C57.9935 364.82 58.8902 367.121 57.4891 368.3C56.6205 369.029 55.3595 368.833 54.2666 368.608C45.8041 366.897 37.4536 364.484 29.3833 361.425C34.8195 367.626 40.2558 373.799 45.692 380" stroke="#002464" stroke-width="2.24467" stroke-miterlimit="10" stroke-linecap="round" stroke-linejoin="round"/>
<path d="M149.289 353.793C144.021 357.834 138.752 361.902 133.484 365.943" stroke="#002464" stroke-width="2.24467" stroke-miterlimit="10" stroke-linecap="round" stroke-linejoin="round"/>
<path d="M89.21 123.939C88.9297 126.521 88.4253 129.074 87.6968 132.048" stroke="#002464" stroke-width="2.24467" stroke-miterlimit="10" stroke-linecap="round" stroke-linejoin="round"/>
<path d="M117.008 62.0425C117.232 63.4173 117.26 64.8483 117.064 66.2232C117.036 66.4476 116.952 66.7282 116.784 66.7563C116.615 66.7843 116.503 66.5599 116.419 66.3635C115.943 64.9886 115.999 63.3051 116.615 62.0144" stroke="#002464" stroke-width="2.24467" stroke-miterlimit="10" stroke-linecap="round" stroke-linejoin="round"/>
<path d="M141.752 60.6115C141.892 61.8461 141.892 63.1368 141.78 64.3994C141.752 64.6239 141.724 64.8764 141.611 64.8764C141.527 64.9045 141.443 64.7081 141.387 64.5117C141.106 63.2771 141.134 61.7339 141.499 60.5835" stroke="#002464" stroke-width="2.24467" stroke-miterlimit="10" stroke-linecap="round" stroke-linejoin="round"/>
<path d="M471.707 107.974C477.255 104.972 482.804 101.941 488.352 98.9392" stroke="#002464" stroke-width="2.24467" stroke-miterlimit="10" stroke-linecap="round" stroke-linejoin="round"/>
<path d="M474.538 130.449C481.235 130.926 487.904 131.375 494.601 131.852" stroke="#002464" stroke-width="2.24467" stroke-miterlimit="10" stroke-linecap="round" stroke-linejoin="round"/>
<path d="M236.353 134.237C242.938 133.199 249.467 131.74 255.856 129.832" stroke="#002464" stroke-width="2.24467" stroke-miterlimit="10" stroke-linecap="round" stroke-linejoin="round"/>
<path d="M243.638 99.6125C248.458 102.811 253.25 105.982 258.069 109.18" stroke="#002464" stroke-width="2.24467" stroke-miterlimit="10" stroke-linecap="round" stroke-linejoin="round"/>
<path d="M177.507 137.351C177.591 137.716 178.095 137.884 178.404 137.688C178.712 137.463 178.712 136.93 178.404 136.734C178.235 136.622 177.983 136.874 178.067 137.071C178.151 137.267 178.516 137.183 178.516 136.986" stroke="#002464" stroke-width="2.24467" stroke-miterlimit="10" stroke-linecap="round" stroke-linejoin="round"/>
<path d="M2.09021 328.401C1.83802 328.794 2.14626 329.411 2.62263 329.439C2.90285 329.327 3.21109 329.215 3.35119 328.934C3.4913 328.682 3.32317 328.261 3.01493 328.289C2.70669 328.317 2.84681 328.934 3.09901 328.766" stroke="#002464" stroke-width="2.24467" stroke-miterlimit="10" stroke-linecap="round" stroke-linejoin="round"/>
<path d="M192.806 318.552C192.358 318.44 191.826 318.665 191.629 319.085C191.994 319.534 192.834 319.394 193.03 318.861C193.199 318.468 192.47 318.131 192.302 318.524" stroke="#002464" stroke-width="2.24467" stroke-miterlimit="10" stroke-linecap="round" stroke-linejoin="round"/>
<path d="M500.85 210.92C500.597 211.257 500.794 211.79 501.186 211.902C501.578 212.015 502.027 211.678 501.999 211.257" stroke="#002464" stroke-width="2.24467" stroke-miterlimit="10" stroke-linecap="round" stroke-linejoin="round"/>
<path d="M353.904 362.323C353.904 318.187 353.904 274.024 353.904 229.888" stroke="#002464" stroke-width="2.24467" stroke-miterlimit="10" stroke-linecap="round" stroke-linejoin="round"/>
<path d="M373.043 228.934C373.043 272.621 373.043 316.308 373.043 359.967" stroke="#002464" stroke-width="2.24467" stroke-miterlimit="10" stroke-linecap="round" stroke-linejoin="round"/>
<path d="M358.611 247.284C358.611 278.176 358.611 309.04 358.611 339.932" stroke="#002464" stroke-width="2.24467" stroke-miterlimit="10" stroke-linecap="round" stroke-linejoin="round"/>
<path d="M363.403 239.877C372.342 239.877 373.042 235.836 373.042 235.836V228.878H353.875V236.762C353.904 236.762 354.66 239.877 363.403 239.877Z" fill="#002464" stroke="#002464" stroke-width="2.24467" stroke-miterlimit="10" stroke-linecap="round" stroke-linejoin="round"/>
<path d="M320.558 294.815C320.222 294.59 319.885 295.32 320.25 295.432" stroke="#002464" stroke-width="2.24467" stroke-miterlimit="10" stroke-linecap="round" stroke-linejoin="round"/>
<path d="M481.627 206.796L375.396 19.3097C374.724 18.1312 373.939 17.0931 373.042 16.1952C366.877 9.99429 356.257 11.0044 351.55 19.3097L245.319 206.796C243.974 209.181 243.357 211.706 243.357 214.175C243.357 218.187 244.983 222.059 247.729 224.781C250.139 227.194 253.445 228.709 257.228 228.709H469.689C477.788 228.709 483.56 221.751 483.56 214.175C483.588 211.706 482.972 209.181 481.627 206.796ZM466.299 212.183C465.458 213.081 464.449 213.558 463.272 213.558H263.701C262.524 213.558 261.487 213.109 260.675 212.183C259.778 211.201 259.274 209.854 259.274 208.479C259.274 207.553 259.526 206.627 260.002 205.786L359.788 29.6913C360.937 27.6711 362.618 27.3624 363.515 27.3624C364.412 27.3624 366.093 27.6711 367.242 29.6913L467.027 205.786C467.504 206.627 467.756 207.525 467.756 208.479C467.7 209.854 467.195 211.201 466.299 212.183Z" stroke="#FF3B0D" stroke-width="2.24467" stroke-miterlimit="10" stroke-linecap="round" stroke-linejoin="round"/>
<path d="M467.7 208.479C467.7 209.854 467.196 211.201 466.299 212.183C465.458 213.081 464.449 213.558 463.273 213.558H263.701C262.524 213.558 261.488 213.109 260.675 212.183C259.778 211.201 259.274 209.854 259.274 208.479C259.274 207.553 259.526 206.627 260.002 205.786L359.788 29.6912C360.937 27.671 362.618 27.3623 363.515 27.3623C364.412 27.3623 366.093 27.671 367.242 29.6912L467.027 205.786C467.448 206.655 467.7 207.553 467.7 208.479Z" stroke="#FF3B0D" stroke-width="2.24467" stroke-miterlimit="10" stroke-linecap="round" stroke-linejoin="round"/>
<path d="M467.7 208.479C467.7 209.854 467.196 211.201 466.299 212.183C465.458 213.081 464.449 213.558 463.273 213.558H263.701C262.524 213.558 261.488 213.109 260.675 212.183C259.778 211.201 259.274 209.854 259.274 208.479C259.274 207.553 259.526 206.627 260.002 205.786L359.788 29.6912C360.937 27.671 362.618 27.3623 363.515 27.3623C364.412 27.3623 366.093 27.671 367.242 29.6912L467.027 205.786C467.448 206.655 467.7 207.553 467.7 208.479Z" stroke="#FF3B0D" stroke-width="2.24467" stroke-miterlimit="10" stroke-linecap="round" stroke-linejoin="round"/>
<path d="M356.454 138.361C356.846 142.317 357.462 145.263 358.359 147.2C359.256 149.136 360.853 150.09 363.151 150.09C363.263 150.09 363.375 150.09 363.459 150.09C363.571 150.09 363.655 150.09 363.767 150.09C366.065 150.09 367.662 149.136 368.559 147.2C369.456 145.263 370.1 142.317 370.465 138.361L372.51 107.806C372.902 101.857 373.071 97.5642 373.071 94.9829C373.071 91.4475 372.146 88.6978 370.296 86.7057C368.531 84.8257 366.261 83.8437 363.459 83.7595C360.657 83.8437 358.359 84.8257 356.622 86.7057C354.772 88.6978 353.848 91.4475 353.848 94.9829C353.848 97.5642 354.044 101.857 354.408 107.806L356.454 138.361Z" stroke="#FF3B0D" stroke-width="2.24467" stroke-miterlimit="10" stroke-linecap="round" stroke-linejoin="round"/>
<path d="M363.543 161.257C363.515 161.257 363.487 161.257 363.487 161.257C363.459 161.257 363.431 161.257 363.431 161.257C360.741 161.257 358.499 162.183 356.65 164.035C354.8 165.886 353.875 168.131 353.875 170.769C353.875 173.799 354.828 176.128 356.762 177.811C358.667 179.467 360.909 180.308 363.487 180.337C366.065 180.308 368.279 179.467 370.212 177.811C372.146 176.128 373.098 173.771 373.098 170.769C373.098 168.131 372.174 165.886 370.324 164.035C368.475 162.183 366.205 161.257 363.543 161.257Z" stroke="#FF3B0D" stroke-width="2.24467" stroke-miterlimit="10" stroke-linecap="round" stroke-linejoin="round"/>
<path d="M139.425 10.6397C124.265 -0.976461 101.847 -0.415291 85.5386 9.54543C69.2299 19.5062 58.8339 37.4635 55.0509 56.2065C52.0526 71.0213 52.557 87.1268 44.7389 100.062C38.7703 109.91 28.7665 116.476 20.7523 124.753C8.03038 137.912 -3.12229 161.201 6.06885 179.158" stroke="#FF3B0D" stroke-width="2.24467" stroke-miterlimit="10" stroke-linecap="round" stroke-linejoin="round"/>
<path d="M139.313 10.5835C150.606 19.1694 156.378 37.239 150.998 57.2726" stroke="#FF3B0D" stroke-width="2.24467" stroke-miterlimit="10" stroke-linecap="round" stroke-linejoin="round"/>
<path d="M137.8 9.48926C138.5 14.6239 140.434 23.322 138.977 28.3164" stroke="#FF3B0D" stroke-width="2.24467" stroke-miterlimit="10" stroke-linecap="round" stroke-linejoin="round"/>
<path d="M135.922 28.7935C129.337 33.6756 121.547 36.5937 114.122 40.0729C106.696 43.5241 99.8584 47.789 95.0947 54.4669" stroke="#FF3B0D" stroke-width="2.24467" stroke-miterlimit="10" stroke-linecap="round" stroke-linejoin="round"/>
<path d="M106.527 25.4546C98.0365 35.4995 94.9261 49.0798 94.1135 62.2391C93.3008 75.3704 94.4777 88.614 93.2728 101.717C92.0679 114.821 88.0888 128.317 78.7295 137.548" stroke="#FF3B0D" stroke-width="2.24467" stroke-miterlimit="10" stroke-linecap="round" stroke-linejoin="round"/>
<path d="M75.2267 101.857C74.1619 108.199 71.1075 114.091 67.2405 119.254C63.3735 124.416 58.7779 128.934 54.1543 133.451" stroke="#FF3B0D" stroke-width="2.24467" stroke-miterlimit="10" stroke-linecap="round" stroke-linejoin="round"/>
<path d="M41.9931 119.141C36.4167 124.36 30.8404 129.607 26.4129 135.836C22.0135 142.065 18.8471 149.388 18.791 157.02" stroke="#FF3B0D" stroke-width="2.24467" stroke-miterlimit="10" stroke-linecap="round" stroke-linejoin="round"/>
<path d="M25.8242 144.253C24.4791 146.442 23.7225 148.967 23.6665 151.549" stroke="#FF3B0D" stroke-width="2.24467" stroke-miterlimit="10" stroke-linecap="round" stroke-linejoin="round"/>
<path d="M103.753 38.7821C111.095 36.4532 117.904 32.525 123.621 27.3623" stroke="#FF3B0D" stroke-width="2.24467" stroke-miterlimit="10" stroke-linecap="round" stroke-linejoin="round"/>
<path d="M112.804 30.5892C114.906 29.2143 117.007 27.8395 119.109 26.4646" stroke="#FF3B0D" stroke-width="2.24467" stroke-miterlimit="10" stroke-linecap="round" stroke-linejoin="round"/>
<path d="M83.3527 16.5039C76.5994 21.7789 71.0791 28.6251 67.3242 36.3692" stroke="#FF3B0D" stroke-width="2.24467" stroke-miterlimit="10" stroke-linecap="round" stroke-linejoin="round"/>
<path d="M66.1765 40.073C66.0362 40.2133 65.8678 40.3816 65.7275 40.5219" stroke="#FF3B0D" stroke-width="2.24467" stroke-miterlimit="10" stroke-linecap="round" stroke-linejoin="round"/>
<path d="M138.977 28.2886C144.777 36.9306 149.569 46.9474 150.998 57.2729" stroke="#FF3B0D" stroke-width="2.24467" stroke-miterlimit="10" stroke-linecap="round" stroke-linejoin="round"/>
<path d="M149.008 117.991C149.624 124.08 152.034 129.944 155.873 134.714C160.721 140.69 168.007 145.404 169.492 152.952" stroke="#FF3B0D" stroke-width="2.24467" stroke-miterlimit="10" stroke-linecap="round" stroke-linejoin="round"/>
<path d="M151.979 139.399C154.557 144.169 158.059 148.406 162.235 151.857" stroke="#FF3B0D" stroke-width="2.24467" stroke-miterlimit="10" stroke-linecap="round" stroke-linejoin="round"/>
<path d="M89.9105 38.2773C82.4007 53.7656 83.3814 71.779 82.3726 88.9508C81.3638 106.122 77.0765 124.978 63.0376 134.882" stroke="#FF3B0D" stroke-width="2.24467" stroke-miterlimit="10" stroke-linecap="round" stroke-linejoin="round"/>
</svg>
