<svg width="280" height="240" viewBox="0 0 282 241" fill="none" xmlns="http://www.w3.org/2000/svg">
<path d="M139.077 20.2972C139.306 21.1214 139.994 22.8694 140.939 23.1679C142.07 23.5374 142.471 22.4147 142.371 21.5336C142.256 20.6098 141.583 18.9755 140.509 18.7623C139.636 18.6202 138.834 19.4445 139.077 20.2972Z" fill="#EBF2FF"/>
<path d="M150.69 23.8507C152.093 24.6608 154.098 21.1932 153.038 20.2552C151.621 19.0331 149.143 22.9554 150.69 23.8507Z" fill="#EBF2FF"/>
<path d="M145.522 28.7246C145.765 28.7103 145.994 28.7103 146.237 28.7388C146.996 28.824 148.543 27.4597 146.839 26.6923C144.562 25.6833 143.775 28.8382 145.522 28.7246Z" fill="#EBF2FF"/>
<path d="M136.916 38.8999C140.038 40.5343 144.347 40.6479 145.98 39.9658C147.039 39.5252 148.629 38.502 148.486 37.1804C148.428 36.5977 148.056 35.7734 147.383 35.9013C146.639 36.0577 146.209 36.754 145.608 37.1377C144.992 37.5356 144.247 37.6209 143.531 37.5925C141.326 37.5214 139.121 36.4982 137.26 35.3613C133.608 33.1301 133.179 32.1353 133.164 32.1921C133.036 32.9596 134.052 30.6431 133.537 29.8899C133.193 29.3783 132.506 29.222 132.005 29.5915C130.157 30.9273 130.687 34.3381 132.033 35.7876C133.365 37.223 135.183 38.0046 136.916 38.8999Z" fill="#EBF2FF"/>
<path d="M115.478 48.0095C118.858 46.5315 121.836 44.215 124.141 41.3585C125.258 39.9658 126.217 38.3173 126.962 36.6972C127.692 35.0913 127.921 32.3058 125.659 34.5939C124.012 36.2566 121.75 37.0382 119.888 38.3883C117.726 39.9516 116.022 42.0833 114.891 44.485C114.419 45.4372 113.087 49.0469 115.478 48.0095Z" fill="#EBF2FF"/>
<path d="M131.79 75.0396C130.573 74.2722 124.23 70.7762 123.714 73.2206C123.571 73.8743 125.089 81.2784 127.151 82.458C129.814 83.9786 132.549 84.7176 135.055 82.5717C137.704 80.3121 133.824 76.3186 131.79 75.0396Z" fill="#EBF2FF"/>
<path d="M118.187 62.8888C120.263 59.9044 113.963 55.6836 113.132 58.867C112.617 60.8282 116.554 65.2337 118.187 62.8888Z" fill="#EBF2FF"/>
<path d="M105.226 87.2898C105.727 89.8479 108.82 90.8143 110.897 91.7664C112.071 92.3065 113.674 93.3581 115.035 93.0739C116.18 92.8465 116.953 91.738 116.581 90.6153C116.18 89.3931 114.763 89.0805 113.689 88.6968C112.2 88.1709 110.653 87.6735 109.25 86.9487C108.405 86.5082 107.245 84.9307 106.3 85.0586C105.341 85.1865 105.083 86.5508 105.226 87.2898ZM114.634 90.999C114.648 90.9848 114.648 90.9848 114.634 90.999C114.648 90.9848 114.648 90.9848 114.634 90.999Z" fill="#EBF2FF"/>
<path d="M110.654 97.8773C111.227 98.3037 112.043 97.8205 112.201 97.2236C112.444 96.2572 111.313 95.7314 110.697 95.2056C109.924 94.5519 109.208 93.8413 108.521 93.1023C108.005 92.5338 107.318 91.2122 106.616 90.9137C106.001 90.6437 105.256 90.8711 105.07 91.5675C104.841 92.3491 105.743 93.1165 106.187 93.6565C107.49 95.2198 108.993 96.6409 110.654 97.8773Z" fill="#EBF2FF"/>
<path d="M145.378 86.963C145.192 84.3765 140.037 87.5741 139.092 88.2136C137.388 89.3363 134.639 91.8233 136.744 93.9408C139.722 96.911 148.499 89.4784 145.378 86.963Z" fill="#EBF2FF"/>
<path d="M152.309 61.8229C152.18 62.3345 152.466 62.8461 152.939 63.0593C153.612 63.3435 153.74 62.8319 154.227 62.7182C155.989 62.3203 158.165 62.5477 159.969 62.4624C162.074 62.363 164.179 62.2493 166.269 62.1498C167.315 62.0929 168.374 62.0503 169.42 61.9935C170.379 61.9508 171.882 62.1356 172.756 61.7945C173.615 61.4534 173.959 60.3876 173.085 59.8191C172.054 59.137 168.775 59.8902 167.53 59.947C163.277 60.1602 159.01 60.3591 154.757 60.5723C155.573 56.4084 155.602 52.1023 154.857 47.9242C154.614 46.6025 152.652 37.2514 150.533 38.8857C149.345 39.8094 151.006 42.069 151.392 43.1207C152.094 45.0677 152.595 47.0857 152.91 49.1321C153.554 53.3529 153.354 57.6874 152.309 61.8229Z" fill="#EBF2FF"/>
<path d="M100.988 106.589C101.317 107.811 104.238 107.783 105.241 107.811C107.002 107.868 108.763 107.626 110.481 107.271C113.832 106.575 117.054 105.367 120.419 104.685C124.027 103.946 127.42 104.656 131.043 104.528C134.566 104.415 137.229 102.624 140.336 101.231C142.613 100.208 146.851 99.54 148.097 97.0957C150.001 93.3581 142.541 94.7224 141.052 94.9213C137.458 95.4045 133.893 96.1719 130.413 97.2236C126.919 98.2752 123.554 99.9522 119.874 100.251C116.023 100.563 112.285 100.364 108.52 101.402C107.331 101.729 98.2386 104.898 100.988 106.589Z" fill="#EBF2FF"/>
<path d="M174.846 117.688C174.445 115.656 170.922 118.058 169.863 118.413C167.829 119.109 165.724 119.564 163.734 120.402C161.916 121.17 160.169 122.25 158.909 123.785C157.949 124.964 156.46 127.551 158.279 128.688C159.854 129.654 161.486 127.721 162.546 126.812C164.164 125.419 165.825 124.51 167.858 123.842C169.59 123.259 171.481 122.804 173.056 121.838C174.215 121.141 176.263 119.081 174.846 117.688Z" fill="#EBF2FF"/>
<path d="M179.859 121.653C180.875 122.236 181.391 120.999 182.092 120.573C182.751 120.175 184.24 119.607 183.023 118.583C181.634 117.39 177.983 120.573 179.859 121.653Z" fill="#EBF2FF"/>
<path d="M178.339 110.781C181.389 109.502 178.798 103.946 177.624 102.368C176.607 100.99 175.318 99.7675 173.843 98.8864C172.683 98.2042 170.435 97.1384 169.047 97.38C166.269 97.8632 169.677 104.045 170.55 105.324C171.495 106.717 172.669 107.953 174.015 108.962C175.032 109.73 176.979 111.35 178.339 110.781Z" fill="#EBF2FF"/>
<path d="M173.842 98.5169C176.491 99.4122 178.739 101.26 180.185 103.619C180.615 104.315 180.93 105.495 181.975 105.125C183.293 104.67 182.491 103.292 182.047 102.553C180.744 100.379 178.811 98.5879 176.577 97.3941C175.861 97.0104 174.272 95.9872 173.47 96.6267C172.811 97.1526 173.098 98.2753 173.842 98.5169Z" fill="#EBF2FF"/>
<path d="M156.904 156.116C155.343 155.178 152.007 155.959 150.26 156.016C147.983 156.087 145.707 156.116 143.43 156.258C141.626 156.372 133.808 157.921 136.328 160.919C137.588 162.426 139.106 161.999 140.795 161.601C143.201 161.019 145.621 161.132 148.069 161.161C150.475 161.189 152.966 161.09 155.2 160.109C156.532 159.526 159.109 157.452 156.904 156.116Z" fill="#EBF2FF"/>
<path d="M173.33 152.876C171.927 152.62 170.553 153.728 169.364 154.24C167.975 154.851 166.529 155.334 165.14 155.959C164.038 156.457 162.978 156.997 162.921 158.347C162.863 159.541 163.737 160.479 164.825 160.848C167.359 161.701 170.438 159.939 172.242 158.29C173.273 157.381 176.509 153.472 173.33 152.876Z" fill="#EBF2FF"/>
<path d="M183.538 69.0282C185.643 68.9429 187.704 68.4029 189.566 67.4365C191.585 66.3849 191.012 65.4043 189.251 64.7647C188.42 64.4663 188.234 64.2247 187.203 64.4805C186.315 64.7079 185.442 65.12 184.683 65.6174C184.053 66.0154 182.807 66.797 182.578 67.5644C182.363 68.2466 182.75 69.0708 183.538 69.0282Z" fill="#EBF2FF"/>
<path d="M98.2112 127.352C105.814 126.258 113.518 127.124 121.136 127.679C127.221 128.119 135.798 129.583 140.939 125.433C141.941 124.637 143.115 123.387 143.444 122.122C143.946 120.161 142.013 120.601 140.738 120.886C137.001 121.696 133.206 122.207 129.398 122.406C121.923 122.79 114.42 121.98 107.218 119.99C106.888 119.905 106.445 119.848 106.144 119.692C104.511 118.839 106.029 119.763 105.514 118.896C105.184 118.356 105.213 118.001 104.454 117.944C103.123 117.859 101.19 119.393 100.273 120.218C99.3424 120.999 94.7031 127.849 98.2112 127.352Z" fill="#EBF2FF"/>
<path d="M218.761 146.125C218.733 146.765 218.675 147.404 218.618 148.029C220.78 146.949 223.043 146.58 225.291 145.798C226.708 145.301 225.677 144.917 225.062 143.908C224.489 142.97 224.088 141.919 223.859 140.838C223.673 139.915 223.673 138.991 223.601 138.067C223.53 137.257 223.873 135.424 223.587 134.799C222.842 133.164 218.976 133.107 217.516 132.88C218.489 137.229 218.962 141.677 218.761 146.125Z" fill="#EBF2FF"/>
<path d="M219.98 183.558C229.201 180.346 237.864 175.585 247.286 172.914C251.768 171.635 256.278 171.535 260.846 170.81C262.278 170.583 263.839 169.83 263.667 168.11C263.495 166.419 261.677 164.33 260.646 163.023C256.236 157.437 249.72 152.776 242.804 150.843C238.337 149.593 233.44 149.01 228.758 149.522C225.092 149.92 218.319 151.227 217.174 155.292C216.515 157.622 215.713 159.91 214.868 162.17C213.265 166.476 211.403 170.697 209.184 174.719C208.081 176.722 206.864 178.669 205.518 180.517C204.516 181.895 203.113 184.212 201.079 183.046C199.017 181.853 200.392 179.948 201.394 178.655C202.554 177.134 203.628 175.529 204.587 173.88C210.902 163.108 215.699 150.659 213.938 138.025C213.136 132.297 211.346 126.755 209.284 121.369C205.432 111.321 201.194 101.43 197.299 91.397C195.896 87.7873 191.743 81.8327 194.178 77.9387C196.898 73.59 204.072 77.2282 207.566 78.5072C207.351 78.4361 207.809 69.0708 207.838 68.2323C207.909 66.7828 208.224 65.3332 208.181 63.8694C208.124 61.7661 207.652 61.6524 205.647 61.8656C201.136 62.363 199.218 66.4275 196.254 69.1845C195.681 69.7103 195.037 70.293 194.306 70.5772C191.199 71.7994 188.708 74.2864 187.061 77.1429C184.999 80.7526 185.2 83.6233 186.402 87.503C189.667 98.0621 193.018 108.593 196.239 119.152C199.232 128.944 202.697 139.19 201.724 149.564C200.821 159.185 195.939 169.418 186.13 172.402C186.13 170.185 181.147 169.901 179.658 169.702C177.066 169.375 174.647 168.991 172.57 167.3C170.709 165.794 170.165 163.79 167.516 163.563C164.767 163.335 161.616 163.264 158.896 163.747C155.502 164.358 159.769 167.371 160.958 167.925C163.607 169.162 166.599 169.361 169.406 170.071C171.453 170.597 173.372 171.379 175.262 172.317C176.064 172.715 176.809 173.098 177.339 173.852C177.94 174.704 178.957 176.353 177.94 177.362C178.556 176.737 172.757 176.381 172.585 176.395C167.244 176.509 161.917 176.68 156.562 176.68C151.049 176.68 145.579 176.921 140.067 176.594C139.479 176.566 130.931 176.651 131.704 177.66C126.077 170.157 121.839 161.587 124.445 152.108C125.619 147.845 127.867 143.752 130.874 140.497C133.752 137.385 138.95 134.898 140.038 130.549C135.169 130.393 130.315 129.938 125.447 129.739C120.378 129.54 115.266 129.64 110.197 129.754C100.36 129.967 90.4946 130.549 80.8007 132.283C71.6367 133.918 62.5442 136.618 54.3967 141.165C46.9366 145.329 40.665 151.355 35.6963 158.219C31.0999 164.572 27.5059 171.848 26.0168 179.55C25.6015 181.668 25.3438 183.828 25.2865 186.002C25.2722 186.287 25.0717 187.878 25.3151 188.106C25.444 188.219 26.2459 188.106 26.389 188.106C27.1336 188.106 28.7946 188.418 29.4676 188.106C30.2981 187.722 31.2002 185.434 31.9734 184.624C34.8944 181.568 38.9753 180.702 43.0705 180.559C49.6142 180.318 56.158 180.858 62.7017 180.886C69.947 180.9 77.2067 180.687 84.4521 180.986C85.3685 181.028 87.2013 180.744 87.9888 181.256C88.5043 181.597 88.6904 182.194 88.3468 182.748C87.6595 183.814 85.0678 183.132 83.9938 183.075C81.6599 182.975 79.3259 182.961 76.9919 182.975C71.7799 183.004 66.5535 183.217 61.3414 183.075C55.5423 182.933 49.7574 182.563 43.9583 182.691C39.2474 182.805 34.5508 183.658 32.0307 188.077C48.8983 188.077 65.7659 188.205 82.6335 188.077C84.6811 188.063 86.7431 188.006 88.7907 187.978C90.3085 187.949 91.812 187.935 93.3298 187.907C94.7187 187.893 96.4799 188.177 97.8115 187.85C99.4725 187.438 100.274 185.093 101.134 183.771C102.723 181.313 104.355 178.868 105.801 176.324C110.212 168.494 112.173 159.242 105.615 151.909C101.491 147.29 95.4489 144.704 89.4637 143.411C86.3851 142.743 83.2206 142.416 80.0705 142.416C78.0372 142.416 73.1688 143.794 71.6367 142.26C69.7895 140.426 71.8085 138.693 73.6699 138.423C76.6626 137.996 79.7698 138.01 82.7767 138.238C94.0743 139.048 107.19 143.368 112.388 154.24C118.173 166.32 110.169 177.859 103.797 187.793C119.147 187.608 134.496 187.551 149.846 187.694C165.053 187.836 180.36 188.93 195.552 188.276C203.957 187.907 212.033 186.329 219.98 183.558ZM79.9702 167.087C82.1897 167.087 84.3804 166.803 86.5855 166.632C88.0604 166.519 91.2106 166.05 92.4706 167.087C93.5445 167.982 92.5708 169.006 91.454 168.963C89.4493 168.878 87.6881 168.636 85.6405 168.849C76.906 169.773 67.7992 169.148 59.0504 168.721C55.0125 168.522 50.8027 168.224 46.8364 169.204C45.1038 169.631 43.4571 170.313 42.0396 171.407C40.4215 172.644 39.906 174.235 38.6746 175.699C38.0446 176.438 36.67 176.566 36.5984 175.273C36.5125 173.98 38.4598 171.89 39.276 171.038C41.925 168.267 45.562 167.044 49.3136 166.632C54.2965 166.078 59.3797 166.661 64.377 166.803C69.5604 166.945 74.7725 167.059 79.9702 167.087ZM167.258 178.811C169.692 178.811 172.112 178.811 174.546 178.811C171.053 179.309 167.373 179.195 163.85 179.337C160.013 179.494 156.175 179.621 152.338 179.721C148.629 179.82 144.921 179.906 141.212 179.963C138.549 180.005 134.869 180.787 132.721 178.811C144.219 179.053 155.76 178.811 167.258 178.811ZM193.834 184.311C185.343 184.311 176.852 184.311 168.346 184.311C155.388 184.311 142.429 184.311 129.471 184.311C127.695 184.311 125.905 184.311 124.13 184.311C123.485 184.311 122.311 184.51 121.71 184.169C119.719 183.018 122.168 182.194 123.199 182.194C124.76 182.194 126.32 182.194 127.895 182.194C140.654 182.194 153.412 182.194 166.17 182.194C172.313 182.194 178.441 182.194 184.584 182.194C187.419 182.194 190.698 181.725 193.505 182.194C194.679 182.393 195.395 184.311 193.834 184.311Z" fill="#EBF2FF"/>
<path d="M53.4069 210.247C49.7269 207.959 46.9777 204.321 45.6604 200.228C45.331 199.205 45.1019 198.153 44.9587 197.087C44.8155 196.064 45.0447 194.828 44.8155 193.861C44.386 192.042 42.725 192.966 42.6534 194.458C42.4386 198.793 44.0996 203.312 46.634 206.794C47.8798 208.485 49.369 210.005 51.0729 211.242C51.6743 211.682 52.5907 212.578 53.3926 212.095C54.0655 211.697 54.0655 210.659 53.4069 210.247Z" fill="#EBF2FF"/>
<path d="M69.2004 192.909C67.6969 191.587 65.1195 190.792 63.1292 191.147C61.6114 191.417 60.2798 192.952 59.5781 194.259C58.1749 196.86 58.3754 200.697 60.6234 202.8C66.1935 208.002 74.842 197.855 69.2004 192.909Z" fill="#EBF2FF"/>
<path d="M71.6076 217.353C75.76 214.667 79.2252 210.972 81.6451 206.68C82.8765 204.491 83.8502 202.161 84.4945 199.731C84.7236 198.864 85.368 197.258 85.1246 196.348C84.8955 195.481 83.8788 195.069 83.2201 195.823C82.6044 196.519 82.6617 198.267 82.404 199.176C82.089 200.342 81.688 201.493 81.2298 202.616C80.2991 204.847 79.082 206.964 77.6215 208.897C76.161 210.83 74.4427 212.578 72.524 214.084C71.851 214.61 70.147 215.335 70.0468 216.301C69.9609 217.14 70.8487 217.85 71.6076 217.353Z" fill="#EBF2FF"/>
<path d="M77.7907 216.131C80.3538 214.368 82.6162 212.151 84.406 209.622C85.2365 208.442 86.5825 206.751 86.8689 205.316C87.098 204.15 86.2531 203.198 85.1506 204.079C84.2199 204.818 83.5899 207.049 82.8739 208.073C81.9861 209.366 80.9838 210.574 79.8669 211.682C78.9649 212.564 77.0032 213.53 76.4161 214.582C75.9149 215.463 76.7597 216.841 77.7907 216.131Z" fill="#EBF2FF"/>
<path d="M88.9472 188.134C74.0127 188.134 59.0781 188.134 44.1578 188.134C42.7689 188.134 40.6354 187.708 39.318 188.163C38.5448 188.433 38.0866 189.399 38.8455 190.038C39.6617 190.735 42.4539 190.266 43.4419 190.266C45.2747 190.266 47.1218 190.266 48.9546 190.266C56.4291 190.266 63.9179 190.266 71.3923 190.266C75.5591 190.266 79.7402 190.266 83.907 190.266C85.1098 190.266 88.4747 190.82 89.4627 190.124C90.2646 189.57 90.0927 188.134 88.9472 188.134Z" fill="#EBF2FF"/>
<path d="M248.058 173.61C241.242 176.083 234.856 179.536 228.183 182.336C224.833 183.743 221.396 184.979 217.845 185.818C216.771 186.073 213.392 186.088 212.862 187.125C212.003 188.788 214.222 188.674 215.124 188.532C222.126 187.409 228.656 184.553 235.028 181.597C238.278 180.09 241.514 178.541 244.836 177.163C245.867 176.737 248.631 176.225 249.189 175.244C249.633 174.449 249.074 173.241 248.058 173.61Z" fill="#EBF2FF"/>
<path d="M238.709 184.809C236.375 184.823 234.055 185.562 232.137 186.884C231.478 187.338 230.089 188.134 230.39 189.129C230.619 189.896 231.392 189.967 232.008 189.726C232.91 189.371 233.712 188.347 234.642 187.893C235.645 187.409 236.704 187.139 237.807 187.011C238.551 186.926 239.439 187.082 239.711 186.201C239.912 185.519 239.425 184.809 238.709 184.809Z" fill="#EBF2FF"/>
<path d="M235.673 202.303C242.546 205.927 248.231 194.757 240.499 192.199C239.797 191.957 239.024 192 238.337 191.786C237.678 191.587 237.477 191.289 236.69 191.445C235.358 191.715 234.27 192.739 233.54 193.804C231.549 196.689 232.566 200.654 235.673 202.303Z" fill="#EBF2FF"/>
<path d="M213.505 196.078C213.663 199.688 214.579 203.269 216.183 206.524C216.999 208.172 217.959 209.863 219.161 211.256C220.393 212.691 221.982 211.739 220.894 210.02C218.932 206.907 217.128 204.193 216.269 200.541C216.068 199.702 215.911 198.864 215.811 198.011C215.725 197.372 215.882 196.291 215.567 195.709C215.095 194.799 213.448 194.842 213.505 196.078Z" fill="#EBF2FF"/>
<path d="M260.143 189.996C259.512 186.5 258.081 183.16 256.004 180.261C255.231 179.181 253.899 177.021 252.625 176.509C251.394 176.012 250.678 177.078 251.279 178.129C252.052 179.479 253.642 180.602 254.558 181.938C255.489 183.316 256.276 184.794 256.878 186.343C257.178 187.125 257.436 187.921 257.651 188.717C257.809 189.328 257.794 190.564 258.295 191.033C259.054 191.73 260.329 191.019 260.143 189.996Z" fill="#EBF2FF"/>
<path d="M255.519 213.828C258.296 211.668 260.444 208.741 261.719 205.486C262.019 204.719 264.325 196.689 261.447 198.494C260.459 199.105 260.673 201.607 260.401 202.658C259.972 204.307 259.299 205.898 258.411 207.362C257.466 208.911 256.292 210.332 254.931 211.54C254.459 211.967 253.671 212.35 253.686 213.075C253.7 214.042 254.803 214.383 255.519 213.828Z" fill="#EBF2FF"/>
<path d="M245.195 211.981C242.632 213.416 239.596 213.899 236.718 213.359C235.859 213.203 234.671 212.535 234.184 213.615C233.711 214.653 234.671 215.051 235.473 215.264C238.193 216.017 241.243 215.818 243.892 214.894C244.694 214.624 246.541 214.184 246.784 213.231C246.985 212.365 246.04 211.512 245.195 211.981Z" fill="#EBF2FF"/>
<path d="M245.01 215.051C243.979 215.278 241.072 215.321 240.643 216.457C240.299 217.367 241.216 217.836 241.946 217.893C242.719 217.935 245.64 217.481 246.184 216.756C246.757 215.974 245.941 214.852 245.01 215.051Z" fill="#EBF2FF"/>
<path d="M18.0971 222.739C16.6652 222.099 14.8754 222.17 13.6153 223.151C12.8135 223.776 12.4125 225.084 13.7871 225.34C14.4028 225.453 14.5747 224.97 15.0615 224.757C15.8634 224.402 16.207 224.53 17.0089 224.586C17.596 224.629 18.0828 224.856 18.4837 224.203C18.7558 223.734 18.6126 222.966 18.0971 222.739Z" fill="#EBF2FF"/>
<path d="M155.73 222.867C118.716 222.81 81.6875 222.767 44.6732 222.711C40.1628 222.711 35.6523 222.696 31.1419 222.696C28.8795 222.696 26.6314 222.696 24.3691 222.682C23.5242 222.682 19.9732 222.099 20.5889 224.061C21.0041 225.411 23.7104 224.814 24.7557 224.814C27.1326 224.814 29.5095 224.814 31.8865 224.828C36.5115 224.828 41.1364 224.842 45.7614 224.842C64.1325 224.871 82.5037 224.899 100.875 224.927C111.328 224.942 121.78 224.956 132.219 224.97C137.388 224.984 142.571 224.984 147.74 224.999C149.072 224.999 150.389 224.999 151.721 224.999C152.852 224.999 154.642 225.325 155.702 224.999C156.833 224.657 157.291 222.867 155.73 222.867Z" fill="#EBF2FF"/>
<path d="M185.528 224.586C182.879 224.345 180.215 224.132 177.566 223.819C176.249 223.677 174.946 223.492 173.614 223.535C172.24 223.563 171.037 224.032 169.705 224.231C167.314 224.601 165.281 222.782 162.875 223.094C160.756 223.364 160.384 225.51 162.617 225.34C163.677 225.254 164.278 225.155 165.338 225.524C166.541 225.937 167.557 226.462 168.875 226.448C170.092 226.448 171.209 225.951 172.397 225.766C173.772 225.553 175.175 225.681 176.55 225.823C179.156 226.093 181.762 226.349 184.368 226.604C185.141 226.676 186.201 227.002 186.53 226.05C186.745 225.382 186.215 224.643 185.528 224.586Z" fill="#EBF2FF"/>
<path d="M272.914 234.009C268.547 235.444 263.965 233.483 259.612 232.957C257.894 232.758 254.5 232.36 253.04 233.54C252.023 234.35 252.524 235.572 253.784 235.501C254.801 235.444 255.818 234.975 256.891 234.947C257.937 234.904 258.996 235.003 260.027 235.16C262.261 235.487 264.452 236.083 266.686 236.41C268.604 236.68 271.711 237.107 273.487 236.069C274.504 235.472 274.346 233.54 272.914 234.009Z" fill="#EBF2FF"/>
<path d="M218.087 231.138C217.285 230.598 216.125 230.839 215.223 230.868C214.206 230.91 212.746 230.697 211.801 231.01C210.841 231.323 210.24 232.531 211.428 233.099C212.86 233.781 215.137 232.587 216.669 232.943C217.242 233.085 217.371 233.724 218.13 233.312C218.989 232.843 218.803 231.621 218.087 231.138Z" fill="#EBF2FF"/>
<path d="M199.188 234.08C198.315 233.966 196.883 233.426 196.296 234.321C195.723 235.188 196.439 235.7 197.169 235.97C197.828 236.211 199.389 236.453 199.947 235.913C200.663 235.202 200.076 234.193 199.188 234.08Z" fill="#EBF2FF"/>
<path d="M181.275 231.166C180.359 230.996 178.498 231.11 178.412 232.36C178.34 233.597 179.385 233.326 180.13 233.284C180.359 233.27 180.932 233.298 181.118 233.241C182.02 232.929 182.621 231.408 181.275 231.166Z" fill="#EBF2FF"/>
<path d="M167.545 233.099C165.383 233.128 163.221 233.17 161.059 233.014C158.94 232.857 156.949 232.303 154.873 231.962C153.341 231.706 150.95 231.451 149.704 232.659C148.63 233.696 149.561 234.79 150.792 234.506C151.551 234.321 152.11 233.909 152.954 233.866C153.856 233.824 154.744 234.037 155.618 234.222C157.508 234.648 159.341 235.018 161.288 235.146C162.462 235.231 163.636 235.245 164.81 235.245C165.627 235.245 167.216 235.529 167.932 235.16C168.848 234.677 168.791 233.071 167.545 233.099Z" fill="#EBF2FF"/>
<path d="M120.62 237.135C119.703 237.135 117.928 236.695 117.412 237.746C116.997 238.585 117.641 239.096 118.343 239.267C119.102 239.466 121.006 239.508 121.493 238.812C121.966 238.116 121.45 237.135 120.62 237.135Z" fill="#EBF2FF"/>
<path d="M75.1863 229.404C73.6398 229.177 72.1507 229.617 70.6042 229.489C69.2726 229.39 68.0412 228.85 66.6952 228.821C65.6213 228.793 63.3016 229.006 62.6 229.93C62.1132 230.569 62.1561 231.479 63.0868 231.763C63.9889 232.033 65.2776 230.967 66.28 230.939C67.898 230.882 69.4015 231.678 71.0338 231.678C71.7498 231.678 72.4657 231.522 73.1816 231.479C73.6542 231.451 74.5706 231.621 75.0288 231.479C75.9452 231.195 76.5036 229.603 75.1863 229.404Z" fill="#EBF2FF"/>
<path d="M88.9178 238.428C87.2997 238.116 85.9538 238.698 84.393 238.883C82.7463 239.082 81.5722 238.343 80.0114 238.059C79.1093 237.888 77.2479 237.76 76.6178 238.627C76.0308 239.437 76.7754 240.29 77.6345 240.347C78.15 240.375 78.6511 240.048 79.2096 240.077C79.9541 240.12 80.6987 240.475 81.4147 240.688C82.9897 241.157 84.2212 241.043 85.7819 240.702C86.6554 240.517 88.6743 240.802 89.333 240.205C89.9058 239.665 89.7769 238.599 88.9178 238.428Z" fill="#EBF2FF"/>
<path d="M102.693 229.816C101.633 229.759 98.6837 229.504 98.2112 230.768C97.8675 231.692 98.7839 232.147 99.5142 232.189C100.287 232.246 101.261 231.948 102.063 231.919C102.493 231.905 102.994 232.047 103.366 231.763C104.125 231.152 103.624 229.859 102.693 229.816Z" fill="#EBF2FF"/>
<path d="M42.5533 231.237C40.5486 230.115 38.2003 229.66 35.9236 229.944C35.2363 230.029 34.1195 230.072 33.8474 230.868C33.6469 231.465 34.0478 232.062 34.592 232.261C35.3079 232.516 36.6252 231.991 37.4128 232.005C38.501 232.019 39.5749 232.246 40.5773 232.659C41.2789 232.957 41.9948 233.554 42.6821 232.943C43.2119 232.46 43.2119 231.607 42.5533 231.237Z" fill="#EBF2FF"/>
<path d="M46.263 209.75C45.9336 209.068 45.0888 209.082 44.6163 209.593C43.9433 210.318 44.5734 211.199 44.9743 211.896C46.0625 213.743 47.6233 215.52 49.4704 216.685C51.3032 217.85 52.1337 216.045 50.5443 214.837C48.7401 213.445 47.2653 211.825 46.263 209.75Z" fill="#EBF2FF"/>
<path d="M279.947 223.435C268.177 223.506 256.421 223.563 244.651 223.663C238.866 223.705 232.895 222.696 227.168 223.45C221.469 224.203 216.328 224.8 210.601 223.847C208.109 223.435 205.589 222.824 203.04 222.952C202.453 222.981 197.084 223.776 199.346 225.496C200.005 226.008 200.95 225.397 201.652 225.254C202.912 224.999 204.2 225.027 205.475 225.155C208.338 225.453 211.131 226.207 214.009 226.477C216.83 226.747 219.693 226.676 222.5 226.32C225.321 225.951 228.084 225.254 230.948 225.297C233.654 225.34 236.346 225.738 239.052 225.78C242.045 225.837 245.038 225.78 248.03 225.752C254.474 225.709 260.917 225.667 267.346 225.624C270.754 225.595 274.177 225.581 277.584 225.553C278.458 225.553 280.205 225.951 280.821 225.07C281.293 224.416 280.778 223.435 279.947 223.435Z" fill="#EBF2FF"/>
<path d="M101.061 92.818C101.949 88.2988 102.493 83.7227 103.639 79.2603C103.839 78.4645 103.181 77.9387 102.536 77.9387C102.422 77.896 102.278 77.8676 102.121 77.8676C101.634 77.8676 101.147 77.8676 100.675 77.8676C90.7088 77.8676 80.7429 77.8676 70.7913 77.8676C60.3385 77.8676 49.9001 77.8676 39.4473 77.8676C33.5336 77.8676 27.6199 77.8676 21.7062 77.8676C20.575 77.8676 20.3746 79.2888 21.0905 79.8146C20.7469 92.0648 20.6896 104.329 20.9044 116.58C20.9617 120.076 21.0476 123.572 21.1621 127.053C21.1764 127.65 21.6346 128.091 22.236 128.119C34.1493 128.602 46.2488 128.432 58.1621 128.645C64.0758 128.759 69.8749 128.347 75.7743 128.645C86.943 129.213 87.0289 127.65 92.7135 128.105C97.6821 128.503 95.9782 124.026 98.2263 121.269C99.114 120.175 100.288 119.337 101.591 118.782C102.794 118.271 104.197 117.901 103.381 116.651C102.694 115.585 101.792 113.624 101.405 111.975C101.047 110.469 101.176 108.92 101.563 107.456C102.379 104.201 97.5103 110.739 101.061 92.818Z" fill="#E0FFEC"/>
<path d="M151.737 5.48942C150.949 4.67937 149.889 4.05407 149.03 3.58509C146.639 2.29185 144.076 1.69497 141.37 2.29185C140.339 2.51923 136.458 3.14454 134.296 7.03847C133.108 9.18439 132.148 11.4724 132.12 13.931C132.105 15.608 132.377 18.5355 134.296 19.1892C137.06 20.1272 138.162 15.6648 138.706 13.8457C138.993 12.8936 139.079 11.7709 140.11 11.3161C141.083 10.8756 142.257 11.1456 143.274 11.1882C145.064 11.2735 146.897 11.3303 148.687 11.0887C150.376 10.8613 152.682 10.0797 152.825 8.06169C152.911 7.06689 152.438 6.2142 151.737 5.48942Z" fill="#E0FFEC"/>
<path d="M142.543 15.167C143.76 14.8115 145.077 14.8257 146.28 15.2097" stroke="#002464" stroke-width="0.859132" stroke-miterlimit="10" stroke-linecap="round" stroke-linejoin="round"/>
<path d="M144.417 17.3127C144.331 17.5828 144.245 17.8528 144.174 18.1086" stroke="#002464" stroke-width="0.859132" stroke-miterlimit="10" stroke-linecap="round" stroke-linejoin="round"/>
<path d="M152.049 15.565C151.505 15.3945 150.918 15.3518 150.345 15.4371C150.073 15.4797 149.786 15.5508 149.557 15.7213C149.171 15.9914 148.999 16.4745 148.913 16.9293C148.641 18.1799 148.755 19.4874 149.042 20.738C149.085 20.9511 149.142 21.1643 149.099 21.3775C149.027 21.7612 148.698 22.0454 148.326 22.1591C147.954 22.2728 147.553 22.2586 147.166 22.2444" stroke="#002464" stroke-width="0.859132" stroke-miterlimit="10" stroke-linecap="round" stroke-linejoin="round"/>
<path d="M150.847 18.0801C150.805 18.3073 150.762 18.5345 150.719 18.7616" stroke="#002464" stroke-width="0.859132" stroke-miterlimit="10" stroke-linecap="round" stroke-linejoin="round"/>
<path d="M144.703 24.1058C145.333 24.8878 146.393 25.3002 147.395 25.1153" stroke="#002464" stroke-width="0.859132" stroke-miterlimit="10" stroke-linecap="round" stroke-linejoin="round"/>
<path d="M153.64 15.3234C153.196 18.7483 152.752 22.1875 151.764 25.4987C151.191 27.3747 150.361 29.3216 148.743 30.4301C147.254 31.4533 145.278 31.6097 143.531 31.1123C141.798 30.6149 140.28 29.5064 139.049 28.1989" stroke="#002464" stroke-width="0.859132" stroke-miterlimit="10" stroke-linecap="round" stroke-linejoin="round"/>
<path d="M134.597 23.4805C134.397 26.4365 133.566 29.6341 133.137 32.5758" stroke="#002464" stroke-width="0.859132" stroke-miterlimit="10" stroke-linecap="round" stroke-linejoin="round"/>
<path d="M147.954 31.0978C147.611 32.7748 147.281 34.4517 146.938 36.1287" stroke="#002464" stroke-width="0.859132" stroke-miterlimit="10" stroke-linecap="round" stroke-linejoin="round"/>
<path d="M133.049 28.7387C128.41 33.528 121.666 35.9155 117.155 40.8326C114.291 43.9591 112.502 47.8957 111.07 51.8749C108.993 57.6305 107.547 63.5851 106.115 69.5255C103.338 80.9799 100.545 92.4912 99.8008 104.244" stroke="#002464" stroke-width="0.859132" stroke-miterlimit="10" stroke-linecap="round" stroke-linejoin="round"/>
<path d="M133.234 32.8601C135.583 34.4375 138.074 35.8018 140.652 36.953C142.456 37.7488 144.604 38.4452 146.365 37.5356" stroke="#002464" stroke-width="0.859132" stroke-miterlimit="10" stroke-linecap="round" stroke-linejoin="round"/>
<path d="M136.184 36.5977C137.472 37.5783 138.818 38.502 140.336 39.0847C141.854 39.6674 143.543 39.8947 145.104 39.44" stroke="#002464" stroke-width="0.859132" stroke-miterlimit="10" stroke-linecap="round" stroke-linejoin="round"/>
<path d="M147.639 35.4039C152.321 43.1349 154.068 52.5713 152.493 61.4534" stroke="#002464" stroke-width="0.859132" stroke-miterlimit="10" stroke-linecap="round" stroke-linejoin="round"/>
<path d="M150.861 38.4877C151.663 39.042 152.179 39.9089 152.608 40.7758C155.171 45.8635 155.587 51.7328 155.443 57.4174" stroke="#002464" stroke-width="0.859132" stroke-miterlimit="10" stroke-linecap="round" stroke-linejoin="round"/>
<path d="M155.545 60.9281C161.187 60.6437 166.828 60.3593 172.47 60.0749" stroke="#002464" stroke-width="0.859132" stroke-miterlimit="10" stroke-linecap="round" stroke-linejoin="round"/>
<path d="M175.332 60.757C178.897 60.416 182.52 60.6291 186.014 61.4108C188.52 61.965 191.226 63.0167 192.314 65.3331" stroke="#002464" stroke-width="0.859132" stroke-miterlimit="10" stroke-linecap="round" stroke-linejoin="round"/>
<path d="M128.738 40.6194C132.36 42.8791 134.179 47.0856 135.539 51.1217C136.914 55.2004 138.031 59.4212 137.988 63.713C137.988 64.3241 137.945 64.9778 137.587 65.4894C137.243 66.0011 136.47 66.2711 135.969 65.9016C135.353 65.4468 135.639 64.3952 136.298 63.9972C136.957 63.6135 137.773 63.6704 138.532 63.7557C149.299 64.8215 158.779 61.4818 170.864 62.5903C169.69 67.5785 168.515 72.5525 167.327 77.5407C167.27 77.8108 167.198 78.095 166.998 78.2797C166.769 78.5071 166.411 78.5355 166.096 78.564C155.399 79.4593 144.76 80.9657 134.236 83.069C132.103 83.4953 129.726 83.9074 127.864 82.7847C125.902 81.591 125.229 79.1324 124.714 76.9154C123.468 71.4867 121.034 66.7685 119.774 61.3397C119.344 59.478 118.471 56.8489 117.125 55.4846" stroke="#002464" stroke-width="0.859132" stroke-miterlimit="10" stroke-linecap="round" stroke-linejoin="round"/>
<path d="M114.762 58.6822C115.592 59.0659 116.337 59.6628 116.881 60.3876" stroke="#002464" stroke-width="0.859132" stroke-miterlimit="10" stroke-linecap="round" stroke-linejoin="round"/>
<path d="M115.666 61.6097C115.967 61.8087 116.281 62.0077 116.582 62.2208" stroke="#002464" stroke-width="0.859132" stroke-miterlimit="10" stroke-linecap="round" stroke-linejoin="round"/>
<path d="M137.244 45.366C137.244 45.7639 137.244 46.1761 137.244 46.574" stroke="#002464" stroke-width="0.859132" stroke-miterlimit="10" stroke-linecap="round" stroke-linejoin="round"/>
<path d="M149.875 81.9321C148.643 83.2111 147.985 85.0018 148.099 86.764C148.171 87.972 148.586 89.1799 148.357 90.3595C148.113 91.5248 147.269 92.477 146.467 93.3581" stroke="#002464" stroke-width="0.859132" stroke-miterlimit="10" stroke-linecap="round" stroke-linejoin="round"/>
<path d="M99.858 105.04C99.6575 105.495 100.517 105.566 100.946 105.31C105.156 102.809 109.896 100.904 114.807 100.848C116.482 100.833 118.172 101.018 119.833 100.848C121.193 100.705 122.525 100.322 123.813 99.8811C127.579 98.5737 131.216 96.6267 135.197 96.3425C136.858 96.2288 138.548 96.4135 140.209 96.2146C142.113 95.9872 143.917 95.2482 145.693 94.5376" stroke="#002464" stroke-width="0.859132" stroke-miterlimit="10" stroke-linecap="round" stroke-linejoin="round"/>
<path d="M101.849 106.12C101.333 108.891 100.832 111.833 101.892 114.448C102.794 116.707 104.77 118.413 106.989 119.45C109.209 120.488 111.657 120.914 114.077 121.212C123.928 122.392 133.909 121.468 143.789 120.545" stroke="#002464" stroke-width="0.859132" stroke-miterlimit="10" stroke-linecap="round" stroke-linejoin="round"/>
<path d="M143.014 113.41C143.586 114.817 143.973 116.295 144.145 117.802" stroke="#002464" stroke-width="0.859132" stroke-miterlimit="10" stroke-linecap="round" stroke-linejoin="round"/>
<path d="M147.511 109.744C147.582 114.633 145.692 119.308 143.845 123.827C138.604 136.646 133.335 149.721 132.018 163.491" stroke="#002464" stroke-width="0.859132" stroke-miterlimit="10" stroke-linecap="round" stroke-linejoin="round"/>
<path d="M132.332 163.335C135.797 162.355 139.491 163.463 143.1 163.491C145.033 163.506 146.952 163.221 148.87 163.051C152.264 162.752 155.7 162.824 159.08 163.264C164.12 151.682 168.917 140 173.47 128.219C175.489 122.989 177.479 117.702 178.51 112.188C179.269 108.138 179.341 103.505 176.563 100.45C173.828 97.451 169.303 97.0246 165.222 96.7972C159.051 96.4562 152.894 96.1151 146.722 95.774" stroke="#002464" stroke-width="0.859132" stroke-miterlimit="10" stroke-linecap="round" stroke-linejoin="round"/>
<path d="M172.885 96.044C176.822 96.4846 180.03 98.8011 181.863 101.857C183.696 104.912 184.182 108.579 184.211 112.131C184.225 116.295 183.667 120.445 182.994 124.566C180.932 137.399 177.997 150.09 175.018 162.738" stroke="#002464" stroke-width="0.859132" stroke-miterlimit="10" stroke-linecap="round" stroke-linejoin="round"/>
<path d="M160.641 162.923C165.223 161.544 170.234 164.146 174.902 163.08" stroke="#002464" stroke-width="0.859132" stroke-miterlimit="10" stroke-linecap="round" stroke-linejoin="round"/>
<path d="M135.127 164.273C134.053 169.261 132.85 174.207 131.504 179.124" stroke="#002464" stroke-width="0.859132" stroke-miterlimit="10" stroke-linecap="round" stroke-linejoin="round"/>
<path d="M132.189 179.11C147.496 178.996 162.689 178.925 177.981 178.811" stroke="#002464" stroke-width="0.859132" stroke-miterlimit="10" stroke-linecap="round" stroke-linejoin="round"/>
<path d="M132.646 176.097C147.624 176.751 162.63 176.893 177.622 176.509" stroke="#002464" stroke-width="0.859132" stroke-miterlimit="10" stroke-linecap="round" stroke-linejoin="round"/>
<path d="M177.995 178.826C178.253 177.049 178.453 175.06 177.365 173.624C176.706 172.743 175.661 172.246 174.644 171.819C172.468 170.91 170.191 170.228 167.872 169.787C165.609 169.361 163.275 169.162 161.099 168.394C158.922 167.627 156.846 166.177 156.016 164.046" stroke="#002464" stroke-width="0.859132" stroke-miterlimit="10" stroke-linecap="round" stroke-linejoin="round"/>
<path d="M155.1 169.091C156.632 168.65 158.25 168.522 159.825 168.707" stroke="#002464" stroke-width="0.859132" stroke-miterlimit="10" stroke-linecap="round" stroke-linejoin="round"/>
<path d="M156.73 170.299C158.177 170.043 159.652 169.929 161.112 169.972" stroke="#002464" stroke-width="0.859132" stroke-miterlimit="10" stroke-linecap="round" stroke-linejoin="round"/>
<path d="M170.908 164.387C172.183 167.4 175.562 169.02 178.827 169.517C180.101 169.716 181.418 169.787 182.678 170.086C183.938 170.384 185.198 170.91 186.058 171.876" stroke="#002464" stroke-width="0.859132" stroke-miterlimit="10" stroke-linecap="round" stroke-linejoin="round"/>
<path d="M168.443 166.604C169.317 166.675 170.176 166.746 171.049 166.831" stroke="#002464" stroke-width="0.859132" stroke-miterlimit="10" stroke-linecap="round" stroke-linejoin="round"/>
<path d="M168.932 168.039C169.633 168.039 170.335 168.039 171.051 168.039" stroke="#002464" stroke-width="0.859132" stroke-miterlimit="10" stroke-linecap="round" stroke-linejoin="round"/>
<path d="M156.932 157.949C155.028 159.114 152.823 159.782 150.589 159.882C148.742 159.967 146.909 159.654 145.076 159.598C142.141 159.498 139.191 160.024 136.471 161.104" stroke="#002464" stroke-width="0.859132" stroke-miterlimit="10" stroke-linecap="round" stroke-linejoin="round"/>
<path d="M139.594 158.177C142.286 157.238 145.192 156.911 148.042 157.238" stroke="#002464" stroke-width="0.859132" stroke-miterlimit="10" stroke-linecap="round" stroke-linejoin="round"/>
<path d="M173.886 153.387C171.352 155.547 168.259 157.068 164.994 157.764" stroke="#002464" stroke-width="0.859132" stroke-miterlimit="10" stroke-linecap="round" stroke-linejoin="round"/>
<path d="M171.551 157.352C170.492 158.091 169.432 158.844 168.387 159.583" stroke="#002464" stroke-width="0.859132" stroke-miterlimit="10" stroke-linecap="round" stroke-linejoin="round"/>
<path d="M175.032 118.214C172.082 119.834 168.961 121.156 165.725 122.122" stroke="#002464" stroke-width="0.859132" stroke-miterlimit="10" stroke-linecap="round" stroke-linejoin="round"/>
<path d="M181.919 120.076C181.504 120.004 181.06 120.218 180.846 120.573" stroke="#002464" stroke-width="0.859132" stroke-miterlimit="10" stroke-linecap="round" stroke-linejoin="round"/>
<path d="M161.284 126.002C160.754 126.57 160.239 127.139 159.709 127.707" stroke="#002464" stroke-width="0.859132" stroke-miterlimit="10" stroke-linecap="round" stroke-linejoin="round"/>
<path d="M147.695 94.1255C155.499 94.5518 163.303 95.1629 171.078 95.9445" stroke="#002464" stroke-width="0.859132" stroke-miterlimit="10" stroke-linecap="round" stroke-linejoin="round"/>
<path d="M172.469 63.7414C176.492 63.0593 180.588 62.8177 184.654 63.0167C186.344 63.1019 188.105 63.2725 189.537 64.1536C191.499 65.3473 192.544 67.7206 192.487 69.9945C192.429 72.2825 191.37 74.4427 189.895 76.2049" stroke="#002464" stroke-width="0.859132" stroke-miterlimit="10" stroke-linecap="round" stroke-linejoin="round"/>
<path d="M190.482 68.2181C190.897 71.4156 189.766 74.7838 187.518 77.1144" stroke="#002464" stroke-width="0.859132" stroke-miterlimit="10" stroke-linecap="round" stroke-linejoin="round"/>
<path d="M187.904 68.1328C188.648 71.1598 187.761 74.5421 185.641 76.8302C185.14 77.3702 184.539 77.8676 183.809 78.0097" stroke="#002464" stroke-width="0.859132" stroke-miterlimit="10" stroke-linecap="round" stroke-linejoin="round"/>
<path d="M169.52 72.5241C170.665 72.8796 171.882 72.9507 173.071 72.7516" stroke="#002464" stroke-width="0.859132" stroke-miterlimit="10" stroke-linecap="round" stroke-linejoin="round"/>
<path d="M181.002 68.6302C183.107 69.426 184.596 71.444 184.596 73.8174C184.596 76.887 182.09 79.374 178.997 79.374C175.904 79.374 173.398 76.887 173.398 73.8174C173.398 70.7477 175.904 68.2607 178.997 68.2607" stroke="#002464" stroke-width="0.859132" stroke-miterlimit="10" stroke-linecap="round" stroke-linejoin="round"/>
<path d="M178.997 76.2049C180.326 76.2049 181.403 75.1359 181.403 73.8174C181.403 72.4988 180.326 71.4298 178.997 71.4298C177.669 71.4298 176.592 72.4988 176.592 73.8174C176.592 75.1359 177.669 76.2049 178.997 76.2049Z" stroke="#002464" stroke-width="0.859132" stroke-miterlimit="10" stroke-linecap="round" stroke-linejoin="round"/>
<path d="M129.109 79.3456C129.768 79.9286 130.656 80.2414 131.529 80.1987" stroke="#002464" stroke-width="0.859132" stroke-miterlimit="10" stroke-linecap="round" stroke-linejoin="round"/>
<path d="M168.188 65.0205C167.557 68.6586 165.954 72.1262 163.605 74.9969" stroke="#002464" stroke-width="0.859132" stroke-miterlimit="10" stroke-linecap="round" stroke-linejoin="round"/>
<path d="M164.064 70.2503C163.405 71.6998 162.546 73.0499 161.529 74.2721" stroke="#002464" stroke-width="0.859132" stroke-miterlimit="10" stroke-linecap="round" stroke-linejoin="round"/>
<path d="M144.888 87.2756C142.068 88.1283 139.075 89.0662 137.156 91.3116C137.758 91.9227 138.76 91.809 139.59 91.6101C141.266 91.2121 142.912 90.7005 144.502 90.061C143.17 90.8426 141.939 91.7948 140.851 92.8891" stroke="#002464" stroke-width="0.859132" stroke-miterlimit="10" stroke-linecap="round" stroke-linejoin="round"/>
<path d="M105.957 86.5792C107.317 88.583 109.408 90.0752 111.742 90.7574C112.515 90.9848 113.317 91.1127 114.019 91.4822" stroke="#002464" stroke-width="0.859132" stroke-miterlimit="10" stroke-linecap="round" stroke-linejoin="round"/>
<path d="M105.471 91.3542C107.103 93.4291 109.022 95.2908 111.127 96.8967" stroke="#002464" stroke-width="0.859132" stroke-miterlimit="10" stroke-linecap="round" stroke-linejoin="round"/>
<path d="M134.021 21.2067C134.58 23.5942 135.926 26.5359 137.744 28.1845" stroke="#002464" stroke-width="0.859132" stroke-miterlimit="10" stroke-linecap="round" stroke-linejoin="round"/>
<path d="M135.367 21.8177C136.112 23.8358 137.529 26.6212 139.061 28.156" stroke="#002464" stroke-width="0.859132" stroke-miterlimit="10" stroke-linecap="round" stroke-linejoin="round"/>
<path d="M136.357 26.9481C136.973 28.5255 137.746 29.8898 138.906 31.112C139.708 31.9505 140.567 32.7605 141.598 33.3148C142.629 33.869 143.832 34.1533 144.977 33.8974C146.109 33.6416 147.14 32.7747 147.397 31.652C144.863 31.4673 142.128 31.1689 140.238 29.4635C139.765 29.0371 139.321 28.5113 138.706 28.355C138.477 28.2981 138.219 28.2981 137.99 28.2555C137.345 28.1418 136.773 27.6444 136.558 27.0333" fill="#002464"/>
<path d="M136.357 26.9481C136.973 28.5255 137.746 29.8898 138.906 31.112C139.708 31.9505 140.567 32.7605 141.598 33.3148C142.629 33.869 143.832 34.1533 144.977 33.8974C146.109 33.6416 147.14 32.7747 147.397 31.652C144.863 31.4673 142.128 31.1689 140.238 29.4635C139.765 29.0371 139.321 28.5113 138.706 28.355C138.477 28.2981 138.219 28.2981 137.99 28.2555C137.345 28.1418 136.773 27.6444 136.558 27.0333" stroke="#002464" stroke-width="0.859132" stroke-miterlimit="10" stroke-linecap="round" stroke-linejoin="round"/>
<path d="M216.141 132.894C218.489 133.307 220.866 133.506 223.243 133.477" stroke="#002464" stroke-width="0.859132" stroke-miterlimit="10" stroke-linecap="round" stroke-linejoin="round"/>
<path d="M188.262 90.4589C191.655 90.4021 195.035 89.4215 197.927 87.6451" stroke="#002464" stroke-width="0.859132" stroke-miterlimit="10" stroke-linecap="round" stroke-linejoin="round"/>
<path d="M189.207 93.1591C192.228 93.0312 195.221 92.1927 197.87 90.7432" stroke="#002464" stroke-width="0.859132" stroke-miterlimit="10" stroke-linecap="round" stroke-linejoin="round"/>
<path d="M198.527 121.696C198.842 122.577 199.157 123.458 199.472 124.339" stroke="#002464" stroke-width="0.859132" stroke-miterlimit="10" stroke-linecap="round" stroke-linejoin="round"/>
<path d="M201.062 96.7972L209.611 122.094" stroke="#002464" stroke-width="0.859132" stroke-miterlimit="10" stroke-linecap="round" stroke-linejoin="round"/>
<path d="M137.757 134.372C131.213 137.499 126.173 143.595 124.383 150.573C122.593 157.551 124.068 165.296 128.321 171.151" stroke="#002464" stroke-width="0.859132" stroke-miterlimit="10" stroke-linecap="round" stroke-linejoin="round"/>
<path d="M128.338 138.025C124.729 142.089 122.252 147.134 121.25 152.449" stroke="#002464" stroke-width="0.859132" stroke-miterlimit="10" stroke-linecap="round" stroke-linejoin="round"/>
<path d="M121.249 154.808C121.192 155.348 121.135 155.888 121.092 156.428" stroke="#002464" stroke-width="0.859132" stroke-miterlimit="10" stroke-linecap="round" stroke-linejoin="round"/>
<path d="M105.643 151.639C109.108 157.025 109.466 164.259 106.516 169.958" stroke="#002464" stroke-width="0.859132" stroke-miterlimit="10" stroke-linecap="round" stroke-linejoin="round"/>
<path d="M106.115 171.294C105.829 171.507 105.6 171.819 105.514 172.175" stroke="#002464" stroke-width="0.859132" stroke-miterlimit="10" stroke-linecap="round" stroke-linejoin="round"/>
<path d="M30.0664 173.34C30.181 172.658 30.3957 171.99 30.7251 171.365" stroke="#002464" stroke-width="0.859132" stroke-miterlimit="10" stroke-linecap="round" stroke-linejoin="round"/>
<path d="M32.0156 167.542C36.7265 154.126 47.8237 143.07 61.312 138.323" stroke="#002464" stroke-width="0.859132" stroke-miterlimit="10" stroke-linecap="round" stroke-linejoin="round"/>
<path d="M84.7793 132.923C98.9263 131.43 113.188 131.118 127.392 131.985" stroke="#002464" stroke-width="0.859132" stroke-miterlimit="10" stroke-linecap="round" stroke-linejoin="round"/>
<path d="M122.896 183.913C146.093 183.913 169.275 183.913 192.472 183.913" stroke="#002464" stroke-width="0.859132" stroke-miterlimit="10" stroke-linecap="round" stroke-linejoin="round"/>
<path d="M204.573 176.751C203.742 177.845 202.926 178.925 202.096 180.019" stroke="#002464" stroke-width="0.859132" stroke-miterlimit="10" stroke-linecap="round" stroke-linejoin="round"/>
<path d="M254.902 168.721C239.595 169.446 227.238 181.853 212.203 184.78" stroke="#002464" stroke-width="0.859132" stroke-miterlimit="10" stroke-linecap="round" stroke-linejoin="round"/>
<path d="M243.805 168.792C246.353 167.726 249.06 167.044 251.823 166.76" stroke="#002464" stroke-width="0.859132" stroke-miterlimit="10" stroke-linecap="round" stroke-linejoin="round"/>
<path d="M191.6 76.077C193.361 75.1816 195.509 75.3664 197.37 76.0059C199.246 76.6312 200.95 77.6687 202.768 78.4645C204.573 79.2603 206.591 79.8146 208.525 79.4166" stroke="#002464" stroke-width="0.859132" stroke-miterlimit="10" stroke-linecap="round" stroke-linejoin="round"/>
<path d="M207.149 59.4354C204.142 64.6936 203.34 71.1314 204.958 76.958" stroke="#002464" stroke-width="0.859132" stroke-miterlimit="10" stroke-linecap="round" stroke-linejoin="round"/>
<path d="M192.857 67.2232C194.504 66.8822 196.036 65.9584 197.096 64.6652C198.528 62.9314 199.186 60.5154 201.091 59.2933C202.265 58.5401 203.725 58.3979 205.129 58.3127C207.319 58.1706 209.51 58.1279 211.715 58.1706" stroke="#002464" stroke-width="0.859132" stroke-miterlimit="10" stroke-linecap="round" stroke-linejoin="round"/>
<path d="M204.372 60.4728C203.169 62.4909 202.568 64.85 202.625 67.1806" stroke="#002464" stroke-width="0.859132" stroke-miterlimit="10" stroke-linecap="round" stroke-linejoin="round"/>
<path d="M215.672 68.8069C216.153 63.0734 214.772 58.2793 212.589 58.0991C210.406 57.9189 208.247 62.4208 207.766 68.1544C207.286 73.888 208.666 78.682 210.849 78.8622C213.032 79.0424 215.192 74.5405 215.672 68.8069Z" stroke="#002464" stroke-width="0.859132" stroke-miterlimit="10" stroke-linecap="round" stroke-linejoin="round"/>
<path d="M226.201 145.851C227.448 145.638 227.999 142.807 227.431 139.527C226.863 136.248 225.391 133.762 224.145 133.974C222.898 134.187 222.347 137.018 222.915 140.298C223.483 143.577 224.954 146.064 226.201 145.851Z" stroke="#002464" stroke-width="0.859132" stroke-miterlimit="10" stroke-linecap="round" stroke-linejoin="round"/>
<path d="M89.2323 188.191C91.552 194.188 91.6809 201.024 89.1035 207.462C83.648 221.076 68.112 227.727 54.3945 222.313C40.8632 216.969 34.162 201.891 39.2022 188.418" stroke="#002464" stroke-width="0.859132" stroke-miterlimit="10" stroke-linecap="round" stroke-linejoin="round"/>
<path d="M75.1298 188.475C78.4374 192.341 79.54 197.841 77.521 202.886C74.6143 210.148 66.3093 213.701 58.9924 210.816C51.6755 207.931 48.0958 199.688 51.0025 192.426C51.5752 190.976 52.3771 189.683 53.3365 188.546" stroke="#002464" stroke-width="0.859132" stroke-miterlimit="10" stroke-linecap="round" stroke-linejoin="round"/>
<path d="M64.2619 203.98C67.7731 203.98 70.6194 201.155 70.6194 197.67C70.6194 194.185 67.7731 191.36 64.2619 191.36C60.7507 191.36 57.9043 194.185 57.9043 197.67C57.9043 201.155 60.7507 203.98 64.2619 203.98Z" stroke="#002464" stroke-width="0.859132" stroke-miterlimit="10" stroke-linecap="round" stroke-linejoin="round"/>
<path d="M248.344 173.013C262.062 178.428 268.763 193.847 263.307 207.462C257.852 221.076 242.316 227.727 228.598 222.313C214.881 216.898 208.18 201.479 213.635 187.864" stroke="#002464" stroke-width="0.859132" stroke-miterlimit="10" stroke-linecap="round" stroke-linejoin="round"/>
<path d="M238.476 211.825C246.353 211.825 252.738 205.487 252.738 197.67C252.738 189.853 246.353 183.515 238.476 183.515C230.6 183.515 224.215 189.853 224.215 197.67C224.215 205.487 230.6 211.825 238.476 211.825Z" stroke="#002464" stroke-width="0.859132" stroke-miterlimit="10" stroke-linecap="round" stroke-linejoin="round"/>
<path d="M238.479 203.98C241.99 203.98 244.836 201.155 244.836 197.67C244.836 194.185 241.99 191.36 238.479 191.36C234.967 191.36 232.121 194.185 232.121 197.67C232.121 201.155 234.967 203.98 238.479 203.98Z" stroke="#002464" stroke-width="0.859132" stroke-miterlimit="10" stroke-linecap="round" stroke-linejoin="round"/>
<path d="M44.3576 194.131C44.329 201.28 47.9087 208.343 53.7221 212.563" stroke="#002464" stroke-width="0.859132" stroke-miterlimit="10" stroke-linecap="round" stroke-linejoin="round"/>
<path d="M45.6895 211.313C46.5915 213.331 48.1237 215.065 50.0281 216.202" stroke="#002464" stroke-width="0.859132" stroke-miterlimit="10" stroke-linecap="round" stroke-linejoin="round"/>
<path d="M83.792 196.206C82.8612 204.179 78.0215 211.626 71.0625 215.733" stroke="#002464" stroke-width="0.859132" stroke-miterlimit="10" stroke-linecap="round" stroke-linejoin="round"/>
<path d="M85.067 204.832C83.4347 209.48 80.0841 213.501 75.8027 215.96" stroke="#002464" stroke-width="0.859132" stroke-miterlimit="10" stroke-linecap="round" stroke-linejoin="round"/>
<path d="M213.805 195.922C213.576 201.408 215.309 206.936 218.631 211.327" stroke="#002464" stroke-width="0.859132" stroke-miterlimit="10" stroke-linecap="round" stroke-linejoin="round"/>
<path d="M262.663 199.205C262.376 204.79 259.756 210.219 255.561 213.942" stroke="#002464" stroke-width="0.859132" stroke-miterlimit="10" stroke-linecap="round" stroke-linejoin="round"/>
<path d="M259.04 205.159C258.453 206.652 257.651 208.044 256.635 209.295" stroke="#002464" stroke-width="0.859132" stroke-miterlimit="10" stroke-linecap="round" stroke-linejoin="round"/>
<path d="M230.43 188.788C232.606 186.528 235.814 185.278 238.964 185.462" stroke="#002464" stroke-width="0.859132" stroke-miterlimit="10" stroke-linecap="round" stroke-linejoin="round"/>
<path d="M251.25 176.282C253.641 177.589 255.617 179.565 257.164 181.81C258.696 184.055 259.813 186.557 260.743 189.1" stroke="#002464" stroke-width="0.859132" stroke-miterlimit="10" stroke-linecap="round" stroke-linejoin="round"/>
<path d="M235.344 214.539C239.253 215.846 243.749 215.278 247.214 213.061" stroke="#002464" stroke-width="0.859132" stroke-miterlimit="10" stroke-linecap="round" stroke-linejoin="round"/>
<path d="M243.146 216.5C243.691 216.514 244.235 216.372 244.679 216.088" stroke="#002464" stroke-width="0.859132" stroke-miterlimit="10" stroke-linecap="round" stroke-linejoin="round"/>
<path d="M21.7617 223.379C24.4823 223.421 27.2029 223.478 29.9235 223.521C31.2694 223.549 32.6297 223.563 33.9757 223.592C38.5148 223.677 43.0682 223.748 47.6073 223.834C49.3542 223.862 51.0868 223.89 52.8337 223.919C62.0407 224.075 71.262 224.203 80.4548 223.606C83.5476 223.407 86.6405 223.123 89.7191 223.393C90.7214 223.478 91.7237 223.634 92.726 223.691C94.1006 223.777 95.4896 223.72 96.8642 223.677C99.2984 223.592 101.747 223.578 104.195 223.563C105.198 223.549 106.186 223.549 107.188 223.535C112.099 223.492 116.997 223.464 121.908 223.563C125.445 223.634 128.996 223.791 132.532 223.734C140.265 223.62 148.054 222.568 155.7 223.748" stroke="#002464" stroke-width="0.859132" stroke-miterlimit="10" stroke-linecap="round" stroke-linejoin="round"/>
<path d="M161.658 224.331C163.405 223.421 165.667 223.592 167.271 224.743C167.515 224.913 167.758 225.126 168.059 225.126C168.302 225.126 168.517 224.998 168.732 224.871C170.751 223.705 173.271 223.421 175.505 224.089C176.106 224.259 176.679 224.501 177.309 224.558C177.996 224.615 178.669 224.43 179.342 224.316C181.59 223.918 183.953 224.217 186.029 225.155" stroke="#002464" stroke-width="0.859132" stroke-miterlimit="10" stroke-linecap="round" stroke-linejoin="round"/>
<path d="M245.166 224.018C247.615 223.847 250.034 224.501 252.483 224.757C254.616 224.985 256.779 224.914 258.926 224.828C266.229 224.572 273.546 224.331 280.849 224.075" stroke="#002464" stroke-width="0.859132" stroke-miterlimit="10" stroke-linecap="round" stroke-linejoin="round"/>
<path d="M61.8832 230.527C61.8403 230.03 62.3844 229.703 62.8712 229.56C64.6325 229.02 66.6228 229.248 68.2265 230.172C70.2598 229.162 72.694 228.992 74.8418 229.703" stroke="#002464" stroke-width="0.859132" stroke-miterlimit="10" stroke-linecap="round" stroke-linejoin="round"/>
<path d="M34.8789 230.243C36.9122 229.319 39.4466 229.603 41.2078 230.968" stroke="#002464" stroke-width="0.859132" stroke-miterlimit="10" stroke-linecap="round" stroke-linejoin="round"/>
<path d="M14.1602 223.748C15.1052 223.08 16.3939 222.923 17.4678 223.379" stroke="#002464" stroke-width="0.859132" stroke-miterlimit="10" stroke-linecap="round" stroke-linejoin="round"/>
<path d="M98.9414 230.442C100.116 229.731 101.662 229.674 102.893 230.314" stroke="#002464" stroke-width="0.859132" stroke-miterlimit="10" stroke-linecap="round" stroke-linejoin="round"/>
<path d="M77.3633 238.898C78.4086 237.902 80.2843 237.973 81.258 239.04C83.2483 238.13 85.5823 238.016 87.6585 238.699" stroke="#002464" stroke-width="0.859132" stroke-miterlimit="10" stroke-linecap="round" stroke-linejoin="round"/>
<path d="M118.801 237.419C119.531 237.419 120.247 237.419 120.977 237.419" stroke="#002464" stroke-width="0.859132" stroke-miterlimit="10" stroke-linecap="round" stroke-linejoin="round"/>
<path d="M150.217 232.9C151.677 231.379 154.341 231.18 156.002 232.502C156.259 232.701 156.517 232.943 156.846 232.943C157.061 232.943 157.262 232.829 157.448 232.73C159.08 231.905 161.128 231.905 162.76 232.73C163.132 232.914 163.49 233.142 163.891 233.198C164.378 233.255 164.851 233.056 165.338 232.943C166.34 232.715 167.442 232.9 168.302 233.454" stroke="#002464" stroke-width="0.859132" stroke-miterlimit="10" stroke-linecap="round" stroke-linejoin="round"/>
<path d="M179.828 231.593C180.186 231.593 180.558 231.593 180.916 231.593" stroke="#002464" stroke-width="0.859132" stroke-miterlimit="10" stroke-linecap="round" stroke-linejoin="round"/>
<path d="M197.699 234.179C198.129 234.179 198.572 234.179 199.002 234.179" stroke="#002464" stroke-width="0.859132" stroke-miterlimit="10" stroke-linecap="round" stroke-linejoin="round"/>
<path d="M212.289 231.564C213.721 230.697 215.654 230.711 217.086 231.607" stroke="#002464" stroke-width="0.859132" stroke-miterlimit="10" stroke-linecap="round" stroke-linejoin="round"/>
<path d="M252.797 233.895C255.589 232.488 259.154 232.744 261.732 234.52C262.262 233.81 263.293 233.625 264.18 233.753C265.068 233.881 265.913 234.236 266.815 234.35C268.762 234.605 270.91 233.724 272.629 234.662" stroke="#002464" stroke-width="0.859132" stroke-miterlimit="10" stroke-linecap="round" stroke-linejoin="round"/>
<path d="M200.031 223.862C203.482 221.587 210.584 225.014 220.507 224.004C220.837 223.976 228.225 222.995 231.16 224.075" stroke="#002464" stroke-width="0.859132" stroke-miterlimit="10" stroke-linecap="round" stroke-linejoin="round"/>
<path d="M107.145 196.831C106.916 196.988 107.045 197.428 107.331 197.428C107.602 197.428 107.745 196.988 107.517 196.831" stroke="#002464" stroke-width="0.859132" stroke-miterlimit="10" stroke-linecap="round" stroke-linejoin="round"/>
<path d="M12.296 134.33C12.01 134.344 11.8528 134.741 12.0243 134.94C12.1244 135.04 12.2531 134.798 12.1244 134.756" stroke="#002464" stroke-width="0.859132" stroke-miterlimit="10" stroke-linecap="round" stroke-linejoin="round"/>
<path d="M59.5069 128.986C58.4473 130.038 57.3877 131.089 56.3281 132.141" stroke="#002464" stroke-width="0.859132" stroke-miterlimit="10" stroke-linecap="round" stroke-linejoin="round"/>
<path d="M62.1553 129.114C60.8952 130.066 59.7211 131.132 58.6758 132.312" stroke="#002464" stroke-width="0.859132" stroke-miterlimit="10" stroke-linecap="round" stroke-linejoin="round"/>
<path d="M50.2852 138.28C51.0727 136.618 52.2325 135.125 53.6358 133.946C54.1942 133.477 54.8099 133.036 55.4972 132.823C56.0986 132.638 56.7573 132.61 57.3873 132.582C59.707 132.496 62.0266 132.425 64.3463 132.34" stroke="#002464" stroke-width="0.859132" stroke-miterlimit="10" stroke-linecap="round" stroke-linejoin="round"/>
<path d="M73.2949 128.631C73.4238 129.086 73.5956 129.896 73.7388 130.35" stroke="#002464" stroke-width="0.859132" stroke-miterlimit="10" stroke-linecap="round" stroke-linejoin="round"/>
<path d="M76.459 128.503C76.5879 129.057 76.6308 129.427 76.7597 129.981" stroke="#002464" stroke-width="0.859132" stroke-miterlimit="10" stroke-linecap="round" stroke-linejoin="round"/>
<path d="M23.123 147.205C25.9582 146.48 29.3947 146.352 31.7287 148.399" stroke="#002464" stroke-width="0.859132" stroke-miterlimit="10" stroke-linecap="round" stroke-linejoin="round"/>
<path d="M1 146.921C6.79914 150.332 13.9443 150.474 20.0155 148.157" stroke="#002464" stroke-width="0.859132" stroke-miterlimit="10" stroke-linecap="round" stroke-linejoin="round"/>
<path d="M14.5449 153.529C16.7071 154.538 19.2415 153.941 21.5469 153.316C23.8522 152.691 26.3866 152.08 28.5488 153.103" stroke="#002464" stroke-width="0.859132" stroke-miterlimit="10" stroke-linecap="round" stroke-linejoin="round"/>
<path d="M66.6523 35.1339C69.2441 34.1107 71.7355 32.8316 74.4275 32.0784C77.2053 31.311 80.0262 31.3394 82.8327 31.9363C88.0877 33.0448 92.9847 35.6313 98.4545 35.7308C101.118 35.7876 103.853 35.2049 105.986 33.5422" stroke="#002464" stroke-width="0.859132" stroke-miterlimit="10" stroke-linecap="round" stroke-linejoin="round"/>
<path d="M54.1934 35.0344C56.0405 36.4129 58.3888 36.8108 60.6512 36.6403" stroke="#002464" stroke-width="0.859132" stroke-miterlimit="10" stroke-linecap="round" stroke-linejoin="round"/>
<path d="M87.8887 40.6053C90.2226 41.43 92.7284 42.0414 95.1913 41.43" stroke="#002464" stroke-width="0.859132" stroke-miterlimit="10" stroke-linecap="round" stroke-linejoin="round"/>
<path d="M54.7246 40.52C58.0609 42.1685 61.9843 41.6285 65.4494 40.6621C69.2439 39.6105 72.9239 37.9193 76.9045 37.7345C78.9664 37.6351 80.9425 38.0472 82.8898 38.7151" stroke="#002464" stroke-width="0.859132" stroke-miterlimit="10" stroke-linecap="round" stroke-linejoin="round"/>
<path d="M43.0684 65.4326C46.0896 63.6846 49.698 62.974 53.1632 63.4288C55.5974 63.7556 57.9313 64.6225 60.3655 64.921C63.2866 65.2763 66.2936 64.7647 68.9282 63.4714" stroke="#002464" stroke-width="0.859132" stroke-miterlimit="10" stroke-linecap="round" stroke-linejoin="round"/>
<path d="M64.4043 62.3349C65.2921 62.1216 66.1798 61.9225 67.0676 61.7092" stroke="#002464" stroke-width="0.859132" stroke-miterlimit="10" stroke-linecap="round" stroke-linejoin="round"/>
<path d="M100.244 57.9432C99.9864 58.071 99.9864 58.5111 100.244 58.6389C100.372 58.5253 100.501 58.4117 100.63 58.3123" stroke="#002464" stroke-width="0.859132" stroke-miterlimit="10" stroke-linecap="round" stroke-linejoin="round"/>
<path d="M124.184 27.4882C124.027 27.3317 124.027 27.3317 124.184 27.4882" stroke="#002464" stroke-width="0.859132" stroke-miterlimit="10" stroke-linecap="round" stroke-linejoin="round"/>
<path d="M162.902 49.9279C162.902 50.0557 162.902 50.1835 162.902 50.3113" stroke="#002464" stroke-width="0.859132" stroke-miterlimit="10" stroke-linecap="round" stroke-linejoin="round"/>
<path d="M231.12 106.418C230.962 106.262 230.648 106.361 230.619 106.574C230.676 106.731 230.991 106.56 230.876 106.432" stroke="#002464" stroke-width="0.859132" stroke-miterlimit="10" stroke-linecap="round" stroke-linejoin="round"/>
<path d="M253.772 139.502C253.672 139.375 253.915 139.176 254.015 139.304C254.129 139.431 253.872 139.63 253.772 139.502Z" stroke="#002464" stroke-width="0.859132" stroke-miterlimit="10" stroke-linecap="round" stroke-linejoin="round"/>
<path d="M23.8105 108.138C25.0563 109.957 26.3164 111.79 27.5621 113.609" stroke="#002464" stroke-width="0.859132" stroke-miterlimit="10" stroke-linecap="round" stroke-linejoin="round"/>
<path d="M23.4805 103.576C24.6689 105.296 25.8574 107.015 27.0459 108.735" stroke="#002464" stroke-width="0.859132" stroke-miterlimit="10" stroke-linecap="round" stroke-linejoin="round"/>
<path d="M26.7598 86.4647C26.8454 86.3797 26.9452 86.2805 27.0308 86.1955" stroke="#002464" stroke-width="0.859132" stroke-miterlimit="10" stroke-linecap="round" stroke-linejoin="round"/>
<path d="M103.48 118.484C101.361 118.924 99.4135 120.118 98.0675 121.809C96.7215 123.5 96.0056 125.661 96.0772 127.807" stroke="#002464" stroke-width="0.859132" stroke-miterlimit="10" stroke-linecap="round" stroke-linejoin="round"/>
<path d="M105.141 120.687C111.699 123.813 119.288 124.765 126.433 123.387" stroke="#002464" stroke-width="0.859132" stroke-miterlimit="10" stroke-linecap="round" stroke-linejoin="round"/>
<path d="M128.854 123.53C129.097 123.487 129.325 123.43 129.568 123.387" stroke="#002464" stroke-width="0.859132" stroke-miterlimit="10" stroke-linecap="round" stroke-linejoin="round"/>
<path d="M111.611 124.524C113.33 124.979 115.105 125.277 116.881 125.42" stroke="#002464" stroke-width="0.859132" stroke-miterlimit="10" stroke-linecap="round" stroke-linejoin="round"/>
<path d="M138.59 127.65C138.59 127.65 68.6571 122.861 45.661 141.99C22.8367 160.976 23.7531 188.106 23.7531 188.106H25.3139H29.6238H32.0151H82.6609H96.0204" stroke="#002464" stroke-width="0.859132" stroke-miterlimit="10" stroke-linecap="round" stroke-linejoin="round"/>
<path d="M73.5527 139.915C73.5527 139.915 112.343 135.097 112.557 160.422C112.715 179.081 99.8135 188.191 99.8135 188.191" stroke="#002464" stroke-width="0.859132" stroke-miterlimit="10" stroke-linecap="round" stroke-linejoin="round"/>
<path d="M37.1836 174.463L38.9448 171.45C40.6488 168.536 43.7703 166.746 47.1638 166.746H91.1084" stroke="#002464" stroke-width="0.859132" stroke-miterlimit="10" stroke-linecap="round" stroke-linejoin="round"/>
<path d="M30.5117 186.955L31.7288 185.135C33.49 182.506 36.454 180.943 39.6328 180.943H88.0163" stroke="#002464" stroke-width="0.859132" stroke-miterlimit="10" stroke-linecap="round" stroke-linejoin="round"/>
<path d="M102.549 188.191H202.537" stroke="#002464" stroke-width="0.859132" stroke-miterlimit="10" stroke-linecap="round" stroke-linejoin="round"/>
<path d="M219.793 149.166C219.793 149.166 249.476 134.998 264.081 167.4C265.04 169.517 263.308 171.862 260.974 171.62C256.392 171.137 249.719 171.237 242.946 174.477C230.976 180.19 216.986 188.205 205.188 188.205" stroke="#002464" stroke-width="0.859132" stroke-miterlimit="10" stroke-linecap="round" stroke-linejoin="round"/>
<path d="M217.616 136.674C217.616 136.674 221.969 161.971 203.168 182.634" stroke="#002464" stroke-width="0.859132" stroke-miterlimit="10" stroke-linecap="round" stroke-linejoin="round"/>
<path d="M177.982 174.548C177.982 174.548 191.786 175.543 198.859 158.645C202.167 150.73 202.597 141.919 200.234 133.69C194.478 113.68 184.669 81.9179 184.669 81.9179" stroke="#002464" stroke-width="0.859132" stroke-miterlimit="10" stroke-linecap="round" stroke-linejoin="round"/>
<path d="M196.797 78.0666L215.283 132.042" stroke="#002464" stroke-width="0.859132" stroke-miterlimit="10" stroke-linecap="round" stroke-linejoin="round"/>
<path d="M139.835 12.2819C139.835 12.2819 139.363 22.4573 134.552 21.3772C129.74 20.2972 128.939 5.60255 138.432 1.936C149.615 -2.38427 154.756 9.65281 154.756 9.65281" stroke="#46C578" stroke-width="0.859132" stroke-miterlimit="10" stroke-linecap="round" stroke-linejoin="round"/>
<path d="M140.896 10.7613C145.092 11.8704 149.545 11.9841 153.798 11.1025" stroke="#46C578" stroke-width="0.859132" stroke-miterlimit="10" stroke-linecap="round" stroke-linejoin="round"/>
<path d="M139.707 11.415C144.303 13.3336 149.358 14.172 154.327 13.8168C154.885 13.7741 155.458 13.7173 155.945 13.433C156.431 13.1488 156.775 12.5804 156.632 12.0403C156.417 11.2871 155.472 11.0739 154.856 10.5908" stroke="#46C578" stroke-width="0.859132" stroke-miterlimit="10" stroke-linecap="round" stroke-linejoin="round"/>
<path d="M133.249 13.8026C132.777 15.11 132.848 16.6022 133.464 17.867" stroke="#46C578" stroke-width="0.859132" stroke-miterlimit="10" stroke-linecap="round" stroke-linejoin="round"/>
<path d="M135.598 6.14253C136.543 5.06247 137.745 4.20978 139.077 3.68396" stroke="#46C578" stroke-width="0.859132" stroke-miterlimit="10" stroke-linecap="round" stroke-linejoin="round"/>
<path d="M140.838 3.14384C140.995 3.07285 141.152 3.01606 141.31 2.94507" stroke="#46C578" stroke-width="0.859132" stroke-miterlimit="10" stroke-linecap="round" stroke-linejoin="round"/>
<path d="M138.203 5.8015C138.489 5.64517 138.776 5.48885 139.076 5.33252" stroke="#46C578" stroke-width="0.859132" stroke-miterlimit="10" stroke-linecap="round" stroke-linejoin="round"/>
<path d="M151.521 7.16577C151.865 7.40737 152.123 7.79107 152.208 8.2032" stroke="#46C578" stroke-width="0.859132" stroke-miterlimit="10" stroke-linecap="round" stroke-linejoin="round"/>
<path d="M21.1172 75.068C21.1172 92.7043 21.1172 110.355 21.1172 127.991" stroke="#46C578" stroke-width="0.859132" stroke-miterlimit="10" stroke-linecap="round" stroke-linejoin="round"/>
<path d="M21.4883 74.869C48.3648 74.869 75.2556 74.869 102.132 74.869" stroke="#46C578" stroke-width="0.859132" stroke-miterlimit="10" stroke-linecap="round" stroke-linejoin="round"/>
<path d="M55.2969 75.6506C55.3971 80.2836 55.6119 84.9165 55.9269 89.5494C56.4567 88.583 56.9722 87.6309 57.502 86.6645C57.6738 86.3661 57.8743 86.025 58.2179 85.9539C58.447 85.9113 58.6904 85.9966 58.8766 86.1387C59.3348 86.494 59.4637 87.1051 59.6928 87.6451C59.9219 88.1709 60.4087 88.711 60.9815 88.5973C61.2249 88.5404 61.4253 88.3841 61.6544 88.2562C62.4849 87.7588 63.5159 87.8156 64.4753 87.8725C65.6494 87.9435 66.8236 88.0288 67.9977 88.0999C68.3557 88.1283 68.7852 88.1141 68.9714 87.8156C69.0716 87.6593 69.0716 87.4603 69.0716 87.2614C69.043 83.3248 69 79.3883 68.9714 75.4517" stroke="#46C578" stroke-width="0.859132" stroke-miterlimit="10" stroke-linecap="round" stroke-linejoin="round"/>
<path d="M66.8242 78.7914C66.8958 80.7526 66.9817 82.7137 67.0533 84.6891" stroke="#46C578" stroke-width="0.859132" stroke-miterlimit="10" stroke-linecap="round" stroke-linejoin="round"/>
<path d="M56.916 77.6118C56.916 78.3935 56.916 79.1893 56.916 79.9709" stroke="#46C578" stroke-width="0.859132" stroke-miterlimit="10" stroke-linecap="round" stroke-linejoin="round"/>
<path d="M22.4355 128.361C43.3697 128.361 64.3039 128.361 85.2381 128.361" stroke="#46C578" stroke-width="0.859132" stroke-miterlimit="10" stroke-linecap="round" stroke-linejoin="round"/>
<path d="M51.6602 126.101C60.5092 126.101 69.344 126.101 78.193 126.101" stroke="#46C578" stroke-width="0.859132" stroke-miterlimit="10" stroke-linecap="round" stroke-linejoin="round"/>
<path d="M68.5137 107.314C70.2033 108.365 71.7641 109.602 73.6255 110.838C81.2431 115.77 88.0732 120.559 95.2327 125.49" stroke="#46C578" stroke-width="0.859132" stroke-miterlimit="10" stroke-linecap="round" stroke-linejoin="round"/>
<path d="M21.1035 75.0538C36.1813 85.0728 50.944 95.5608 65.9502 105.566" stroke="#46C578" stroke-width="0.859132" stroke-miterlimit="10" stroke-linecap="round" stroke-linejoin="round"/>
<path d="M70.7617 106.035C79.3817 111.918 88.0875 117.773 96.6359 123.643" stroke="#46C578" stroke-width="0.859132" stroke-miterlimit="10" stroke-linecap="round" stroke-linejoin="round"/>
<path d="M27.3887 76.5176C30.4243 78.6067 33.374 80.4542 36.4812 82.6143C38.0419 83.8507 39.5884 84.7745 41.1491 86.0109C41.7648 86.3235 42.3949 86.7783 43.0106 87.0909C45.9602 88.9384 48.2942 90.6438 51.2439 92.6476C57.0001 96.8116 62.4269 100.364 68.0829 104.216" stroke="#46C578" stroke-width="0.859132" stroke-miterlimit="10" stroke-linecap="round" stroke-linejoin="round"/>
<path d="M55.2969 75.6506C55.3971 80.2836 55.6119 84.9165 55.9269 89.5494C56.4567 88.583 56.9722 87.6309 57.502 86.6645C57.6738 86.3661 57.8743 86.025 58.2179 85.9539C58.447 85.9113 58.6904 85.9966 58.8766 86.1387C59.3348 86.494 59.4637 87.1051 59.6928 87.6451C59.9219 88.1709 60.4087 88.711 60.9815 88.5973C61.2249 88.5404 61.4253 88.3841 61.6544 88.2562C62.4849 87.7588 63.5159 87.8156 64.4753 87.8725C65.6494 87.9435 66.8236 88.0288 67.9977 88.0999C68.3557 88.1283 68.7852 88.1141 68.9714 87.8156C69.0716 87.6593 69.0716 87.4603 69.0716 87.2614C69.043 83.3248 69 79.3883 68.9714 75.4517" stroke="#46C578" stroke-width="0.859132" stroke-miterlimit="10" stroke-linecap="round" stroke-linejoin="round"/>
<path d="M66.8242 78.7914C66.8958 80.7526 66.9817 82.7137 67.0533 84.6891" stroke="#46C578" stroke-width="0.859132" stroke-miterlimit="10" stroke-linecap="round" stroke-linejoin="round"/>
<path d="M56.916 77.6118C56.916 78.3935 56.916 79.1893 56.916 79.9709" stroke="#46C578" stroke-width="0.859132" stroke-miterlimit="10" stroke-linecap="round" stroke-linejoin="round"/>
<path d="M99.5014 87.6309L35.4531 127.949" stroke="#46C578" stroke-width="0.859132" stroke-miterlimit="10" stroke-linecap="round" stroke-linejoin="round"/>
<path d="M92.9857 89.0094L30.9707 128.034" stroke="#46C578" stroke-width="0.859132" stroke-miterlimit="10" stroke-linecap="round" stroke-linejoin="round"/>
</svg>
