<svg width="46" height="46" viewBox="0 0 46 46" fill="none" xmlns="http://www.w3.org/2000/svg">
<path d="M39.2635 6.73648C34.9193 2.39245 29.1435 0 23 0C16.8565 0 11.0806 2.39245 6.73648 6.73648C2.39245 11.0807 0 16.8565 0 23C0 29.1435 2.39245 34.9193 6.73648 39.2635C11.0806 43.6076 16.8565 46 23 46C29.1435 46 34.9193 43.6076 39.2635 39.2635C43.6076 34.9193 46 29.1435 46 23C46 16.8565 43.6076 11.0807 39.2635 6.73648ZM37.3576 37.3576C33.5225 41.1926 28.4236 43.3047 23 43.3047C17.5764 43.3047 12.4775 41.1926 8.64243 37.3576C4.80736 33.5225 2.69531 28.4236 2.69531 23C2.69531 17.5764 4.80736 12.4775 8.64243 8.64243C12.4775 4.80736 17.5764 2.69531 23 2.69531C28.4236 2.69531 33.5225 4.80736 37.3576 8.64243C41.1926 12.4775 43.3047 17.5764 43.3047 23C43.3047 28.4236 41.1926 33.5225 37.3576 37.3576Z" fill="black"/>
<path d="M18.7966 13.4294C18.4757 13.4294 18.2618 13.5364 18.0748 13.7235L15.2944 16.3969C14.9469 16.6377 14.7329 17.0921 14.7329 17.4931C14.7329 18.0544 15.1339 18.6426 15.6953 18.6426C15.8558 18.6426 16.0964 18.5624 16.2835 18.3752L17.2192 17.1989V32.0629C17.2192 32.678 17.9142 32.9988 18.636 32.9988C19.3311 32.9988 20.0529 32.678 20.0529 32.0629V14.3653C20.053 13.777 19.3847 13.4294 18.7966 13.4294Z" fill="black"/>
<path d="M33.5804 22.3319C35.0775 21.7705 36.0934 20.4339 36.0934 18.1615C36.0934 14.7395 33.7943 13.4563 30.6665 13.4563C27.5386 13.4563 25.2395 14.7395 25.2395 18.1615C25.2395 20.4339 26.2554 21.7705 27.7257 22.3319C25.8811 23.0003 24.6513 24.5776 24.6513 27.3313V27.652C24.6513 31.6355 27.298 33.1593 30.6665 33.1593C34.0349 33.1593 36.6548 31.6355 36.6548 27.652V27.3313C36.6547 24.5776 35.4251 23.0002 33.5804 22.3319ZM30.6664 15.8089C32.3506 15.8089 33.3398 16.5841 33.3398 18.4823C33.3398 20.4071 32.3506 21.1823 30.6664 21.1823C28.9821 21.1823 27.9929 20.4071 27.9929 18.4823C27.9929 16.5841 28.9821 15.8089 30.6664 15.8089ZM33.8209 27.358C33.8209 29.6838 32.6713 30.8067 30.6664 30.8067C28.7147 30.8067 27.485 29.7374 27.485 27.358V26.8767C27.485 24.5776 28.688 23.535 30.6664 23.535C32.6447 23.535 33.8209 24.5776 33.8209 26.8767V27.358Z" fill="black"/>
<path d="M12.279 21.6523H10.9314V20.3047C10.9314 19.5604 10.328 18.957 9.58372 18.957C8.83945 18.957 8.23606 19.5604 8.23606 20.3047V21.6523H6.8884C6.14413 21.6523 5.54074 22.2557 5.54074 23C5.54074 23.7443 6.14413 24.3477 6.8884 24.3477H8.23606V25.6953C8.23606 26.4396 8.83945 27.043 9.58372 27.043C10.328 27.043 10.9314 26.4396 10.9314 25.6953V24.3477H12.279C13.0233 24.3477 13.6267 23.7443 13.6267 23C13.6267 22.2557 13.0233 21.6523 12.279 21.6523Z" fill="black"/>
</svg>
