<svg width="50" height="32" viewBox="0 0 50 32" fill="none" xmlns="http://www.w3.org/2000/svg">
<g id="American Express">
<g id="American Express_2">
<rect id="Rectangle" width="50" height="32" rx="3" fill="#306FC8"/>
<g id="Mask Group">
<mask id="mask0" mask-type="alpha" maskUnits="userSpaceOnUse" x="0" y="0" width="50" height="32">
<rect id="Rectangle_2" width="50" height="32" rx="3" fill="url(#paint0_linear)"/>
</mask>
<g mask="url(#mask0)">
<g id="Group">
<path id="Vector" d="M21.6395 23.4348V18.7764L19.4858 21.0706L21.6395 23.4348Z" fill="white"/>
<path id="Vector_2" d="M12.6135 19.3608V20.4095L15.693 20.4031V21.6042H12.6135V22.7545H16.0658L17.6731 21.0513L16.1301 19.3608H12.6135Z" fill="white"/>
<path id="Vector_3" d="M25.6964 10.5336C25.8764 10.4319 25.9857 10.2286 25.9857 9.98073C25.9857 9.73287 25.87 9.55492 25.6964 9.45959C25.5292 9.36427 25.2785 9.35791 25.0278 9.35791H23.292V10.6544H25.0085C25.2785 10.6544 25.5035 10.6417 25.6964 10.5336Z" fill="white"/>
<path id="Vector_4" d="M2.58447 11.4486H4.50671L3.54238 9.13525L2.58447 11.4486Z" fill="white"/>
<path id="Vector_5" d="M24.8798 19.3608H23.0476V20.8225H24.867C25.4006 20.8225 25.7349 20.5683 25.7349 20.0663C25.7285 19.5642 25.3813 19.3608 24.8798 19.3608Z" fill="white"/>
<path id="Vector_6" d="M2.94443 13.8065H4.15306L4.69952 15.1093H9.42475V14.1179L9.84905 15.1093H12.292L12.7163 14.1052V15.1093H24.4555V12.9867H24.6869C24.8541 12.9867 24.8991 13.0057 24.8991 13.2663V15.1093H30.9679V14.6072C31.4501 14.8678 32.2087 15.1093 33.2245 15.1093H35.7768L36.3296 13.8065H37.5383L38.0847 15.1093H42.99V13.8764L43.7421 15.1093H47.6831V7H43.7871V7.95329L43.2278 7H39.2226V7.95329L38.734 7H33.3209C32.408 7 31.6044 7.12075 30.9679 7.46393V7H27.2392V7.46393C26.802 7.11439 26.2556 7 25.6384 7H11.9899L11.0641 9.09088L10.1384 7H5.84386V7.95329L5.35526 7H1.6908L0 10.8449V15.1093H2.39797L2.94443 13.8065ZM31.2315 8.82396C31.6816 8.36003 32.4016 8.14395 33.3723 8.14395H34.716V9.38958H33.3981C32.8773 9.38958 32.588 9.46584 32.3116 9.73912C32.0673 9.98062 31.9001 10.4446 31.9001 11.0547C31.9001 11.6775 32.0223 12.116 32.2987 12.421C32.5045 12.6498 32.8966 12.7197 33.2759 12.7197H33.906L35.886 8.14395H37.9819L40.367 13.6476V8.14395H42.5142L44.9829 12.1922V8.14395H46.4294V13.9654H44.4236L41.7685 9.60566V13.9654H38.9076L38.3676 12.6625H35.4425L34.9024 13.9654H33.2695C32.5816 13.9654 31.7137 13.8065 31.2251 13.3171C30.7301 12.8214 30.4794 12.1541 30.4794 11.0991C30.4794 10.2348 30.6336 9.44677 31.2315 8.82396ZM28.3514 8.14395H29.7915V13.9654H28.3514V8.14395ZM21.8904 8.14395H25.1305C25.8441 8.14395 26.3713 8.16937 26.8213 8.42358C27.2713 8.68414 27.5478 9.06546 27.5478 9.7137C27.5478 10.6352 26.9177 11.1119 26.5449 11.258C26.8535 11.3724 27.117 11.5821 27.2392 11.7537C27.4385 12.0334 27.4706 12.3003 27.4706 12.8087V13.9654H26.0563V13.2282C26.0563 12.885 26.0884 12.3765 25.8248 12.1033C25.6255 11.8935 25.317 11.8491 24.8026 11.8491H23.2919V13.9654H21.8839V8.14395H21.8904ZM16.2201 8.14395H20.9132V9.3578H17.6216V10.4064H20.8296V11.6012H17.6216V12.7515L20.9132 12.7452V13.959H16.2201V8.14395ZM1.54293 13.9654H0.0128578L2.52655 8.14395H4.62237L7.00749 13.6476V8.14395H9.30903L11.1413 12.0906L12.8321 8.14395H15.1722V13.9654H13.7321V9.40864L11.6941 13.9654H10.4598L8.41541 9.40229V13.9654H5.54813L5.0081 12.6625H2.08296L1.54293 13.9654Z" fill="white"/>
<path id="Vector_7" d="M36.9018 9.13525L35.9438 11.4486H37.8597L36.9018 9.13525Z" fill="white"/>
<path id="Vector_8" d="M46.886 19.4943C46.7381 19.5896 46.6738 19.7294 46.6738 19.9137C46.6738 20.1298 46.8024 20.2823 46.9824 20.3459C47.1238 20.3967 47.2846 20.4094 47.5224 20.4094L48.2746 20.4285C49.0525 20.4476 49.5668 20.5747 49.8818 20.8988C49.9268 20.9433 49.9654 20.9877 49.9976 21.0322V19.3926H47.4453C47.1946 19.3926 47.021 19.4053 46.886 19.4943Z" fill="white"/>
<path id="Vector_9" d="M48.101 23.9619H45.388V22.7163H48.0881C48.3517 22.7163 48.5382 22.6782 48.6539 22.5765C48.7503 22.4875 48.821 22.3604 48.821 22.1952C48.821 22.0236 48.7503 21.8901 48.6475 21.8075C48.5446 21.7185 48.3967 21.6804 48.1589 21.6804C46.8474 21.6423 45.1951 21.7249 45.1951 19.8755C45.1951 19.043 45.7287 18.1469 47.2074 18.1469H50.004V17.0029H47.4003C46.6224 17.0029 46.0373 17.1809 45.6387 17.4669V17.0029H41.8007C41.19 17.0029 40.4571 17.1491 40.1163 17.4669V17.0029H33.2438V17.4669C32.6974 17.0855 31.7781 17.0029 31.3409 17.0029H26.8085V17.4669C26.3778 17.0538 25.4263 17.0029 24.8413 17.0029H19.7625L18.5988 18.2486L17.5188 17.0029H9.94556V25.1122H17.3838L18.5731 23.8475L19.7046 25.1059L24.282 25.1122V23.1993H24.7384C25.3427 23.1993 26.0628 23.1866 26.6864 22.9197V25.1122H30.4794V22.9896H30.6659C30.8973 22.9896 30.9166 23.0086 30.9166 23.2247V25.1122H42.3922C43.1122 25.1122 43.8901 24.9279 44.3144 24.5975V25.1122H47.9531C48.7053 25.1122 49.4511 25.0042 50.0168 24.7373V23.2311C49.6504 23.7268 49.0075 23.9619 48.101 23.9619ZM24.7899 22.0172H23.0412V23.9619H20.3025L18.5796 22.049L16.7795 23.9683H11.2056V18.1469H16.863L18.586 20.0598L20.3796 18.1469H24.8799C25.9856 18.1469 27.2393 18.4646 27.2393 20.0725C27.2328 21.6804 26.0178 22.0172 24.7899 22.0172ZM33.2503 21.7567C33.4496 22.0363 33.4817 22.3032 33.4881 22.8116V23.9619H32.0738V23.2247C32.0738 22.8815 32.1059 22.3731 31.8423 22.0998C31.6366 21.8901 31.3345 21.8456 30.8202 21.8456H29.3094V23.9619H27.9014V18.1405H31.1416C31.8552 18.1405 32.3759 18.1659 32.8324 18.4265C33.2824 18.6871 33.5589 19.0684 33.5589 19.7166C33.5589 20.6381 32.9288 21.1148 32.5624 21.261C32.871 21.3753 33.1346 21.5851 33.2503 21.7567ZM39.0298 19.3607H35.7447V20.4093H38.9591V21.6105H35.7447V22.7608H39.0363V23.9683H34.3432V18.1469H39.0363V19.3607H39.0298ZM42.6043 23.9619H39.8656V22.7163H42.5914C42.855 22.7163 43.0415 22.6782 43.1572 22.5765C43.2536 22.4875 43.3243 22.3604 43.3243 22.1952C43.3243 22.0236 43.2536 21.8901 43.1508 21.8075C43.0479 21.7185 42.9 21.6804 42.6622 21.6804C41.3507 21.6423 39.6984 21.7249 39.6984 19.8755C39.6984 19.0366 40.232 18.1469 41.7107 18.1469H44.5265V19.3925H41.9486C41.6914 19.3925 41.5243 19.3989 41.3828 19.4878C41.235 19.5832 41.1771 19.723 41.1771 19.9073C41.1771 20.1234 41.3057 20.2759 41.4857 20.3394C41.6335 20.3903 41.7878 20.403 42.0257 20.403L42.7779 20.4221C43.5558 20.4411 44.0701 20.5682 44.3851 20.8923C44.6616 21.1847 44.8094 21.5215 44.8094 22.1253C44.8158 23.3709 44.0315 23.9619 42.6043 23.9619Z" fill="white"/>
<path id="Vector_10" d="M31.7137 19.4562C31.5466 19.3672 31.2894 19.3608 31.0451 19.3608H29.3093V20.6573H31.0258C31.2959 20.6573 31.5273 20.651 31.7137 20.5429C31.8937 20.4412 32.003 20.2379 32.003 19.99C31.9966 19.7358 31.8873 19.5579 31.7137 19.4562Z" fill="white"/>
</g>
</g>
</g>
</g>
</g>
<defs>
<linearGradient id="paint0_linear" x1="25" y1="0" x2="25" y2="32" gradientUnits="userSpaceOnUse">
<stop stop-color="#1B8ABA"/>
<stop offset="1" stop-color="#005D9C"/>
</linearGradient>
</defs>
</svg>
