<svg width="299" height="214" viewBox="0 0 299 214" fill="none" xmlns="http://www.w3.org/2000/svg">
<path d="M121.372 37.2432C122.258 37.2582 122.964 36.9723 123.805 36.7616C124.061 36.7014 123.295 44.7232 125.307 44.2266C126.118 44.0309 126.944 33.4354 127.17 31.5842C129.362 29.5976 133.928 30.1394 136.556 29.1912C137.893 28.7096 139.41 27.7464 139.32 26.1059C139.29 25.549 138.719 24.9018 139.2 24.646C146.964 20.6727 156.516 19.589 157.267 16.6091C157.583 15.3147 157.177 13.7946 156.036 13.0421C154.714 12.1692 152.942 12.5605 151.575 13.0722C148.902 14.0655 146.679 16.1124 143.916 16.88C142.249 17.3465 140.476 17.2261 138.794 17.6776C137.157 18.1292 135.625 18.9268 134.153 19.7697C129.002 22.7496 123.19 26.2263 120.997 32.111C120.606 33.1645 119.18 37.183 121.372 37.2432Z" fill="#EBF2FF"/>
<path d="M135.985 45.9878C133.988 44.6032 130.909 43.8958 130.639 45.8072C130.459 47.1467 132.801 48.8625 133.853 49.2839C134.724 49.63 136 50.0063 136.872 49.4795C138.464 48.5464 137.562 47.0564 135.985 45.9878Z" fill="#EBF2FF"/>
<path d="M155.646 41.8635C154.174 41.4119 152.702 43.6244 152.432 44.9789C152.221 46.0174 152.552 47.8987 153.994 47.1461C155.466 46.3936 157.838 42.5407 155.646 41.8635Z" fill="#EBF2FF"/>
<path d="M147.805 55.4531C147.009 55.3779 146.138 55.5735 145.492 56.0552C144.876 56.5067 144.411 57.3645 144.981 58.0418C145.732 58.9448 147.489 58.7492 148.466 58.4482C149.217 58.2224 150.073 57.3796 149.652 56.5368C149.292 55.8595 148.571 55.5133 147.805 55.4531Z" fill="#EBF2FF"/>
<path d="M148.182 89.1221C151.306 88.5653 154.625 87.5569 157.058 85.4197C158.304 84.321 159.356 82.7408 159.311 81.01C159.281 79.4598 158.394 77.9246 156.908 77.3828C155.15 76.7507 153.333 77.6989 151.681 78.2256C150.089 78.7223 148.482 79.1136 146.845 79.3996C143.601 79.9564 140.252 80.0467 136.993 79.6554C133.403 79.219 129.859 78.1203 126.72 76.3443C125.969 75.9229 125.248 75.4564 124.542 74.9597C123.731 74.3878 122.98 73.7406 122.049 73.3644C120.562 72.7623 118.88 73.0633 117.964 74.2975C117.063 73.9513 115.891 74.8844 116.552 75.8778C123.34 86.0067 136.227 91.2743 148.182 89.1221Z" fill="#EBF2FF"/>
<path d="M174.57 23.6518C167.977 20.732 159.431 28.6184 165.558 31.4479C177.619 37.0166 178.865 25.5482 174.57 23.6518Z" fill="#EBF2FF"/>
<path d="M259.531 79.4893C258.87 74.0561 250.49 63.0994 248.838 63.9874C244.557 66.2901 242.665 71.7083 241.794 76.4642C238.73 93.14 246.765 96.9177 247.876 97.294C249.423 97.8207 253.418 93.8926 254.184 92.8842C257.263 88.8206 260.177 84.7419 259.531 79.4893Z" fill="#EBF2FF"/>
<path d="M214.339 73.1839C213.333 74.132 213.213 75.7725 213.393 77.0518C213.768 79.7759 214.444 82.5452 215.27 85.164C216.367 88.6557 219.551 92.3731 223.516 90.1457C226.64 88.3998 227.346 84.3362 226.084 81.3261C222.615 73.0484 215.616 71.9798 214.339 73.1839Z" fill="#EBF2FF"/>
<path d="M188.342 25.4733C187.336 25.368 186.48 25.684 185.759 26.2108C185.564 26.2559 185.383 26.3613 185.203 26.572C182.725 29.5369 180.232 32.5319 178.174 35.828C177.228 37.3481 176.192 38.9886 175.666 40.7194C175.185 42.2846 175.576 44.2261 177.333 44.7529C178.865 45.2195 180.442 44.2713 181.553 43.293C182.98 42.0438 184.242 40.5839 185.398 39.0789C186.525 37.634 187.546 36.1139 188.507 34.5487C189.408 33.0738 190.595 31.4483 190.97 29.7476C191.421 27.8362 190.46 25.6991 188.342 25.4733Z" fill="#EBF2FF"/>
<path d="M12.2754 149.7C12.5307 155.088 17.7873 161.349 19.7698 162.99C22.6384 165.353 25.1916 161.741 26.4532 159.423C29.1266 154.516 29.7724 148.526 29.9676 143.018C30.1779 136.892 29.2017 130.511 25.1315 125.695C24.5308 124.988 11.6296 135.794 12.2754 149.7Z" fill="#EBF2FF"/>
<path d="M76.4048 168.738C70.8929 161.454 53.9666 135.251 51.1881 145.139C50.6925 146.885 50.8427 148.947 51.2182 150.648C51.6387 152.514 52.3746 154.305 53.2307 156.005C56.3546 162.221 62.3321 163.215 65.3359 172.802C67.9191 181.079 73.9868 186.528 77.1557 185.64C80.1144 184.812 81.9167 181.426 81.6163 178.491C81.2259 174.683 78.6276 171.673 76.4048 168.738Z" fill="#EBF2FF"/>
<path d="M97.5381 150.166C96.8923 147.306 96.3366 144.356 94.8047 141.813C93.438 139.555 90.7046 137.524 88.4217 139.932C86.0938 142.415 86.7696 146.885 87.0249 149.955C87.3554 153.778 88.0763 157.541 88.8122 161.303C90.284 168.858 91.5006 176.474 92.7021 184.074C93.2578 187.596 94.4442 191.434 97.9587 193.014C102.149 194.896 105.919 191.509 106.219 187.37C106.504 183.894 98.244 153.266 97.5381 150.166Z" fill="#EBF2FF"/>
<path d="M172.496 146.208C174.238 144.432 176.431 140.79 173.652 138.954C171.835 137.75 164.776 136.967 150.884 146.69C148.556 148.315 146.183 150.031 144.245 152.123C142.578 153.914 140.325 156.819 142.278 159.167C144.2 161.484 147.294 160.596 149.562 159.392C152.416 157.887 155.224 156.337 158.063 154.802C160.871 153.282 163.665 151.777 166.473 150.257C168.591 149.128 170.784 147.939 172.496 146.208Z" fill="#EBF2FF"/>
<path d="M182.544 176.581C180.021 176.189 179.81 178.251 179.105 179.832C178.068 182.149 176.732 184.347 175.14 186.333C173.097 188.877 170.784 191.164 168.712 193.663C166.519 196.312 164.626 200.451 166.789 203.686C168.862 206.787 172.226 205.643 174.689 203.671C177.873 201.128 180.036 197.561 181.823 193.949C183.205 191.18 184.241 188.215 184.616 185.129C184.887 182.842 184.571 176.897 182.544 176.581Z" fill="#EBF2FF"/>
<path d="M87.7744 191.223C87.0384 191.66 86.4377 192.292 86.0322 193.029C86.0022 193.075 85.9721 193.105 85.9421 193.15C84.5153 195.332 83.1335 197.665 82.9533 200.329C82.8782 201.458 83.0134 202.797 83.8995 203.61C84.9058 204.543 86.3025 204.167 87.3088 203.444C89.2312 202.045 90.688 200.133 91.5892 197.936C92.3251 196.13 93.1661 193.105 91.6492 191.479C90.6129 190.396 88.9759 190.516 87.7744 191.223Z" fill="#EBF2FF"/>
<path d="M120.546 140.654C120.261 140.654 120.261 141.105 120.546 141.105C120.831 141.105 120.831 140.654 120.546 140.654Z" fill="#EBF2FF"/>
<path d="M78.8688 47.2656C74.5734 45.9863 71.1642 47.4763 68.7912 47.5967C65.7724 47.7472 65.6372 45.8208 62.8287 45.1736C59.6747 44.4512 55.7398 44.8876 52.676 45.7756C50.4081 46.4378 48.5458 48.1536 46.2329 48.7556C44.2654 49.2673 44.0551 47.672 42.8686 46.6335C41.4419 45.3843 38.8436 44.8876 37.0413 44.4813C33.0463 43.5782 28.8861 43.6083 24.876 44.4512C18.0124 45.896 11.4342 49.5533 6.49297 54.5349C5.35154 55.6788 0.515467 60.5401 2.61811 62.4816C4.2852 64.0317 7.90474 64.0468 10.0224 64.122C21.2265 64.4983 83.1042 66.2592 88.9465 62.0451C93.5873 58.7039 85.7625 49.3124 78.8688 47.2656Z" fill="#E0FFEC"/>
<path d="M289.509 43.3068C287.181 38.6261 279.371 38.6863 275 37.9489C266.77 36.5642 258.84 36.3686 250.805 38.9573C248.612 39.6646 242.124 40.8536 243.206 44.5108C243.821 46.648 291.656 47.6263 289.509 43.3068Z" fill="#E0FFEC"/>
<path d="M297.063 162.145C292.722 149.744 275.195 152.995 263.931 155.267C261.228 155.809 258.675 154.56 256.061 154.094C253.208 153.582 250.204 153.823 247.426 154.56C246.209 154.891 245.113 155.403 243.836 155.192C242.214 154.921 240.877 153.853 239.27 153.507C236.462 152.905 233.308 152.98 230.439 153.055C224.987 153.191 219.445 154.078 214.474 156.426C212.176 157.51 210.029 158.91 208.166 160.64C198.99 169.189 239.721 164.343 253.824 164.689C261.799 164.87 298.745 166.962 297.063 162.145Z" fill="#E0FFEC"/>
<path d="M123.355 38.4453C122.484 38.1142 121.508 38.3701 120.697 38.8216C118.459 40.0858 117.153 43.0959 117.813 45.7297C118.474 48.3635 121.148 50.2599 123.626 49.7331" stroke="#002464" stroke-width="1.05132" stroke-miterlimit="10" stroke-linecap="round" stroke-linejoin="round"/>
<path d="M121.132 42.9756C121.943 43.4271 122.664 44.0291 123.28 44.7214" stroke="#002464" stroke-width="1.05132" stroke-miterlimit="10" stroke-linecap="round" stroke-linejoin="round"/>
<path d="M123.64 34.4721C123.58 36.9404 123.655 39.4237 123.865 41.8769C123.926 42.6144 124.016 43.397 124.511 43.9539C124.646 44.1044 124.812 44.2399 125.007 44.27C125.533 44.3452 125.818 43.683 125.908 43.1562C126.779 38.3852 127.125 33.524 126.929 28.6777" stroke="#002464" stroke-width="1.05132" stroke-miterlimit="10" stroke-linecap="round" stroke-linejoin="round"/>
<path d="M127.154 31.5819C129.467 30.6337 131.945 30.0769 134.438 29.9414" stroke="#002464" stroke-width="1.05132" stroke-miterlimit="10" stroke-linecap="round" stroke-linejoin="round"/>
<path d="M134.093 37.5279C136.21 36.8055 138.508 36.6851 140.701 37.1366" stroke="#002464" stroke-width="1.05132" stroke-miterlimit="10" stroke-linecap="round" stroke-linejoin="round"/>
<path d="M138.103 40.1602C138.028 40.6869 138.013 41.2287 138.073 41.7555C138.329 41.2739 138.404 40.702 138.283 40.1602" stroke="#002464" stroke-width="1.05132" stroke-miterlimit="10" stroke-linecap="round" stroke-linejoin="round"/>
<path d="M153.168 35.6161C151.381 35.5258 149.578 35.7365 147.851 36.2331C147.22 36.4137 146.499 36.7147 146.334 37.3619C146.244 37.7081 146.319 38.0843 146.424 38.4305C146.89 40.1613 147.461 41.8469 148.136 43.5025C148.332 43.9841 148.557 44.4958 148.512 45.0226C148.422 46.2266 147.16 46.9189 146.049 47.3855" stroke="#002464" stroke-width="1.05132" stroke-miterlimit="10" stroke-linecap="round" stroke-linejoin="round"/>
<path d="M150.809 38.9119C150.689 39.4236 150.689 39.9504 150.809 40.4621C151.019 39.9655 151.064 39.4086 150.959 38.8818" stroke="#002464" stroke-width="1.05132" stroke-miterlimit="10" stroke-linecap="round" stroke-linejoin="round"/>
<path d="M143.99 51.5692C145.522 51.3735 147.024 51.1026 148.526 50.7715" stroke="#002464" stroke-width="1.05132" stroke-miterlimit="10" stroke-linecap="round" stroke-linejoin="round"/>
<path d="M118.714 36.8347C118.353 33.2678 119.149 29.5955 120.967 26.5102C122.784 23.4248 125.592 20.9265 128.881 19.5117" stroke="#002464" stroke-width="1.05132" stroke-miterlimit="10" stroke-linecap="round" stroke-linejoin="round"/>
<path d="M130.85 19.5727C132.111 16.9088 134.619 14.877 137.473 14.1997C138.449 13.9589 139.5 13.8837 140.417 14.275C141.333 14.6663 142.054 15.6446 141.904 16.6228C141.753 17.6162 140.507 18.3386 139.666 17.7968C140.101 15.3736 142.279 13.673 144.472 12.5743C145.733 11.9422 147.19 11.4304 148.512 11.897C149.833 12.3786 150.614 14.29 149.578 15.2533C149.308 15.4941 148.932 15.6446 148.572 15.5844C147.956 15.479 147.566 14.7867 147.611 14.1546C147.656 13.5224 148.016 12.9656 148.422 12.484C150.074 10.4973 152.687 9.17288 155.24 9.57924C157.793 9.98561 160.016 12.4087 159.731 14.9823C159.446 17.5259 157.118 19.2567 154.985 20.6563" stroke="#002464" stroke-width="1.05132" stroke-miterlimit="10" stroke-linecap="round" stroke-linejoin="round"/>
<path d="M156.545 34.9229C156.861 40.7925 157.176 46.7073 156.245 52.5017C155.885 54.7593 155.329 57.0169 154.233 59.0186C153.136 61.0203 151.469 62.7812 149.351 63.639C148 64.1959 146.513 64.3615 145.056 64.3163C140.355 64.1809 135.774 61.7728 132.966 57.9951" stroke="#002464" stroke-width="1.05132" stroke-miterlimit="10" stroke-linecap="round" stroke-linejoin="round"/>
<path d="M123.76 49.959C124.571 57.9809 124.796 66.078 124.406 74.1299" stroke="#002464" stroke-width="1.05132" stroke-miterlimit="10" stroke-linecap="round" stroke-linejoin="round"/>
<path d="M153.993 59.4697C153.738 64.7675 153.738 70.6672 154.008 75.965" stroke="#002464" stroke-width="1.05132" stroke-miterlimit="10" stroke-linecap="round" stroke-linejoin="round"/>
<path d="M133.987 59.4102C135.294 62.7363 137.382 65.7313 140.596 67.2815C143.81 68.8317 147.88 68.7565 150.778 66.6795C152.445 65.4755 153.722 63.4286 153.317 61.4119C150.899 63.9855 147.174 65.1444 143.659 64.7681C140.145 64.3918 136.871 62.6159 134.333 60.1627" fill="#002464"/>
<path d="M133.987 59.4102C135.294 62.7363 137.382 65.7313 140.596 67.2815C143.81 68.8317 147.88 68.7565 150.778 66.6795C152.445 65.4755 153.722 63.4286 153.317 61.4119C150.899 63.9855 147.174 65.1444 143.659 64.7681C140.145 64.3918 136.871 62.6159 134.333 60.1627" stroke="#002464" stroke-width="1.05132" stroke-miterlimit="10" stroke-linecap="round" stroke-linejoin="round"/>
<path d="M124.631 76.4629C132.906 81.1436 143.164 82.167 152.205 79.2021" stroke="#002464" stroke-width="1.05132" stroke-miterlimit="10" stroke-linecap="round" stroke-linejoin="round"/>
<path d="M133.372 83.7924C138.839 85.6436 144.982 85.4329 150.298 83.1904" stroke="#002464" stroke-width="1.05132" stroke-miterlimit="10" stroke-linecap="round" stroke-linejoin="round"/>
<path d="M151.14 85.1025C149.158 86.4571 146.935 87.4655 144.622 88.0675" stroke="#002464" stroke-width="1.05132" stroke-miterlimit="10" stroke-linecap="round" stroke-linejoin="round"/>
<path d="M120.891 73.4384C108.426 72.8213 95.4495 72.2946 84.0051 77.2612C79.3943 79.2629 75.189 82.0924 71.0739 85.0122C55.229 96.2548 40.4204 108.957 26.6781 122.698C22.1574 127.213 17.6818 131.939 14.8883 137.674C12.0948 143.408 11.1486 150.391 13.867 156.17C15.7444 160.159 19.1236 163.199 22.4278 166.119C37.5217 179.499 52.6007 192.893 67.6946 206.273" stroke="#002464" stroke-width="1.05132" stroke-miterlimit="10" stroke-linecap="round" stroke-linejoin="round"/>
<path d="M86.393 176.985C78.2228 187.325 71.209 198.598 65.5469 210.518" stroke="#002464" stroke-width="1.05132" stroke-miterlimit="10" stroke-linecap="round" stroke-linejoin="round"/>
<path d="M82.6082 177.813C78.7634 172.32 74.9336 166.826 71.0888 161.333C66.478 154.726 61.702 147.968 55.0186 143.483C54.0273 142.821 52.4353 142.339 51.8646 143.378C51.6393 143.799 51.6994 144.326 51.8496 144.778C52.6006 146.96 55.2289 148.043 57.5117 147.742C59.7946 147.441 61.7921 146.057 63.6094 144.642C69.0462 140.383 73.7922 135.236 77.622 129.486" stroke="#002464" stroke-width="1.05132" stroke-miterlimit="10" stroke-linecap="round" stroke-linejoin="round"/>
<path d="M87.2188 144.822C88.1499 160.625 90.5229 176.338 94.2926 191.704" stroke="#002464" stroke-width="1.05132" stroke-miterlimit="10" stroke-linecap="round" stroke-linejoin="round"/>
<path d="M92.6865 150.541C93.5126 159.135 95.2548 167.653 97.853 175.901" stroke="#002464" stroke-width="1.05132" stroke-miterlimit="10" stroke-linecap="round" stroke-linejoin="round"/>
<path d="M239.916 100.604C223.636 106.594 206.469 110.221 189.168 111.334C187.561 111.44 185.894 111.515 184.392 110.913C182.89 110.311 181.613 108.866 181.733 107.256C181.854 105.645 183.866 104.351 185.188 105.254C186.239 105.977 186.314 107.482 186.284 108.761C185.458 140.322 184.632 171.897 183.806 203.458" stroke="#002464" stroke-width="1.05132" stroke-miterlimit="10" stroke-linecap="round" stroke-linejoin="round"/>
<path d="M165.513 76.7328C173.458 75.4084 181.478 74.5505 189.528 74.1592" stroke="#002464" stroke-width="1.05132" stroke-miterlimit="10" stroke-linecap="round" stroke-linejoin="round"/>
<path d="M171.084 46.0318C175.935 36.836 182.153 28.3626 189.482 21.0029" stroke="#002464" stroke-width="1.05132" stroke-miterlimit="10" stroke-linecap="round" stroke-linejoin="round"/>
<path d="M191.239 27.2627C208.03 35.6909 224.221 45.3232 239.645 56.0692C243.986 59.0943 248.296 62.2248 252.021 65.9874C257.112 71.1196 261.197 78.4491 259.14 85.3723C257.803 89.8724 254.123 93.2738 250.308 96.013" stroke="#002464" stroke-width="1.05132" stroke-miterlimit="10" stroke-linecap="round" stroke-linejoin="round"/>
<path d="M176.146 43.6689C187.154 56.0404 199.56 67.1476 213.077 76.6895" stroke="#002464" stroke-width="1.05132" stroke-miterlimit="10" stroke-linecap="round" stroke-linejoin="round"/>
<path d="M216.036 79.8945C217.253 82.6187 218.454 85.3428 219.671 88.0518" stroke="#002464" stroke-width="1.05132" stroke-miterlimit="10" stroke-linecap="round" stroke-linejoin="round"/>
<path d="M217.762 77.2007C219.535 79.0067 221.878 80.2409 224.356 80.7074C224.791 79.8496 224.07 78.8713 223.364 78.2241C221.592 76.6137 219.52 75.3495 217.297 74.4766" stroke="#002464" stroke-width="1.05132" stroke-miterlimit="10" stroke-linecap="round" stroke-linejoin="round"/>
<path d="M146.138 152.482C153.136 147.531 160.661 143.362 168.561 140.051" stroke="#002464" stroke-width="1.05132" stroke-miterlimit="10" stroke-linecap="round" stroke-linejoin="round"/>
<path d="M180.787 181.394C178.534 187.73 175.095 193.645 170.725 198.762" stroke="#002464" stroke-width="1.05132" stroke-miterlimit="10" stroke-linecap="round" stroke-linejoin="round"/>
<path d="M179.946 191.644C178.429 195.707 176.461 199.605 174.104 203.247" stroke="#002464" stroke-width="1.05132" stroke-miterlimit="10" stroke-linecap="round" stroke-linejoin="round"/>
<path d="M86.7236 80.362C93.9026 78.2248 101.412 77.1864 108.891 77.2616" stroke="#002464" stroke-width="1.05132" stroke-miterlimit="10" stroke-linecap="round" stroke-linejoin="round"/>
<path d="M111.939 77.2461C112.03 77.2461 112.12 77.2461 112.21 77.2461" stroke="#002464" stroke-width="1.05132" stroke-miterlimit="10" stroke-linecap="round" stroke-linejoin="round"/>
<path d="M78.4784 122.382C78.208 122.758 77.9227 123.119 77.6523 123.496" stroke="#002464" stroke-width="1.05132" stroke-miterlimit="10" stroke-linecap="round" stroke-linejoin="round"/>
<path d="M19.2137 139.523C17.8771 143.948 18.5679 148.945 21.046 152.843" stroke="#002464" stroke-width="1.05132" stroke-miterlimit="10" stroke-linecap="round" stroke-linejoin="round"/>
<path d="M92.0254 146.222C92.1155 146.493 92.2206 146.779 92.3108 147.049" stroke="#002464" stroke-width="1.05132" stroke-miterlimit="10" stroke-linecap="round" stroke-linejoin="round"/>
<path d="M140.972 88.8945C140.596 89.1654 140.236 89.4514 139.86 89.7223" stroke="#002464" stroke-width="1.05132" stroke-miterlimit="10" stroke-linecap="round" stroke-linejoin="round"/>
<path d="M163.83 7.09541C166.023 5.06361 168.216 3.0318 170.423 1" stroke="#002464" stroke-width="1.05132" stroke-miterlimit="10" stroke-linecap="round" stroke-linejoin="round"/>
<path d="M166.339 10.5868C168.697 9.14192 171.13 7.81749 173.623 6.64355" stroke="#002464" stroke-width="1.05132" stroke-miterlimit="10" stroke-linecap="round" stroke-linejoin="round"/>
<path d="M167.556 14.516C169.763 14.3354 171.971 13.9893 174.119 13.4775" stroke="#002464" stroke-width="1.05132" stroke-miterlimit="10" stroke-linecap="round" stroke-linejoin="round"/>
<path d="M139.529 24.4628C145.747 23.62 151.965 22.7621 158.168 21.9193C161.066 21.528 163.98 21.1216 166.894 21.2571C173.006 21.5129 178.759 24.0264 184.361 26.4796" stroke="#002464" stroke-width="1.05132" stroke-miterlimit="10" stroke-linecap="round" stroke-linejoin="round"/>
<path d="M140.852 26.3592C147.775 25.5014 154.744 24.9596 161.728 24.7188" stroke="#002464" stroke-width="1.05132" stroke-miterlimit="10" stroke-linecap="round" stroke-linejoin="round"/>
<path d="M162.914 27.3076C157.207 27.8043 151.485 28.3009 145.778 28.7976C145.162 28.8578 144.366 29.0986 144.381 29.7157C144.396 30.1822 144.892 30.4682 145.327 30.6187C146.844 31.1455 148.481 31.1756 150.073 31.2207C153.032 31.296 155.991 31.3562 158.949 31.4314C159.881 31.4465 160.842 31.4766 161.728 31.7926C163.019 32.2592 163.996 33.2977 165.017 34.2158C167.735 36.684 171.009 38.5202 174.524 39.5587" stroke="#002464" stroke-width="1.05132" stroke-miterlimit="10" stroke-linecap="round" stroke-linejoin="round"/>
<path d="M166.549 28.1064C166.984 28.272 167.435 28.4376 167.87 28.6031" stroke="#002464" stroke-width="1.05132" stroke-miterlimit="10" stroke-linecap="round" stroke-linejoin="round"/>
<path d="M89.9678 191.388C92.3708 192.08 94.8789 192.471 97.3871 192.532" stroke="#002464" stroke-width="1.05132" stroke-miterlimit="10" stroke-linecap="round" stroke-linejoin="round"/>
<path d="M84.5146 181.394C86.8125 182.778 89.2156 183.967 91.7087 184.96" stroke="#002464" stroke-width="1.05132" stroke-miterlimit="10" stroke-linecap="round" stroke-linejoin="round"/>
<path d="M71.2988 201.638C75.9547 203.91 80.5955 206.183 85.2513 208.456C87.1287 209.374 89.0211 210.307 91.0336 210.879C97.2214 212.67 103.619 213.001 110.258 213.001" stroke="#002464" stroke-width="1.05132" stroke-miterlimit="10" stroke-linecap="round" stroke-linejoin="round"/>
<path d="M93.8574 207.28C100.346 208.183 106.864 208.981 113.382 209.658" stroke="#002464" stroke-width="1.05132" stroke-miterlimit="10" stroke-linecap="round" stroke-linejoin="round"/>
<path d="M96.8018 203.066C104.071 203.789 111.355 204.285 118.639 204.541" stroke="#002464" stroke-width="1.05132" stroke-miterlimit="10" stroke-linecap="round" stroke-linejoin="round"/>
<path d="M96.6064 198.146C103.29 198.778 109.988 199.259 116.687 199.605" stroke="#002464" stroke-width="1.05132" stroke-miterlimit="10" stroke-linecap="round" stroke-linejoin="round"/>
<path d="M18.2826 95.998C17.9672 96.0582 17.9372 96.6001 18.2376 96.7054C18.5379 96.8108 18.8383 96.3743 18.6431 96.1335" stroke="#002464" stroke-width="1.05132" stroke-miterlimit="10" stroke-linecap="round" stroke-linejoin="round"/>
<path d="M107.044 65.0244C107.194 65.1746 107.344 65.3398 107.495 65.49" stroke="#002464" stroke-width="1.05132" stroke-miterlimit="10" stroke-linecap="round" stroke-linejoin="round"/>
<path d="M228.127 133.475C227.676 133.204 227.045 133.866 227.346 134.303C227.977 134.303 228.412 133.415 228.007 132.933C227.676 133.054 228.022 133.656 228.322 133.475C228.622 133.295 228.427 132.738 228.067 132.738C227.721 132.723 227.451 133.129 227.511 133.475" stroke="#002464" stroke-width="1.05132" stroke-miterlimit="10" stroke-linecap="round" stroke-linejoin="round"/>
<path d="M125.172 14.0335C124.901 13.8228 124.436 14.184 124.571 14.5001C124.706 14.8161 125.292 14.7108 125.322 14.3646" stroke="#002464" stroke-width="1.05132" stroke-miterlimit="10" stroke-linecap="round" stroke-linejoin="round"/>
<path d="M93.528 117.024C93.528 116.723 93.0023 116.723 92.8822 117.009C92.762 117.295 92.9272 117.596 93.0774 117.867C93.4529 117.762 93.8584 117.415 93.7382 117.039C93.6331 116.663 92.8521 116.904 93.0924 117.22C93.558 117.491 93.9034 116.422 93.3628 116.377" stroke="#002464" stroke-width="1.05132" stroke-miterlimit="10" stroke-linecap="round" stroke-linejoin="round"/>
<path d="M177.993 39.7405C181.042 35.8726 184.526 32.3357 188.341 29.2354" stroke="#002464" stroke-width="1.05132" stroke-miterlimit="10" stroke-linecap="round" stroke-linejoin="round"/>
<path d="M66.2676 199.486C69.4065 193.21 73.1012 187.22 77.2914 181.591" stroke="#002464" stroke-width="1.05132" stroke-miterlimit="10" stroke-linecap="round" stroke-linejoin="round"/>
<path d="M87.0401 55.1957C87.1452 49.5819 82.6546 44.239 77.1126 43.3962C71.5706 42.5534 65.6983 46.331 64.1513 51.7341C67.0499 52.306 69.7684 49.2056 69.468 46.2708C69.1676 43.336 66.5543 41.0182 63.7007 40.2958C60.8472 39.5734 57.8134 40.1603 55.0198 41.0935C49.4629 42.9597 44.3715 46.2407 40.3614 50.5301C39.6556 51.2976 39.0548 52.6973 39.9559 53.194C40.1962 53.3295 40.4966 53.3445 40.782 53.3295C44.1912 53.1187 46.4741 49.0852 45.6331 45.7741C44.792 42.4631 41.623 40.1302 38.2888 39.3928C34.9547 38.6553 31.4853 39.2423 28.1661 40.055C18.9746 42.2975 9.93322 46.4364 3.6253 53.5101C1.80802 55.5419 0.185981 58.4466 1.44757 60.8697C2.589 63.037 5.41255 63.5487 7.84561 63.7895C30.6442 66.0771 59.6757 63.3681 82.5795 63.8798" stroke="#46C578" stroke-width="1.05132" stroke-miterlimit="10" stroke-linecap="round" stroke-linejoin="round"/>
<path d="M244.377 39.1368C251.451 34.411 260.057 31.2203 268.422 32.7705C269.984 33.0564 271.771 33.7638 272.102 35.3291C272.507 37.2405 270.39 38.7304 268.482 39.1669C268.032 39.2723 267.506 39.3325 267.161 39.0315C266.319 38.3241 267.536 37.105 268.557 36.7438C272.282 35.4495 276.262 34.6217 280.152 35.2237C284.042 35.8408 287.827 38.0833 289.539 41.6352C289.974 42.5533 290.169 43.8476 289.313 44.3894C288.998 44.5851 288.622 44.6302 288.247 44.6603C275.601 45.8192 262.865 45.8794 250.219 44.8259" stroke="#46C578" stroke-width="1.05132" stroke-miterlimit="10" stroke-linecap="round" stroke-linejoin="round"/>
<path d="M210.149 154.378C218.515 148.795 228.533 145.739 238.58 145.694C241.028 145.679 243.581 145.875 245.699 147.109C247.817 148.343 249.349 150.902 248.688 153.264C248.027 155.627 244.648 156.952 242.921 155.206C247.531 152.091 253.193 150.586 258.735 151.007C259.997 151.097 261.319 151.323 262.34 152.076C263.361 152.828 263.977 154.273 263.436 155.432C262.896 156.591 260.988 156.892 260.357 155.778C261.394 153.43 264.142 152.452 266.62 151.85C270.57 150.887 274.61 150.269 278.665 149.999C283.321 149.698 288.232 149.908 292.258 152.256C296.283 154.604 299.091 159.616 297.589 164.041" stroke="#46C578" stroke-width="1.05132" stroke-miterlimit="10" stroke-linecap="round" stroke-linejoin="round"/>
<path d="M205.373 164.823C235.396 164.823 265.418 164.823 295.441 164.823" stroke="#46C578" stroke-width="1.05132" stroke-miterlimit="10" stroke-linecap="round" stroke-linejoin="round"/>
</svg>
