<svg width="24" height="24" viewBox="0 0 24 24" fill="none" xmlns="http://www.w3.org/2000/svg">
<path d="M21.8906 4.96875H2.10938C0.946266 4.96875 0 5.91502 0 7.07812V9.89062C0 10.2789 0.314812 10.5938 0.703125 10.5938H1.40625C2.18166 10.5938 2.8125 11.2246 2.8125 12C2.8125 12.7754 2.18166 13.4062 1.40625 13.4062H0.703125C0.314812 13.4062 0 13.7211 0 14.1094V16.9219C0 18.085 0.946266 19.0312 2.10938 19.0312H21.8906C23.0537 19.0312 24 18.085 24 16.9219V14.1094C24 13.7211 23.6852 13.4062 23.2969 13.4062H22.5938C21.8183 13.4062 21.1875 12.7754 21.1875 12C21.1875 11.2246 21.8183 10.5938 22.5938 10.5938H23.2969C23.6852 10.5938 24 10.2789 24 9.89062V7.07812C24 5.91502 23.0537 4.96875 21.8906 4.96875ZM22.5938 9.1875C21.0429 9.1875 19.7812 10.4492 19.7812 12C19.7812 13.5508 21.0429 14.8125 22.5938 14.8125V16.9219C22.5938 17.3096 22.2783 17.625 21.8906 17.625H2.10938C1.72167 17.625 1.40625 17.3096 1.40625 16.9219V14.8125C2.95706 14.8125 4.21875 13.5508 4.21875 12C4.21875 10.4492 2.95706 9.1875 1.40625 9.1875V7.07812C1.40625 6.69042 1.72167 6.375 2.10938 6.375H21.8906C22.2783 6.375 22.5938 6.69042 22.5938 7.07812V9.1875Z" fill="black"/>
<path d="M14.8125 12C13.6494 12 12.7031 12.9463 12.7031 14.1094C12.7031 15.2725 13.6494 16.2188 14.8125 16.2188C15.9756 16.2188 16.9219 15.2725 16.9219 14.1094C16.9219 12.9463 15.9756 12 14.8125 12ZM14.8125 14.8125C14.4248 14.8125 14.1094 14.4971 14.1094 14.1094C14.1094 13.7217 14.4248 13.4062 14.8125 13.4062C15.2002 13.4062 15.5156 13.7217 15.5156 14.1094C15.5156 14.4971 15.2002 14.8125 14.8125 14.8125Z" fill="black"/>
<path d="M11.2969 9.89062C11.2969 8.72752 10.3506 7.78125 9.1875 7.78125C8.02439 7.78125 7.07812 8.72752 7.07812 9.89062C7.07812 11.0537 8.02439 12 9.1875 12C10.3506 12 11.2969 11.0537 11.2969 9.89062ZM8.48438 9.89062C8.48438 9.50292 8.7998 9.1875 9.1875 9.1875C9.5752 9.1875 9.89062 9.50292 9.89062 9.89062C9.89062 10.2783 9.5752 10.5938 9.1875 10.5938C8.7998 10.5938 8.48438 10.2783 8.48438 9.89062Z" fill="black"/>
<path d="M15.2512 7.93533C14.948 7.69271 14.5055 7.74193 14.263 8.04516L8.63798 15.0764C8.39541 15.3796 8.44458 15.8221 8.74777 16.0647C9.04969 16.3062 9.49242 16.2594 9.73603 15.9548L15.361 8.9236C15.6036 8.62041 15.5544 8.17791 15.2512 7.93533Z" fill="black"/>
</svg>
