<svg width="299" height="214" viewBox="0 0 299 214" fill="none" xmlns="http://www.w3.org/2000/svg">
<path d="M255.968 137.578C255.129 134.54 252.301 123.496 249.586 125.668C240.303 133.12 240.431 148.012 242.734 159.851C243.374 163.13 244.468 166.296 245.947 169.291C246.544 170.498 247.638 170.271 248.406 169.362C261.327 154.215 256.735 140.36 255.968 137.578Z" fill="#EBF2FF"/>
<path d="M171.491 187.632C169.913 187.76 168.449 188.995 168.762 190.712C169.046 192.302 170.624 193.452 171.69 194.531C173.012 195.865 174.362 197.157 175.869 198.279C178.101 199.954 180.645 201.246 183.417 201.714C184.739 201.941 186.629 202.324 187.781 201.416C189.245 200.252 188.62 197.597 187.696 196.291C187.07 195.368 177.561 187.149 171.491 187.632Z" fill="#EBF2FF"/>
<path d="M79.6354 63.3762C82.521 66.982 86.0462 70.3322 90.8365 70.9142C96.1386 71.5672 99.0668 68.1744 97.1904 63.0781C95.1293 57.4566 91.0782 57.3856 85.8756 57.414C81.7107 57.4424 75.1152 57.7689 79.6354 63.3762Z" fill="#EBF2FF"/>
<path d="M117.105 51.2961C117.844 51.4523 118.754 51.2677 119.806 50.5721C122.279 48.9254 124.823 44.1982 122.492 41.5152C119.365 37.9095 115.925 43.5878 115.2 46.2992C114.589 48.5705 115.371 50.9128 117.105 51.2961Z" fill="#EBF2FF"/>
<path d="M95.8682 54.3617C96.1809 56.3207 99.5213 57.7545 101.199 57.7261C102.265 57.7119 103.786 57.1298 103.914 55.8948C104.013 54.8869 103.16 53.95 102.364 53.4531C100.772 52.4594 97.0622 51.2812 95.8682 54.3617Z" fill="#EBF2FF"/>
<path d="M115.584 60.1826C114.191 60.2819 112.542 61.1195 112.13 62.17C111.647 63.3624 112.514 64.2142 113.651 64.4129C115.087 64.6542 117.418 63.7741 117.688 62.17C117.958 60.6084 116.863 60.0832 115.584 60.1826Z" fill="#EBF2FF"/>
<path d="M152.258 79.2473C151.064 79.6306 150.424 80.6527 150.14 81.7884C147.695 84.6133 145.065 87.2679 142.279 89.7522C140.659 91.2002 138.953 92.5204 137.262 93.8832C135.641 95.2034 134.191 97.3611 135.328 99.4479C136.323 101.293 138.754 101.535 140.531 100.853C142.549 100.087 144.213 98.7097 145.734 97.205C148.619 94.3516 151.419 91.2428 153.409 87.6796C153.992 86.6149 154.504 85.5219 154.93 84.3862C155.314 83.3499 155.769 82.1717 155.485 81.0502C155.115 79.659 153.651 78.8073 152.258 79.2473Z" fill="#EBF2FF"/>
<path d="M149.145 64.8953C148.576 63.9442 147.254 63.788 146.472 64.5546C143.075 67.8338 139.663 70.9995 135.456 73.1998C131.632 75.2014 127.354 76.4648 123.047 76.8197C120.9 76.9901 117.887 77.1746 117.361 79.815C117.176 80.7094 117.617 81.6605 118.555 81.916C118.867 82.0012 119.209 81.987 119.536 81.8876C119.806 82.2709 120.246 82.5264 120.872 82.5122C130.282 82.2567 139.464 78.58 146.444 72.2771C148.42 70.4458 150.808 67.6919 149.145 64.8953Z" fill="#EBF2FF"/>
<path d="M191.59 75.4574C194.02 75.5 203.032 76.4653 203.843 73.2713C204.639 70.134 199.436 67.4794 197.332 66.4005C189.102 62.2128 178.114 60.5235 169.017 60.2254C166.927 60.1544 159.109 60.1402 157.574 61.5172C154.475 64.2995 161.995 67.962 164.027 69.1119C172.13 73.7113 182.407 75.3013 191.59 75.4574Z" fill="#EBF2FF"/>
<path d="M97.4888 95.0755C96.3801 94.7064 95.2571 94.4793 94.0916 94.3515C91.7746 94.0676 89.4007 94.3089 87.169 94.9761C86.9558 95.0471 86.7852 95.1323 86.6289 95.2458C86.4299 95.2174 86.2451 95.1891 86.0461 95.1749C85.1364 95.0613 84.3403 96.0408 84.3403 96.8784C84.3403 97.9004 85.1221 98.4683 86.0461 98.5818C88.5763 98.9083 91.1065 99.249 93.6509 99.5756C94.8165 99.7317 96.0247 100.001 97.2046 100.03C98.5834 100.058 99.9764 99.1071 99.9906 97.6449C100.019 96.0976 98.7397 95.5014 97.4888 95.0755ZM96.9913 96.5944C97.2046 96.5519 97.3609 96.6938 96.9913 96.5944V96.5944ZM96.9061 98.4683C97.1335 98.5109 97.0198 98.6102 96.9061 98.4683V98.4683Z" fill="#EBF2FF"/>
<path d="M106.302 86.0175C96.7642 85.7336 77.8872 82.1421 74.632 83.3345C72.3292 84.1721 71.3769 87.1816 71.0215 89.6091C70.8651 90.6737 71.4479 91.7668 72.6704 91.7668C77.8445 91.7526 83.0329 91.6533 88.207 91.8236C90.794 91.9088 93.3811 92.0649 95.9539 92.3772C98.4557 92.6754 101 93.4419 103.53 92.9593C105.933 92.505 108.221 90.3189 108.008 87.7352C107.937 86.7841 107.297 86.0459 106.302 86.0175Z" fill="#EBF2FF"/>
<path d="M63.3027 165.217C57.5316 161.398 43.6155 158.445 42.9047 160.887C42.0234 163.896 41.8528 166.906 42.6489 169.958C43.4164 172.896 45.0653 176.545 47.1123 178.773C51.1492 183.16 57.0056 184.778 62.8336 185.644C66.6289 186.212 70.5095 186.098 74.1911 184.963C75.1435 184.665 75.5272 183.799 75.3851 182.862C74.6175 178.007 70.3105 169.859 63.3027 165.217Z" fill="#EBF2FF"/>
<path d="M213.864 190.13C209.997 188.782 206.359 186.88 203.018 184.509C202.265 183.97 201.113 184.381 200.687 185.119C200.275 185.815 200.445 186.567 200.914 187.107C195.499 184.395 190.381 181.088 185.705 177.269C184.994 176.687 183.985 176.574 183.288 177.269C182.691 177.865 182.577 179.086 183.288 179.682C190.708 185.758 199.038 190.556 208.036 193.892C208.903 194.219 209.912 193.537 210.14 192.7C210.168 192.586 210.182 192.473 210.196 192.373C211.106 192.757 212.016 193.097 212.954 193.424C213.821 193.722 214.816 193.083 215.058 192.231C215.314 191.28 214.731 190.429 213.864 190.13Z" fill="#EBF2FF"/>
<path d="M186.657 91.9381C185.918 91.3844 184.753 91.8245 184.326 92.5485C183.814 93.4144 184.198 94.3229 184.937 94.8766C189.742 98.4823 193.594 103.28 196.21 108.675C196.608 109.498 197.787 109.725 198.541 109.285C199.394 108.788 199.55 107.781 199.152 106.957C196.281 101.009 191.945 95.8987 186.657 91.9381Z" fill="#EBF2FF"/>
<path d="M200.489 104.728C201.342 104.501 201.981 103.507 201.683 102.627C200.503 99.1346 198.683 95.9689 196.295 93.1866C195.698 92.491 194.504 92.5761 193.879 93.1866C193.182 93.8822 193.282 94.8901 193.879 95.5998C195.869 97.928 197.404 100.639 198.385 103.549C198.683 104.401 199.565 104.983 200.489 104.728Z" fill="#EBF2FF"/>
<path d="M233.338 131.686C231.277 132.751 229.273 133.929 227.325 135.179C228.804 133.276 230.225 131.331 231.575 129.33C232.087 128.563 231.718 127.442 230.964 127.002C230.125 126.505 229.145 126.846 228.633 127.612C225.506 132.254 221.981 136.612 218.128 140.672C216.622 142.262 219.024 144.675 220.545 143.086C221.369 142.22 222.18 141.339 222.961 140.445C223.473 141.027 224.468 141.325 225.136 140.828C228.278 138.5 231.604 136.428 235.072 134.625C235.882 134.199 236.138 133.063 235.683 132.297C235.2 131.473 234.162 131.26 233.338 131.686Z" fill="#EBF2FF"/>
<path d="M93.8213 54.0065C94.6458 54.2337 95.7545 53.7226 95.9251 52.8141C96.1241 51.6784 96.3231 50.557 96.5221 49.4213C96.6785 48.5128 96.2805 47.59 95.3281 47.3203C94.5036 47.0932 93.3949 47.6042 93.2243 48.5128C93.0253 49.6484 92.8263 50.7699 92.6273 51.9056C92.471 52.8141 92.869 53.7368 93.8213 54.0065Z" fill="#EBF2FF"/>
<path d="M104.269 14.7137C97.8726 14.9834 93.9778 18.646 90.4668 23.8274C87.0695 28.8527 83.0467 35.7093 89.5002 39.9396C95.982 44.1983 100.033 35.2976 102.563 30.4284C103.686 28.2565 111.078 14.4156 104.269 14.7137Z" fill="#E0FFEC"/>
<path d="M129.898 21.386C126.899 12.8402 104.923 7.63032 108.463 21.2299C110.026 27.2489 114.873 31.3515 121.042 29.5486C125.449 28.2568 132.286 28.1858 129.898 21.386Z" fill="#E0FFEC"/>
<path d="M138.242 47.0237C140.346 45.7035 137.318 43.4322 136.607 42.5947C135.157 40.8628 134.958 40.0394 134.404 37.6687C133.651 34.5031 131.064 32.4305 130.694 36.5614C130.438 39.5851 133.75 49.8345 138.242 47.0237Z" fill="#E0FFEC"/>
<path d="M152.258 201.842C149.003 202.921 145.776 204.042 142.492 205.065C139.749 205.916 136.082 206.186 133.566 207.407C131.604 208.358 130.239 211.949 133.296 212.801C135.186 213.326 139.82 210.885 141.739 210.317C144.554 209.494 147.368 208.67 150.183 207.833C152.571 207.137 154.39 207.435 154.333 204.894C154.319 204.27 153.097 201.558 152.258 201.842Z" fill="#E0FFEC"/>
<path d="M149.814 151.986C158.399 151.986 158.399 138.699 149.814 138.699C141.242 138.699 141.242 151.986 149.814 151.986Z" fill="#E0FFEC"/>
<path d="M94.5181 44.9932C96.2807 43.7723 98.1997 42.7644 100.218 42.0121C100.531 41.8985 100.872 41.7849 101.199 41.8275C101.924 41.9269 102.336 42.6935 102.578 43.389C103.772 46.7251 103.985 50.3308 104.98 53.7236C105.094 54.1211 105.279 54.5753 105.662 54.7315C105.932 54.8308 106.231 54.7599 106.515 54.6889C107.354 54.4617 108.193 54.2346 109.031 54.0075" stroke="#002464" stroke-width="0.995023" stroke-miterlimit="10" stroke-linecap="round" stroke-linejoin="round"/>
<path d="M98.1709 50.1186C99.1375 50.0618 100.104 49.7211 100.857 49.1816" stroke="#002464" stroke-width="0.995023" stroke-miterlimit="10" stroke-linecap="round" stroke-linejoin="round"/>
<path d="M106.331 39.3577C108.321 37.782 110.581 36.5469 112.997 35.752" stroke="#002464" stroke-width="0.995023" stroke-miterlimit="10" stroke-linecap="round" stroke-linejoin="round"/>
<path d="M110.737 44.6806C111.789 44.3541 112.784 43.8431 113.637 43.1475" stroke="#002464" stroke-width="0.995023" stroke-miterlimit="10" stroke-linecap="round" stroke-linejoin="round"/>
<path d="M103.615 38.4062C103.629 39.329 103.857 40.2375 104.241 41.0751" stroke="#002464" stroke-width="0.995023" stroke-miterlimit="10" stroke-linecap="round" stroke-linejoin="round"/>
<path d="M104.937 38.9598C104.923 38.5765 104.994 38.1932 105.151 37.8525" stroke="#002464" stroke-width="0.995023" stroke-miterlimit="10" stroke-linecap="round" stroke-linejoin="round"/>
<path d="M112.12 58.3992C113.599 57.9482 114.674 57.1754 114.52 56.673C114.367 56.1706 113.043 56.1289 111.564 56.5799C110.085 57.0309 109.01 57.8037 109.164 58.3061C109.317 58.8085 110.641 58.8502 112.12 58.3992Z" stroke="#002464" stroke-width="0.995023" stroke-miterlimit="10" stroke-linecap="round" stroke-linejoin="round"/>
<path d="M104.696 65.4216C107.126 68.3034 111.121 69.6946 114.859 69.2119C118.598 68.7434 122.023 66.5005 124.184 63.4058C126.345 60.3112 127.24 56.4357 126.97 52.6738" stroke="#002464" stroke-width="0.995023" stroke-miterlimit="10" stroke-linecap="round" stroke-linejoin="round"/>
<path d="M115.854 69.4102C117.247 71.9796 118.654 74.5632 120.047 77.1327" stroke="#002464" stroke-width="0.995023" stroke-miterlimit="10" stroke-linecap="round" stroke-linejoin="round"/>
<path d="M131.632 41.2168C135.357 49.4078 140.175 57.1019 145.946 64.001" stroke="#002464" stroke-width="0.995023" stroke-miterlimit="10" stroke-linecap="round" stroke-linejoin="round"/>
<path d="M103.971 82.0158C106.97 78.5805 110.652 75.7555 114.745 73.7539" stroke="#002464" stroke-width="0.995023" stroke-miterlimit="10" stroke-linecap="round" stroke-linejoin="round"/>
<path d="M147.609 63.5474C167.083 56.6198 189.813 59.8565 206.628 71.9371C212.869 76.4229 218.256 81.9735 223.501 87.6092C236.834 101.947 249.727 117.562 255.584 136.315C256.863 140.418 257.801 144.705 257.574 149.006C257.247 155.422 254.731 161.782 250.523 166.595C237.63 181.316 217.019 193.652 208.945 199.429" stroke="#002464" stroke-width="0.995023" stroke-miterlimit="10" stroke-linecap="round" stroke-linejoin="round"/>
<path d="M186.302 174.076C201.938 160.533 216.536 145.798 229.926 130.055" stroke="#002464" stroke-width="0.995023" stroke-miterlimit="10" stroke-linecap="round" stroke-linejoin="round"/>
<path d="M222.918 140.02C225.719 138.387 228.505 136.755 231.305 135.122" stroke="#002464" stroke-width="0.995023" stroke-miterlimit="10" stroke-linecap="round" stroke-linejoin="round"/>
<path d="M186.074 93.9551C191.163 96.6807 195.385 101.01 197.972 106.178" stroke="#002464" stroke-width="0.995023" stroke-miterlimit="10" stroke-linecap="round" stroke-linejoin="round"/>
<path d="M195.882 95.6719C197.73 98 199.308 100.555 200.545 103.267" stroke="#002464" stroke-width="0.995023" stroke-miterlimit="10" stroke-linecap="round" stroke-linejoin="round"/>
<path d="M122.023 34.1195C121.994 32.3025 123.331 30.5564 125.093 30.1021C126.856 29.6479 128.874 30.5564 129.699 32.1747C130.068 32.8987 130.225 33.7221 130.225 34.5454C130.253 37.2284 128.818 39.7127 127.083 41.7427" stroke="#002464" stroke-width="0.995023" stroke-miterlimit="10" stroke-linecap="round" stroke-linejoin="round"/>
<path d="M125.278 37.072C125.676 36.0073 126.344 35.0278 127.197 34.2754" stroke="#002464" stroke-width="0.995023" stroke-miterlimit="10" stroke-linecap="round" stroke-linejoin="round"/>
<path d="M177.56 180.648C185.918 188.925 196.323 194.787 206.586 200.537" stroke="#002464" stroke-width="0.995023" stroke-miterlimit="10" stroke-linecap="round" stroke-linejoin="round"/>
<path d="M183.615 178.392C191.134 185.191 199.748 190.77 209.03 194.859" stroke="#002464" stroke-width="0.995023" stroke-miterlimit="10" stroke-linecap="round" stroke-linejoin="round"/>
<path d="M202.606 186.767C205.264 188.442 208.05 189.918 210.922 191.167" stroke="#002464" stroke-width="0.995023" stroke-miterlimit="10" stroke-linecap="round" stroke-linejoin="round"/>
<path d="M179.507 182.763C177.247 184.196 174.859 185.403 172.386 186.397C171.035 186.936 169.628 187.419 168.491 188.327C167.482 189.137 166.757 190.215 166.103 191.323C164.625 193.793 163.416 196.419 162.521 199.145C162.109 200.38 161.767 201.728 162.137 202.977C162.62 204.624 164.198 205.675 165.676 206.583" stroke="#002464" stroke-width="0.995023" stroke-miterlimit="10" stroke-linecap="round" stroke-linejoin="round"/>
<path d="M172.272 192.799C171.476 193.452 170.765 194.304 170.197 195.297C168.491 198.704 167.211 202.111 166.216 205.944C166.074 206.37 166.074 206.938 166.359 207.364C167.211 208.641 168.917 209.351 170.481 209.379" stroke="#002464" stroke-width="0.995023" stroke-miterlimit="10" stroke-linecap="round" stroke-linejoin="round"/>
<path d="M176.124 195.54C175.598 196.15 175.029 196.86 174.603 197.57C173.039 201.403 171.476 205.378 171.191 209.494C172.044 211.056 174.034 210.772 175.413 210.8" stroke="#002464" stroke-width="0.995023" stroke-miterlimit="10" stroke-linecap="round" stroke-linejoin="round"/>
<path d="M180.175 197.952C178.299 201.544 176.877 205.093 176.025 209.067C175.882 210.061 175.882 211.197 176.735 211.907C177.162 212.191 177.73 212.332 178.157 212.332C180.147 212.332 182.279 212.616 184.269 211.907C187.254 210.913 188.391 207.506 189.528 204.866" stroke="#002464" stroke-width="0.995023" stroke-miterlimit="10" stroke-linecap="round" stroke-linejoin="round"/>
<path d="M184.923 201.146C185.05 201.714 184.894 202.311 184.738 202.864C184.24 204.653 183.643 206.427 182.961 208.159" stroke="#002464" stroke-width="0.995023" stroke-miterlimit="10" stroke-linecap="round" stroke-linejoin="round"/>
<path d="M184.866 204.241C191.533 205.008 198.441 203.432 204.127 199.869" stroke="#002464" stroke-width="0.995023" stroke-miterlimit="10" stroke-linecap="round" stroke-linejoin="round"/>
<path d="M120.659 77.856C122.635 78.6367 124.852 78.5232 126.956 78.1825C134.66 76.9332 141.796 72.5184 146.344 66.1729" stroke="#002464" stroke-width="0.995023" stroke-miterlimit="10" stroke-linecap="round" stroke-linejoin="round"/>
<path d="M122.151 81.1496C130.211 81.5329 138.37 78.7222 144.482 73.4697" stroke="#002464" stroke-width="0.995023" stroke-miterlimit="10" stroke-linecap="round" stroke-linejoin="round"/>
<path d="M146.373 71.099C146.685 70.7867 146.998 70.4744 147.311 70.1621" stroke="#002464" stroke-width="0.995023" stroke-miterlimit="10" stroke-linecap="round" stroke-linejoin="round"/>
<path d="M126.998 52.6162C128.931 56.1935 128.846 60.6936 127.083 64.3561C125.321 68.0186 121.995 70.8294 118.199 72.2916C118.114 72.3199 118.029 72.3625 117.943 72.3341C117.815 72.3057 117.744 72.178 117.673 72.0644C117.119 71.0991 116.579 70.1338 116.024 69.1543C117.83 68.4445 119.621 67.6495 121.199 66.5139C125.42 63.476 127.723 57.9964 126.927 52.8575" fill="#002464"/>
<path d="M126.998 52.6162C128.931 56.1935 128.846 60.6936 127.083 64.3561C125.321 68.0186 121.995 70.8294 118.199 72.2916C118.114 72.3199 118.029 72.3625 117.943 72.3341C117.815 72.3057 117.744 72.178 117.673 72.0644C117.119 71.0991 116.579 70.1338 116.024 69.1543C117.83 68.4445 119.621 67.6495 121.199 66.5139C125.42 63.476 127.723 57.9964 126.927 52.8575" stroke="#002464" stroke-width="0.995023" stroke-miterlimit="10" stroke-linecap="round" stroke-linejoin="round"/>
<path d="M83.3025 84.2016C83.9421 80.6953 84.5818 77.1889 85.2214 73.6826C85.3351 73.0438 85.4489 72.3908 85.3067 71.7661C85.1219 70.957 84.5249 70.304 83.9563 69.6936C82.1937 67.8055 80.4169 65.9317 78.6543 64.0436C77.7303 63.0641 76.8064 62.0562 76.2804 60.8354C75.7687 59.6288 75.6834 58.3085 75.6408 57.0025C75.5271 53.411 75.6692 49.8053 76.0814 46.2279C76.2378 44.7942 76.4652 43.3178 77.176 42.0686C77.4745 41.5291 77.8725 41.0323 78.4268 40.7626C79.8909 40.0244 81.5967 41.1033 82.7481 42.2673" stroke="#002464" stroke-width="0.995023" stroke-miterlimit="10" stroke-linecap="round" stroke-linejoin="round"/>
<path d="M79.5928 44.9785C79.8629 45.6173 80.1329 46.2561 80.4172 46.8949" stroke="#002464" stroke-width="0.995023" stroke-miterlimit="10" stroke-linecap="round" stroke-linejoin="round"/>
<path d="M80.8152 57.6272C79.8913 56.5057 79.3369 55.0861 79.2374 53.6381C79.1521 52.1618 79.5217 50.6996 79.9908 49.3084C80.7299 47.1223 81.6823 45.0213 82.8621 43.0481C83.6724 41.6711 84.9375 40.1805 86.5295 40.3935C87.5245 40.5212 88.2921 41.302 88.9886 42.0402" stroke="#002464" stroke-width="0.995023" stroke-miterlimit="10" stroke-linecap="round" stroke-linejoin="round"/>
<path d="M84.4395 57.7834C83.6719 56.3354 82.8759 54.7597 83.0749 53.1272C83.1744 52.2896 83.5298 51.5088 83.8994 50.7565C85.1645 48.1728 86.6286 45.7028 88.3059 43.3747C88.775 42.7217 89.3436 42.0261 90.1396 41.9551C91.3478 41.8415 92.1296 43.1617 92.5845 44.2832" stroke="#002464" stroke-width="0.995023" stroke-miterlimit="10" stroke-linecap="round" stroke-linejoin="round"/>
<path d="M88.8887 58.6641C88.5333 57.6846 88.1922 56.6909 87.8368 55.7114C87.6663 55.2145 87.4815 54.7035 87.5383 54.1924C87.581 53.7666 87.7658 53.3691 87.9648 52.9858C89.2157 50.4731 90.5803 48.0315 92.0728 45.6466C92.2149 45.4195 92.3713 45.1781 92.613 45.0504C93.1247 44.7948 93.7359 45.1923 94.1339 45.604C96.1808 47.7476 96.7778 51.1545 95.5696 53.8517" stroke="#002464" stroke-width="0.995023" stroke-miterlimit="10" stroke-linecap="round" stroke-linejoin="round"/>
<path d="M94.6034 49.8906C94.3476 50.6146 94.1343 51.3528 93.9922 52.1052" stroke="#002464" stroke-width="0.995023" stroke-miterlimit="10" stroke-linecap="round" stroke-linejoin="round"/>
<path d="M92.0303 51.2822C96.0104 54.3059 99.3508 58.153 101.796 62.4969C102.62 63.9732 103.359 65.5206 103.686 67.1673C104.084 69.1405 103.899 71.1705 103.7 73.1721C103.317 77.2179 102.933 81.2495 102.549 85.2953" stroke="#002464" stroke-width="0.995023" stroke-miterlimit="10" stroke-linecap="round" stroke-linejoin="round"/>
<path d="M77.7876 83.0938C87.3825 86.1316 97.6738 86.9834 107.638 85.5496" stroke="#002464" stroke-width="0.995023" stroke-miterlimit="10" stroke-linecap="round" stroke-linejoin="round"/>
<path d="M74.7026 87.5098C84.6386 90.207 94.9442 91.4846 105.236 91.3" stroke="#002464" stroke-width="0.995023" stroke-miterlimit="10" stroke-linecap="round" stroke-linejoin="round"/>
<path d="M43.1182 172.925C46.3022 180.023 53.637 184.807 61.3413 185.871C69.0456 186.936 76.9916 184.565 83.4877 180.292" stroke="#002464" stroke-width="0.995023" stroke-miterlimit="10" stroke-linecap="round" stroke-linejoin="round"/>
<path d="M107.794 90.1221C106.984 96.3824 105.947 102.614 104.724 108.818" stroke="#002464" stroke-width="0.995023" stroke-miterlimit="10" stroke-linecap="round" stroke-linejoin="round"/>
<path d="M153.878 82.2715C150.21 88.5744 144.667 93.7701 138.114 97.0209" stroke="#002464" stroke-width="0.995023" stroke-miterlimit="10" stroke-linecap="round" stroke-linejoin="round"/>
<path d="M146.543 94.2666C144.823 95.6578 143.203 97.1625 141.696 98.7808" stroke="#002464" stroke-width="0.995023" stroke-miterlimit="10" stroke-linecap="round" stroke-linejoin="round"/>
<path d="M255.726 161.512C269.812 161.512 283.913 161.512 298 161.512" stroke="#002464" stroke-width="0.995023" stroke-miterlimit="10" stroke-linecap="round" stroke-linejoin="round"/>
<path d="M258.768 165.316C261.81 165.316 264.866 165.316 267.908 165.316" stroke="#002464" stroke-width="0.995023" stroke-miterlimit="10" stroke-linecap="round" stroke-linejoin="round"/>
<path d="M282.393 168.737C283.786 168.737 285.179 168.737 286.586 168.737" stroke="#002464" stroke-width="0.995023" stroke-miterlimit="10" stroke-linecap="round" stroke-linejoin="round"/>
<path d="M267.908 173.678C268.675 173.678 269.429 173.678 270.196 173.678" stroke="#002464" stroke-width="0.995023" stroke-miterlimit="10" stroke-linecap="round" stroke-linejoin="round"/>
<path d="M1 161.896C14.7171 161.896 28.42 161.896 42.1371 161.896" stroke="#002464" stroke-width="0.995023" stroke-miterlimit="10" stroke-linecap="round" stroke-linejoin="round"/>
<path d="M15.0869 166.452C17.1196 166.452 19.1523 166.452 21.185 166.452" stroke="#002464" stroke-width="0.995023" stroke-miterlimit="10" stroke-linecap="round" stroke-linejoin="round"/>
<path d="M28.0361 175.58C28.9317 175.58 29.813 175.58 30.7085 175.58" stroke="#002464" stroke-width="0.995023" stroke-miterlimit="10" stroke-linecap="round" stroke-linejoin="round"/>
<path d="M170.751 186.78H85.7332L76.7354 109.016H222.904L219.052 142.333" stroke="#002464" stroke-width="0.995023" stroke-miterlimit="10" stroke-linecap="round" stroke-linejoin="round"/>
<path d="M85.3779 113.829H192.059" stroke="#002464" stroke-width="0.995023" stroke-miterlimit="10" stroke-linecap="round" stroke-linejoin="round"/>
<path d="M87.0552 96.2121C90.9926 96.1411 94.9301 96.6948 98.6969 97.8162" stroke="#002464" stroke-width="0.995023" stroke-miterlimit="10" stroke-linecap="round" stroke-linejoin="round"/>
<path d="M177.56 65.6045C184.795 66.7402 191.845 69.1108 198.299 72.5604" stroke="#002464" stroke-width="0.995023" stroke-miterlimit="10" stroke-linecap="round" stroke-linejoin="round"/>
<path d="M192.442 72.6328C193.238 72.647 194.02 72.8887 194.703 73.3151" stroke="#002464" stroke-width="0.995023" stroke-miterlimit="10" stroke-linecap="round" stroke-linejoin="round"/>
<path d="M250.594 153.677C250.182 154.656 249.784 155.636 249.372 156.615" stroke="#002464" stroke-width="0.995023" stroke-miterlimit="10" stroke-linecap="round" stroke-linejoin="round"/>
<path d="M105.662 191.168H151.22" stroke="#002464" stroke-width="0.995023" stroke-miterlimit="10" stroke-linecap="round" stroke-linejoin="round"/>
<path d="M94.4187 69.1533C94.6745 71.4814 94.5182 73.8521 93.978 76.1234" stroke="#002464" stroke-width="0.995023" stroke-miterlimit="10" stroke-linecap="round" stroke-linejoin="round"/>
<path d="M87.8796 72.2627C88.0218 73.157 87.8654 74.094 87.439 74.8889" stroke="#002464" stroke-width="0.995023" stroke-miterlimit="10" stroke-linecap="round" stroke-linejoin="round"/>
<path d="M81.8525 59.8848C82.0515 60.098 82.2506 60.3112 82.4496 60.5244" stroke="#002464" stroke-width="0.995023" stroke-miterlimit="10" stroke-linecap="round" stroke-linejoin="round"/>
<path d="M128.604 68.3867C128.903 69.2811 129.443 70.0902 130.168 70.7006" stroke="#002464" stroke-width="0.995023" stroke-miterlimit="10" stroke-linecap="round" stroke-linejoin="round"/>
<path d="M42.8191 169.788C40.6727 153.676 62.0231 104.146 70.8219 91.3135" stroke="#002464" stroke-width="0.995023" stroke-miterlimit="10" stroke-linecap="round" stroke-linejoin="round"/>
<path d="M106.089 15.1813C102.166 13.3359 97.333 14.2018 93.7367 16.6151C90.1404 19.0284 87.6386 22.7903 85.8618 26.7509C83.9997 30.8819 82.8341 35.3961 83.1042 39.9246" stroke="#46C578" stroke-width="0.995023" stroke-miterlimit="10" stroke-linecap="round" stroke-linejoin="round"/>
<path d="M94.1062 28.5264C93.0827 31.3229 91.5476 33.935 89.5859 36.1779" stroke="#46C578" stroke-width="0.995023" stroke-miterlimit="10" stroke-linecap="round" stroke-linejoin="round"/>
<path d="M102.053 21.2422C100.489 27.8574 96.8077 33.9474 91.6763 38.4049" stroke="#46C578" stroke-width="0.995023" stroke-miterlimit="10" stroke-linecap="round" stroke-linejoin="round"/>
<path d="M106.189 15.3096C107.81 25.999 102.607 37.4266 93.4673 43.2185" stroke="#46C578" stroke-width="0.995023" stroke-miterlimit="10" stroke-linecap="round" stroke-linejoin="round"/>
<path d="M107.227 22.748C108.066 26.0131 109.53 29.4484 112.515 31.0242C113.098 31.3365 113.808 31.5494 114.391 31.2513C114.974 30.9532 115.102 29.9311 114.491 29.704C114.007 30.2292 114.519 31.0526 115.102 31.4784C116.452 32.4722 118.243 32.8412 119.878 32.458" stroke="#46C578" stroke-width="0.995023" stroke-miterlimit="10" stroke-linecap="round" stroke-linejoin="round"/>
<path d="M111.165 20.6465C112.046 22.5487 113.695 24.0251 115.514 25.0614C117.334 26.0977 119.366 26.7223 121.385 27.3043" stroke="#46C578" stroke-width="0.995023" stroke-miterlimit="10" stroke-linecap="round" stroke-linejoin="round"/>
<path d="M107.468 14.1879C108.889 12.9529 110.709 12.2431 112.542 11.8456C116.48 10.9797 120.744 11.4482 124.227 13.4782C127.468 15.3662 129.87 18.4751 131.363 21.9104C132.855 25.3458 133.509 29.0935 133.793 32.827C134.021 35.8365 134.049 38.9738 135.357 41.6852" stroke="#46C578" stroke-width="0.995023" stroke-miterlimit="10" stroke-linecap="round" stroke-linejoin="round"/>
<path d="M136.636 43.6731C138.114 43.6589 139.578 44.1842 140.701 45.1353C139.749 46.058 138.271 46.0722 136.934 46.0438C137.702 46.3135 138.384 46.7962 138.896 47.435C139.124 47.7047 139.308 48.0738 139.138 48.3719C138.981 48.6558 138.598 48.6984 138.271 48.67C137.475 48.6133 136.707 48.3293 136.067 47.8609" stroke="#46C578" stroke-width="0.995023" stroke-miterlimit="10" stroke-linecap="round" stroke-linejoin="round"/>
<path d="M104.057 12.8253C103.133 10.7527 102.693 8.45303 102.75 6.1817C103.304 6.23848 103.588 6.8631 103.759 7.38834C104.256 8.93568 104.754 10.483 105.251 12.0304C105.521 9.91519 106.388 7.8852 107.71 6.21009C108.009 5.82681 108.634 6.13911 108.506 6.60757C108.45 6.8489 108.364 7.07604 108.279 7.30317C107.668 8.8931 107.057 10.483 106.46 12.0729" stroke="#46C578" stroke-width="0.995023" stroke-miterlimit="10" stroke-linecap="round" stroke-linejoin="round"/>
<path d="M154.447 206.37L131.433 213L123.999 210.799L129.23 205.362L152.243 198.747L154.447 206.37Z" stroke="#46C578" stroke-width="0.995023" stroke-miterlimit="10" stroke-linecap="round" stroke-linejoin="round"/>
<path d="M130.154 206.058C130.993 207.676 131.419 209.521 131.391 211.338" stroke="#46C578" stroke-width="0.995023" stroke-miterlimit="10" stroke-linecap="round" stroke-linejoin="round"/>
<path d="M133.509 206.867L148.889 202.438" stroke="#46C578" stroke-width="0.995023" stroke-miterlimit="10" stroke-linecap="round" stroke-linejoin="round"/>
<path d="M134.447 209.081L149.813 204.652" stroke="#46C578" stroke-width="0.995023" stroke-miterlimit="10" stroke-linecap="round" stroke-linejoin="round"/>
<path d="M126.616 208.471C127.185 209.252 127.17 210.288 127.142 211.253C126.289 211.211 125.436 211.097 124.612 210.884C124.527 210.856 124.427 210.827 124.413 210.728C124.399 210.657 124.455 210.6 124.512 210.558C125.237 209.848 125.948 209.152 126.673 208.442" fill="#46C578"/>
<path d="M126.616 208.471C127.185 209.252 127.17 210.288 127.142 211.253C126.289 211.211 125.436 211.097 124.612 210.884C124.527 210.856 124.427 210.827 124.413 210.728C124.399 210.657 124.455 210.6 124.512 210.558C125.237 209.848 125.948 209.152 126.673 208.442" stroke="#46C578" stroke-width="0.995023" stroke-miterlimit="10" stroke-linecap="round" stroke-linejoin="round"/>
<path d="M149.813 150.367C153.487 150.367 156.466 147.393 156.466 143.724C156.466 140.055 153.487 137.08 149.813 137.08C146.139 137.08 143.161 140.055 143.161 143.724C143.161 147.393 146.139 150.367 149.813 150.367Z" stroke="#46C578" stroke-width="0.995023" stroke-miterlimit="10" stroke-linecap="round" stroke-linejoin="round"/>
<path d="M43.7437 32.9693C43.232 32.4157 42.7061 31.8621 42.1943 31.3084C45.222 28.7248 48.4203 26.3399 51.7608 24.168C51.4765 27.6317 51.249 31.0955 51.05 34.5593C50.9221 36.9442 50.8084 39.3716 51.249 41.7281C54.163 39.6414 57.077 37.5546 59.9768 35.482C59.4651 35.0419 58.9391 34.5877 58.4274 34.1476" stroke="#46C578" stroke-width="0.995023" stroke-miterlimit="10" stroke-linecap="round" stroke-linejoin="round"/>
<path d="M60.9148 16.9563C60.3605 16.6156 59.863 16.2039 59.4365 15.7213C61.5829 14.543 63.7435 13.3648 65.8899 12.1865C65.4493 16.0478 65.0086 19.909 64.568 23.7703C64.5538 23.8696 64.5538 23.9974 64.6391 24.0684C64.7244 24.1394 64.8523 24.0826 64.9518 24.04C67.1693 22.9469 69.3867 21.8538 71.6042 20.7608C71.789 20.6756 71.988 20.5762 72.1159 20.4059C72.4855 19.9232 72.1159 19.2418 71.7464 18.7734" stroke="#46C578" stroke-width="0.995023" stroke-miterlimit="10" stroke-linecap="round" stroke-linejoin="round"/>
<path d="M74.8596 5.713C74.5042 5.34391 74.1347 4.97482 73.7793 4.60573C75.8546 3.39909 77.9442 2.20664 80.0195 1C79.8632 4.42118 79.3941 7.82817 78.5981 11.15C80.4602 10.2273 82.3223 9.27614 84.1702 8.31082C84.5398 8.11208 84.9662 7.85656 84.9946 7.43069C85.0373 6.94803 84.5398 6.56475 84.554 6.08209" stroke="#46C578" stroke-width="0.995023" stroke-miterlimit="10" stroke-linecap="round" stroke-linejoin="round"/>
</svg>
