<svg width="14" height="14" viewBox="0 0 14 14" fill="none" xmlns="http://www.w3.org/2000/svg">
<path d="M6.99995 3.70245C5.17513 3.70245 3.7024 5.17518 3.7024 7C3.7024 8.82483 5.17513 10.2976 6.99995 10.2976C8.82478 10.2976 10.2975 8.82483 10.2975 7C10.2975 5.17518 8.82478 3.70245 6.99995 3.70245ZM6.99995 9.14317C5.81984 9.14317 4.85679 8.18011 4.85679 7C4.85679 5.81989 5.81984 4.85684 6.99995 4.85684C8.18006 4.85684 9.14312 5.81989 9.14312 7C9.14312 8.18011 8.18006 9.14317 6.99995 9.14317ZM10.4326 2.79888C10.0065 2.79888 9.66243 3.14295 9.66243 3.56901C9.66243 3.99507 10.0065 4.33913 10.4326 4.33913C10.8586 4.33913 11.2027 3.99668 11.2027 3.56901C11.2028 3.46784 11.183 3.36764 11.1443 3.27414C11.1057 3.18065 11.0489 3.0957 10.9774 3.02416C10.9059 2.95263 10.8209 2.8959 10.7274 2.85725C10.6339 2.81859 10.5337 2.79876 10.4326 2.79888ZM13.4278 7C13.4278 6.11251 13.4359 5.23306 13.386 4.34717C13.3362 3.31819 13.1015 2.40498 12.349 1.65254C11.595 0.898491 10.6834 0.665364 9.65439 0.615523C8.7669 0.565682 7.88744 0.57372 7.00156 0.57372C6.11407 0.57372 5.23461 0.565682 4.34873 0.615523C3.31975 0.665364 2.40653 0.900099 1.65409 1.65254C0.900048 2.40659 0.66692 3.31819 0.617079 4.34717C0.567238 5.23466 0.575277 6.11412 0.575277 7C0.575277 7.88589 0.567238 8.76695 0.617079 9.65283C0.66692 10.6818 0.901655 11.595 1.65409 12.3475C2.40814 13.1015 3.31975 13.3346 4.34873 13.3845C5.23622 13.4343 6.11567 13.4263 7.00156 13.4263C7.88905 13.4263 8.76851 13.4343 9.65439 13.3845C10.6834 13.3346 11.5966 13.0999 12.349 12.3475C13.1031 11.5934 13.3362 10.6818 13.386 9.65283C13.4375 8.76695 13.4278 7.8875 13.4278 7ZM12.013 10.7911C11.8956 11.0838 11.7541 11.3024 11.5275 11.5275C11.3008 11.7542 11.0837 11.8957 10.7911 12.013C9.9454 12.3491 7.93729 12.2735 6.99995 12.2735C6.06262 12.2735 4.0529 12.3491 3.20721 12.0147C2.91459 11.8973 2.69593 11.7558 2.47085 11.5291C2.24415 11.3024 2.10266 11.0854 1.9853 10.7927C1.65088 9.94545 1.72644 7.93734 1.72644 7C1.72644 6.06267 1.65088 4.05295 1.9853 3.20726C2.10266 2.91464 2.24415 2.69599 2.47085 2.4709C2.69754 2.24581 2.91459 2.10272 3.20721 1.98535C4.0529 1.65093 6.06262 1.7265 6.99995 1.7265C7.93729 1.7265 9.94701 1.65093 10.7927 1.98535C11.0853 2.10272 11.304 2.2442 11.5291 2.4709C11.7558 2.69759 11.8972 2.91464 12.0146 3.20726C12.349 4.05295 12.2735 6.06267 12.2735 7C12.2735 7.93734 12.349 9.94545 12.013 10.7911Z" fill="white"/>
</svg>
