<svg width="24" height="24" viewBox="0 0 24 24" fill="none" xmlns="http://www.w3.org/2000/svg">
<path d="M8.2042 4.82023C8.57962 4.64522 9.02584 4.80769 9.20085 5.18311C9.37586 5.55854 9.2134 6.00475 8.83797 6.17977C6.21382 7.40308 4.5 10.0413 4.5 12.9911C4.5 17.1384 7.85759 20.5 11.9989 20.5C16.1403 20.5 19.4979 17.1384 19.4979 12.9911C19.4979 10.0474 17.7912 7.41366 15.1753 6.18695C14.8002 6.01108 14.6388 5.5645 14.8147 5.18947C14.9905 4.81445 15.4371 4.653 15.8121 4.82886C18.9502 6.30042 20.9979 9.46043 20.9979 12.9911C20.9979 17.9664 16.9691 22 11.9989 22C7.02876 22 3 17.9664 3 12.9911C3 9.45311 5.05623 6.28773 8.2042 4.82023ZM11.9989 2.49586C12.3786 2.49586 12.6924 2.77802 12.7421 3.14409L12.7489 3.24586V10.7458C12.7489 11.16 12.4132 11.4958 11.9989 11.4958C11.6192 11.4958 11.3055 11.2136 11.2558 10.8476L11.2489 10.7458V3.24586C11.2489 2.83165 11.5847 2.49586 11.9989 2.49586Z" fill="#212121"/>
</svg>
