<svg width="50" height="32" viewBox="0 0 50 32" fill="none" xmlns="http://www.w3.org/2000/svg">
<g id="MasterCard">
<g id="MasterCard_2">
<rect id="Rectangle" width="50" height="32" rx="3" fill="#0F3560"/>
<g id="Group">
<g id="Group_2">
<path id="Vector" d="M29.3632 23.8647H20.614V8.14087H29.3632V23.8647Z" fill="#FF5F00"/>
<g id="Group_3">
<path id="Vector_2" d="M21.1745 16.0015C21.1745 12.8118 22.6679 9.97057 24.9936 8.13955C23.2929 6.80063 21.1465 6.00147 18.8139 6.00147C13.2916 6.00147 8.81519 10.4785 8.81519 16.0015C8.81519 21.5244 13.2916 26.0015 18.8139 26.0015C21.1465 26.0015 23.2929 25.2023 24.9936 23.8634C22.6679 22.0324 21.1745 19.1911 21.1745 16.0015Z" fill="#EB001B"/>
</g>
<g id="Group_4">
<path id="Vector_3" d="M41.1632 16.0015C41.1632 21.5244 36.6867 26.0015 31.1644 26.0015C28.8318 26.0015 26.6854 25.2023 24.9841 23.8634C27.3104 22.0324 28.8038 19.1911 28.8038 16.0015C28.8038 12.8118 27.3104 9.97057 24.9841 8.13955C26.6854 6.80063 28.8318 6.00147 31.1644 6.00147C36.6867 6.00147 41.1632 10.4785 41.1632 16.0015Z" fill="#F79E1B"/>
</g>
</g>
<g id="Group_5">
<path id="Vector_4" d="M16.3391 16.0648C16.3391 15.628 16.6253 15.2692 17.0931 15.2692C17.54 15.2692 17.8417 15.6126 17.8417 16.0648C17.8417 16.5171 17.54 16.8605 17.0931 16.8605C16.6253 16.8605 16.3391 16.5016 16.3391 16.0648ZM18.3511 16.0648V14.8223H17.8107V15.124C17.6394 14.9002 17.3793 14.7598 17.0258 14.7598C16.329 14.7598 15.7827 15.3061 15.7827 16.0648C15.7827 16.8242 16.329 17.3699 17.0258 17.3699C17.3793 17.3699 17.6394 17.2294 17.8107 17.0057V17.3074H18.3511V16.0648ZM36.6109 16.0648C36.6109 15.628 36.8971 15.2692 37.3649 15.2692C37.8124 15.2692 38.1135 15.6126 38.1135 16.0648C38.1135 16.5171 37.8124 16.8605 37.3649 16.8605C36.8971 16.8605 36.6109 16.5016 36.6109 16.0648ZM38.6235 16.0648V13.8243H38.0825V15.124C37.9112 14.9002 37.6511 14.7598 37.2976 14.7598C36.6008 14.7598 36.0545 15.3061 36.0545 16.0648C36.0545 16.8242 36.6008 17.3699 37.2976 17.3699C37.6511 17.3699 37.9112 17.2294 38.0825 17.0057V17.3074H38.6235V16.0648ZM25.0584 15.2436C25.4065 15.2436 25.6303 15.462 25.6874 15.8464H24.3978C24.4555 15.4876 24.6733 15.2436 25.0584 15.2436ZM25.0691 14.7598C24.3407 14.7598 23.8313 15.29 23.8313 16.0648C23.8313 16.8551 24.3615 17.3699 25.1054 17.3699C25.4797 17.3699 25.8225 17.2764 26.1242 17.0217L25.8594 16.6212C25.6511 16.7873 25.3857 16.8813 25.1363 16.8813C24.7882 16.8813 24.471 16.72 24.3931 16.2725H26.2384C26.2438 16.2053 26.2491 16.1374 26.2491 16.0648C26.2438 15.29 25.7653 14.7598 25.0691 14.7598ZM31.5937 16.0648C31.5937 15.628 31.8799 15.2692 32.3476 15.2692C32.7946 15.2692 33.0963 15.6126 33.0963 16.0648C33.0963 16.5171 32.7946 16.8605 32.3476 16.8605C31.8799 16.8605 31.5937 16.5016 31.5937 16.0648ZM33.6057 16.0648V14.8223H33.0653V15.124C32.8933 14.9002 32.6339 14.7598 32.2804 14.7598C31.5835 14.7598 31.0373 15.3061 31.0373 16.0648C31.0373 16.8242 31.5835 17.3699 32.2804 17.3699C32.6339 17.3699 32.8933 17.2294 33.0653 17.0057V17.3074H33.6057V16.0648ZM28.542 16.0648C28.542 16.8188 29.0669 17.3699 29.8679 17.3699C30.2422 17.3699 30.4916 17.2866 30.7617 17.0735L30.5023 16.6367C30.2993 16.7825 30.0863 16.8605 29.8518 16.8605C29.4204 16.8551 29.1032 16.5433 29.1032 16.0648C29.1032 15.5864 29.4204 15.2746 29.8518 15.2692C30.0863 15.2692 30.2993 15.3472 30.5023 15.493L30.7617 15.0562C30.4916 14.8431 30.2422 14.7598 29.8679 14.7598C29.0669 14.7598 28.542 15.3109 28.542 16.0648ZM35.5088 14.7598C35.1969 14.7598 34.994 14.9056 34.8536 15.124V14.8223H34.318V17.3074H34.8589V15.9143C34.8589 15.5031 35.0357 15.2746 35.3892 15.2746C35.4987 15.2746 35.6129 15.29 35.7272 15.337L35.8938 14.8276C35.7742 14.7806 35.6183 14.7598 35.5088 14.7598ZM21.0236 15.0199C20.7636 14.8485 20.4053 14.7598 20.0102 14.7598C19.3806 14.7598 18.9753 15.0615 18.9753 15.5554C18.9753 15.9607 19.2771 16.2106 19.8329 16.2886L20.0882 16.3249C20.3845 16.3665 20.5244 16.4445 20.5244 16.5849C20.5244 16.7772 20.3268 16.8867 19.9578 16.8867C19.5835 16.8867 19.3134 16.767 19.1313 16.6266L18.8766 17.0473C19.1729 17.2657 19.5472 17.3699 19.9525 17.3699C20.6702 17.3699 21.0861 17.0319 21.0861 16.5588C21.0861 16.122 20.7588 15.8935 20.2179 15.8155L19.9632 15.7786C19.7293 15.7477 19.5419 15.7012 19.5419 15.5346C19.5419 15.3525 19.7186 15.2436 20.015 15.2436C20.3322 15.2436 20.6392 15.3632 20.7898 15.4567L21.0236 15.0199ZM27.9957 14.7598C27.6839 14.7598 27.481 14.9056 27.3411 15.124V14.8223H26.8056V17.3074H27.3459V15.9143C27.3459 15.5031 27.5226 15.2746 27.8761 15.2746C27.9856 15.2746 28.0999 15.29 28.2141 15.337L28.3808 14.8276C28.2612 14.7806 28.1052 14.7598 27.9957 14.7598ZM23.3844 14.8223H22.5007V14.0683H21.9544V14.8223H21.4503V15.3162H21.9544V16.4499C21.9544 17.0265 22.1781 17.3699 22.8173 17.3699C23.0517 17.3699 23.3219 17.2973 23.4933 17.1777L23.3374 16.7147C23.1761 16.8081 22.9994 16.8551 22.8589 16.8551C22.5887 16.8551 22.5007 16.6885 22.5007 16.4391V15.3162H23.3844V14.8223ZM15.3048 17.3074V15.7477C15.3048 15.1603 14.9305 14.7652 14.3271 14.7598C14.0099 14.7544 13.6826 14.8532 13.4535 15.202C13.2821 14.9264 13.0119 14.7598 12.6323 14.7598C12.3668 14.7598 12.1074 14.8378 11.9045 15.1288V14.8223H11.3635V17.3074H11.9092V15.9298C11.9092 15.4983 12.1485 15.2692 12.518 15.2692C12.8768 15.2692 13.0583 15.5031 13.0583 15.9244V17.3074H13.6046V15.9298C13.6046 15.4983 13.854 15.2692 14.2128 15.2692C14.5818 15.2692 14.7585 15.5031 14.7585 15.9244V17.3074H15.3048Z" fill="white"/>
</g>
</g>
</g>
</g>
</svg>
