<svg width="240" height="298" viewBox="0 0 240 298" fill="none" xmlns="http://www.w3.org/2000/svg">
<path d="M47.6142 21.3824C48.4691 21.6829 49.2606 22.0941 50.0204 22.6002C50.6061 22.9956 51.6509 22.6319 51.7617 21.8885C52.0466 20.0065 52.3316 18.1402 52.6007 16.2582C57.2547 15.8312 62.0987 15.1511 66.1353 12.6839C67.7975 11.6717 71.1851 9.41002 70.0453 7.02186C69.4438 5.75662 68.0824 5.66172 66.8477 5.81988C65.8979 5.9464 64.9956 6.18364 64.1091 6.49995C63.2543 4.44392 60.7848 3.32101 58.5211 3.79548C55.7667 4.38066 54.0887 6.70555 53.0123 9.12534C50.4953 8.82484 47.915 9.39421 46.3478 11.5768C44.4008 14.2812 45.0498 17.7607 45.7305 20.7814C45.9838 21.762 46.9969 21.8411 47.6142 21.3824Z" fill="#EBF2FF"/>
<path d="M52.3945 25.4943C51.2864 26.1428 51.5238 27.7085 52.4578 28.2146C53.1702 28.9738 54.1358 29.5748 55.1964 29.5906C56.0037 29.6064 56.7002 28.9896 56.7477 28.183C56.7794 27.5029 56.4153 26.9178 55.9404 26.4591C55.0856 25.6367 53.5659 24.8143 52.3945 25.4943ZM54.4049 28.2779C54.4682 28.3412 54.4365 28.3253 54.4049 28.2779V28.2779Z" fill="#EBF2FF"/>
<path d="M67.4965 23.8656C67.164 23.7232 66.7525 23.7232 66.4359 23.9288C65.3436 24.6247 64.7104 25.716 64.5996 27.0129C64.5679 27.4715 64.932 27.9302 65.3278 28.1041C65.8027 28.2939 66.2459 28.1832 66.6258 27.8511C67.4332 27.171 67.9872 26.317 68.383 25.3522C68.6204 24.7512 68.1138 24.0553 67.5598 23.8972C67.5281 23.8656 67.5123 23.8656 67.4965 23.8656Z" fill="#EBF2FF"/>
<path d="M60.5949 33.0706C60.5474 33.1022 60.5158 33.1338 60.4683 33.1813C60.2625 33.3394 60.0725 33.545 59.9142 33.7665C59.6293 34.1777 59.9459 34.668 60.3416 34.8103C61.4022 35.2057 62.5262 34.9368 63.3968 34.2568C63.6818 34.0353 63.6659 33.4818 63.3968 33.2446C62.6053 32.5803 61.4655 32.438 60.5949 33.0706Z" fill="#EBF2FF"/>
<path d="M15.9707 58.1696C22.2869 58.992 28.888 56.3666 33.0354 51.5745C34.0327 50.42 34.9825 49.1231 35.5999 47.7313C36.3122 46.1023 35.1567 45.0585 33.6211 44.8054C33.2096 44.7422 32.7822 44.6947 32.3706 44.6631C34.5235 44.5524 36.6605 45.3748 38.6709 46.1498C41.552 47.2727 44.433 48.3956 47.3299 49.5185C50.1635 50.6256 52.997 51.7327 55.8306 52.8398C58.3634 53.8361 61.1178 55.0381 63.8564 54.105C64.0464 54.0418 64.2047 53.9152 64.2838 53.7412C66.8958 54.2157 69.1436 52.2071 70.695 50.2618C71.5656 49.1547 72.4363 47.9686 72.7054 46.561C72.9745 45.1692 72.6737 43.7616 72.0563 42.4964C71.3915 41.1362 70.3309 40.0133 69.2228 39.0011C68.4154 38.2578 67.1174 36.7395 65.8668 37.5144C65.4394 37.7833 65.1386 38.3052 65.2336 38.8113C65.3444 39.4756 65.9143 39.6495 66.4684 39.871C67.6556 40.3613 68.2888 41.6898 68.3205 42.9234C68.3838 46.4028 64.8537 48.8859 63.1441 51.5745C63.1441 51.5903 63.1282 51.5903 63.1282 51.6061C60.7062 49.2022 56.9545 48.5854 53.7094 47.7788C51.1608 47.1461 48.5805 46.4028 46.1427 45.4064C44.1798 44.5998 42.106 43.2713 42.0902 40.899C42.0744 38.0522 44.4963 36.1385 46.9658 35.2844C47.2824 35.1737 47.4249 34.9207 47.4565 34.6518C48.3272 34.6676 48.2955 33.2917 47.4091 33.2284C45.3987 33.0861 43.3882 33.4656 41.5678 34.3355C40.6497 34.7783 39.8582 35.3635 39.035 35.9487C38.1327 36.5813 37.2937 36.9293 36.2014 37.0874C34.3968 37.3563 32.9721 38.0996 31.8324 39.5388C30.7718 40.8832 30.1227 42.4964 29.6478 44.1254C29.5845 44.3626 29.6637 44.6156 29.8061 44.7896C27.5583 45.1534 25.4054 46.1023 23.5691 47.4308C20.2606 49.8032 17.9336 53.2193 16.0024 56.7462C15.9865 56.7462 15.9707 56.7462 15.9549 56.7462C15.0684 56.6355 15.0684 58.0589 15.9707 58.1696Z" fill="#EBF2FF"/>
<path d="M8.97328 107.941C9.85976 108.447 10.7462 108.922 11.6486 109.412C12.4242 109.839 13.3107 110.535 14.2447 110.282C15.9385 109.808 16.0809 107.356 16.2392 105.964C16.6983 101.789 15.7643 97.4398 13.6273 93.8022C11.4903 90.1805 8.19761 87.2704 4.3351 85.5939C3.97101 85.4358 3.62275 85.5939 3.41696 85.8312C3.32198 85.9102 3.24283 86.0368 3.19534 86.1949C2.65712 88.504 2.24554 90.8447 2.00809 93.2012C1.78647 95.2731 1.65983 97.3924 1.99226 99.4642C2.30886 101.394 3.11619 103.165 4.44591 104.604C5.72814 105.996 7.34279 107.024 8.97328 107.941Z" fill="#EBF2FF"/>
<path d="M77.5169 65.9361C78.2767 66.458 78.9099 67.0907 79.4482 67.7866C79.3215 72.721 79.1949 77.6555 79.0682 82.59C78.9416 87.4454 78.8466 92.3007 79.0524 97.1403C79.179 100.019 79.4165 102.897 79.8281 105.744C79.7331 105.728 79.6381 105.728 79.5431 105.744C68.9529 107.531 57.9985 106.993 47.6299 104.194C44.7172 103.403 41.8678 102.439 39.0659 101.316C38.2744 100.999 37.9103 102.138 38.5118 102.597C38.6859 108.116 39.1608 113.62 39.9365 119.077C40.1265 120.453 40.3481 121.828 40.5855 123.204C40.7597 124.264 41.0129 125.308 41.8836 126.004C42.7542 126.7 43.9257 126.858 45.0021 127.048C46.3635 127.285 47.7249 127.506 49.0862 127.712C54.5159 128.487 59.9931 128.898 65.4703 128.898C68.2247 128.898 70.9949 128.803 73.7494 128.613C74.7783 128.534 75.8706 128.518 76.5354 127.617C77.2003 126.731 77.4061 125.419 77.7069 124.375C79.1474 119.298 80.018 114.063 80.3346 108.796C80.4929 109.65 80.6829 110.505 80.8887 111.359C81.3636 113.304 81.791 115.55 82.9149 117.242C84.023 118.903 85.8276 119.598 87.7906 119.314C89.8326 119.013 91.7006 117.938 93.4577 116.894C95.0407 115.961 96.6237 114.885 97.7634 113.415C98.8399 112.039 99.4256 110.425 99.1723 108.686C98.9507 107.231 98.2067 105.791 96.9878 104.937C95.4997 103.894 93.8376 104.21 92.3496 105.064C91.4631 105.57 90.64 106.187 89.5793 106.234C88.6137 106.282 87.6481 105.934 86.8566 105.396C85.0361 104.162 84.2446 101.932 83.7856 99.8606C83.279 97.5832 83.1365 95.2266 83.1365 92.9017C83.1365 87.5719 83.9597 82.242 83.5956 76.9122C83.374 73.67 82.725 70.1114 80.8887 67.3754C80.8887 67.2963 80.8887 67.2014 80.8887 67.1223C80.9045 66.6637 80.5404 66.4264 80.1763 66.4422C79.6223 65.7938 78.9732 65.1928 78.2292 64.7025C77.4694 64.1964 76.757 65.43 77.5169 65.9361Z" fill="#EBF2FF"/>
<path d="M94.8983 75.6619C96.3705 76.8164 98.001 77.6863 99.5998 78.6668C101.309 79.7107 102.734 80.9127 104.096 82.3835C104.634 82.9687 105.188 83.7911 105.948 84.0916C106.818 84.4395 107.483 83.8702 107.831 83.111C108.718 81.2131 109.288 79.0939 109.684 77.0536C109.858 76.1522 110.111 75.14 109.984 74.2226C109.842 73.2737 109.193 72.5462 108.465 71.9768C106.834 70.68 104.745 70.2213 102.972 69.1617C101.119 68.0546 99.6156 66.5046 98.5234 64.6384C98.4601 64.5277 98.3651 64.4328 98.2701 64.3853C98.3017 64.3063 98.3334 64.2114 98.3334 64.1007C98.3334 63.4206 97.7477 62.9303 97.067 63.041C96.1964 63.1834 95.9431 64.2114 95.674 64.9073C94.8508 67.0107 94.0118 69.0984 93.2203 71.2019C92.9196 71.9927 92.7296 72.8309 93.062 73.6533C93.3786 74.4915 94.2018 75.1241 94.8983 75.6619Z" fill="#EBF2FF"/>
<path d="M74.3353 137.88C66.8794 134.891 58.7269 135.208 50.8594 135.666C46.7753 135.904 42.6753 136.188 38.5754 136.093C34.2854 135.983 30.0113 135.445 25.8322 134.496C24.3442 134.164 21.5265 133.025 20.9091 135.239C20.6558 136.141 21.0041 137.137 21.2099 138.023C21.3998 138.814 21.5898 139.604 21.7798 140.411C21.1466 140.458 20.7508 141.376 21.4473 141.724C27.526 144.744 34.238 142.056 40.5066 141.233C47.7884 140.269 55.0069 142.53 62.2887 141.913C66.4045 141.566 70.3936 140.411 74.3353 139.256C75.0477 139.035 74.9527 138.134 74.3353 137.88Z" fill="#EBF2FF"/>
<path d="M25.1513 221.023C25.3096 221.197 25.6103 221.292 25.8478 221.213C28.4122 220.216 30.9767 219.093 33.0979 217.29C35.1241 215.582 36.5647 213.226 37.2295 210.664C38.6226 205.286 36.2322 200.067 32.4647 196.256C30.0586 193.82 27.1775 191.89 24.3281 189.993C23.5683 189.486 22.8559 190.72 23.6157 191.226C23.6157 191.226 23.6157 191.226 23.6316 191.226C23.4258 191.321 23.2675 191.527 23.2833 191.843C23.7107 197.094 23.9482 202.345 24.0115 207.611C24.0432 210.221 24.0115 212.83 23.9482 215.424C23.9165 217.354 23.6791 219.536 25.1513 221.023Z" fill="#EBF2FF"/>
<path d="M95.4056 220.249C95.8964 220.533 96.4504 220.17 96.4821 219.632C97.1311 208.229 96.3713 196.763 94.2342 185.549C94.2026 185.391 94.1392 185.28 94.0601 185.201C94.1076 185.138 94.1551 185.075 94.2184 185.027C94.8041 184.331 93.8068 183.319 93.2053 184.015C89.5011 188.349 86.7625 193.615 85.9868 199.309C85.2744 204.528 86.3509 209.953 89.2636 214.381C90.8308 216.769 92.9203 218.794 95.4056 220.249Z" fill="#EBF2FF"/>
<path d="M47.2977 220.753C47.1711 220.801 47.0603 220.848 46.9653 220.911C46.712 220.927 46.4745 221.085 46.3954 221.418C45.8097 223.901 45.224 226.399 44.29 228.772C43.356 231.144 41.9155 233.2 40.6333 235.383C39.3669 237.518 38.4804 239.827 38.1163 242.294C37.7997 244.413 37.6731 246.896 38.4804 248.921C39.2402 250.835 41.1082 251.847 43.1028 251.103C45.224 250.313 46.1738 248.225 46.7753 246.201C48.2792 241.14 49.4031 235.905 49.7197 230.622C49.8147 229.136 49.8463 227.633 49.783 226.146C49.7355 224.85 49.7672 223.347 49.3714 222.098C49.1023 221.212 48.3108 220.39 47.2977 220.753Z" fill="#EBF2FF"/>
<path d="M81.4589 231.494C80.3191 230.987 78.8944 231.462 77.9446 232.284C76.5833 233.471 75.9342 235.305 75.6968 237.045C75.1586 241.157 76.3933 245.633 78.1188 249.334C79.5751 252.465 82.2346 256.53 86.3187 255.454C88.2658 254.948 89.1523 253.193 89.548 251.358C90.0071 249.254 89.9279 247.072 89.5005 244.953C88.4716 239.955 85.4006 235.732 82.4403 231.699C82.1712 231.367 81.7597 231.335 81.4589 231.494Z" fill="#EBF2FF"/>
<path d="M58.8851 149.252C60.0566 148.556 61.4971 147.908 62.4152 146.864C63.0643 146.12 63.5867 144.966 62.8268 144.112C61.9403 143.115 60.4048 143.685 59.3284 143.97C57.9828 144.333 56.6848 144.792 55.4026 145.33C52.7431 146.468 50.2578 147.971 48.0416 149.821C47.076 150.612 45.8254 151.782 46.3003 153.174C46.6802 154.313 48.1207 154.851 49.0389 154.012C49.118 153.949 49.1655 153.87 49.1972 153.807C49.3871 154.092 49.7512 154.281 50.147 154.076C53.123 152.557 56.0358 150.96 58.8851 149.252Z" fill="#EBF2FF"/>
<path d="M50.7801 267.411C50.7801 267.032 50.4635 266.684 50.0677 266.7C42.9126 266.905 35.7733 267.111 28.6181 267.317C28.5706 267.317 28.5231 267.332 28.4915 267.332C28.444 266.858 27.9533 266.431 27.4625 266.795C23.0776 269.942 17.4896 270.132 12.6615 272.251C8.64067 274.022 4.60402 277.533 4.76232 282.294C4.77815 282.689 5.07892 282.99 5.47467 283.006C13.7221 283.354 21.9854 283.622 30.2328 283.796C34.3327 283.891 38.4327 283.955 42.5327 284.002C44.5906 284.034 46.6326 284.049 48.6905 284.065C49.3712 284.065 50.0836 284.065 50.5901 283.528C51.1758 282.879 51.0334 281.867 51.0175 281.076C50.9384 276.505 50.8592 271.966 50.7801 267.411Z" fill="#EBF2FF"/>
<path d="M117.155 270.304C114.29 269.197 111.187 268.66 108.211 267.948C104.871 267.157 101.626 266.177 98.1588 266.303C94.233 266.445 90.3072 266.604 86.3813 266.825C82.6771 267.031 78.9412 267.458 75.4903 268.897C74.7938 269.197 74.9363 270.21 75.5061 270.32C75.8702 274.685 76.4876 279.035 77.3424 283.352C77.4216 283.732 77.8648 283.937 78.2131 283.843C91.8743 280.379 106.09 281.565 119.957 279.651C121.112 279.493 122.379 279.193 122.98 278.07C123.55 276.994 123.139 275.587 122.632 274.559C121.587 272.392 119.324 271.127 117.155 270.304Z" fill="#EBF2FF"/>
<path d="M192.459 278.355C191.414 278.75 190.369 279.146 189.293 279.51H184.322C186.76 276.663 189.182 273.8 191.556 270.906C192.459 271.871 194.247 270.732 193.456 269.53C193.345 269.356 193.219 269.182 193.108 269.008C193.773 268.186 194.453 267.347 195.118 266.525C195.514 266.019 195.609 265.339 195.118 264.849C194.707 264.437 193.836 264.342 193.44 264.849C192.87 265.56 192.3 266.256 191.746 266.968C189.356 263.473 186.776 260.104 184.116 256.814C186.586 254.031 189.071 251.263 191.556 248.511C191.857 248.179 192.158 247.847 192.459 247.515C193.551 248.669 194.691 249.808 195.862 250.883C196.986 251.911 198.664 250.251 197.54 249.207C196.337 248.1 195.181 246.929 194.058 245.743C195.91 243.719 197.778 241.679 199.661 239.67C200.706 238.547 199.028 236.871 197.983 237.994C196.131 239.986 194.295 241.979 192.459 243.988C189.625 240.793 187.029 237.393 184.496 233.929C187.187 230.734 189.878 227.555 192.601 224.408C196.147 220.296 199.709 216.2 203.302 212.135C204.315 210.996 202.637 209.304 201.624 210.459C201.545 210.554 201.466 210.633 201.387 210.728C201.339 210.743 201.292 210.743 201.244 210.759C199.851 211.17 198.458 211.566 197.049 211.914L151.76 212.04C150.794 211.803 149.829 211.55 148.879 211.281C148.546 210.917 148.103 210.838 147.707 210.949C147.66 210.933 147.628 210.933 147.581 210.917C146.108 210.49 145.491 212.768 146.947 213.211C147.106 213.258 147.248 213.306 147.407 213.337C149.702 216.832 152.061 220.296 154.498 223.696C152.694 225.816 150.889 227.919 149.085 230.038C148.103 231.193 149.765 232.885 150.763 231.715C152.488 229.706 154.198 227.682 155.923 225.673C157.949 228.473 160.023 231.24 162.144 233.961C160.625 235.827 159.105 237.709 157.601 239.591C156.588 240.872 155.575 242.137 154.578 243.418C154.023 242.723 153.454 242.042 152.9 241.347C152.488 240.84 151.649 240.935 151.222 241.347C150.731 241.837 150.826 242.533 151.222 243.023C151.839 243.798 152.472 244.557 153.09 245.332C152.646 245.901 152.187 246.487 151.744 247.056C151.348 247.562 151.253 248.242 151.744 248.732C152.156 249.144 153.026 249.239 153.422 248.732C153.818 248.226 154.213 247.704 154.609 247.198C157.253 250.456 159.896 253.714 162.54 256.972C159.722 260.499 156.936 264.042 154.15 267.616C153.754 268.122 153.659 268.802 154.15 269.293C154.562 269.704 155.432 269.799 155.828 269.293C158.551 265.798 161.289 262.318 164.06 258.854C166.482 261.844 168.92 264.833 171.341 267.822C170.819 268.439 170.297 269.04 169.774 269.657C167.178 272.693 164.614 275.761 162.049 278.83C161.859 279.051 161.78 279.304 161.764 279.541H160.166C159.58 279.225 158.994 278.893 158.408 278.513C157.11 277.691 155.923 279.747 157.205 280.569C165.437 285.82 175.711 285.741 184.876 283.337C187.662 282.609 190.401 281.676 193.092 280.633C193.693 280.411 194.105 279.826 193.915 279.177C193.757 278.608 193.06 278.118 192.459 278.355ZM189.958 215.804C192.839 215.33 195.688 214.713 198.522 213.986C193.313 219.916 188.153 225.911 183.072 231.952C180.665 228.631 178.307 225.294 175.806 222.052C175.695 221.909 175.6 221.783 175.489 221.656C176.834 220.09 178.196 218.525 179.541 216.959C183.024 216.753 186.507 216.374 189.958 215.804ZM181.489 233.803C178.702 237.108 175.948 240.445 173.194 243.782C170.471 240.54 167.78 237.282 165.152 233.961C168.033 230.434 170.962 226.939 173.906 223.459C176.518 226.859 178.987 230.355 181.489 233.803ZM174.761 245.633C177.468 242.327 180.19 239.053 182.929 235.779C184.908 238.468 186.918 241.125 189.071 243.687C189.657 244.383 190.242 245.063 190.844 245.743C188.074 248.796 185.319 251.848 182.581 254.932C180.46 252.354 178.307 249.808 176.138 247.277C175.679 246.724 175.22 246.17 174.761 245.633ZM174.001 219.742C173.273 218.841 172.545 217.955 171.801 217.07C173.304 217.101 174.792 217.101 176.296 217.07C175.521 217.955 174.761 218.841 174.001 219.742ZM156.05 221.83C154.277 219.331 152.535 216.801 150.842 214.254C154.15 215.077 157.49 215.725 160.862 216.184C159.263 218.066 157.649 219.948 156.05 221.83ZM163.68 216.532C165.294 216.706 166.925 216.848 168.54 216.943C169.885 218.446 171.183 219.996 172.434 221.577C169.474 225.041 166.545 228.552 163.664 232.079C161.859 229.77 160.086 227.429 158.361 225.057C158.06 224.645 157.775 224.234 157.474 223.839C159.532 221.387 161.606 218.952 163.68 216.532ZM182.517 258.586C185.193 261.923 187.773 265.323 190.163 268.866C187.678 271.918 185.145 274.923 182.581 277.912C179.858 274.559 177.151 271.222 174.428 267.869C177.104 264.754 179.795 261.654 182.517 258.586ZM176.185 273.784C177.737 275.698 179.288 277.612 180.855 279.525L164.55 279.541C167.305 276.236 170.075 272.962 172.877 269.688C173.969 271.048 175.077 272.408 176.185 273.784ZM163.616 235.859C163.727 236.001 163.838 236.143 163.949 236.27C166.466 239.449 169.078 242.549 171.69 245.648C169.189 248.701 166.703 251.769 164.25 254.837C164.186 254.916 164.123 254.995 164.06 255.09C162.714 253.446 161.369 251.785 160.039 250.14C158.725 248.527 157.411 246.914 156.113 245.3C158.567 242.122 161.084 238.974 163.616 235.859ZM173.241 247.483C175.853 250.551 178.449 253.604 180.998 256.719C178.275 259.803 175.584 262.887 172.909 266.003C170.455 262.998 168.017 259.977 165.564 256.972C168.112 253.793 170.661 250.63 173.241 247.483Z" fill="#EBF2FF"/>
<path d="M20.2915 291.893C18.0753 290.802 15.5584 290.597 13.2314 291.419C11.8067 291.925 12.424 294.218 13.8646 293.712C15.59 293.095 17.4422 293.127 19.0885 293.949C20.4657 294.614 21.6688 292.573 20.2915 291.893Z" fill="#EBF2FF"/>
<path d="M41.2509 291.877C39.0347 291.229 36.7552 291.166 34.5074 291.624C33.0035 291.925 33.6367 294.218 35.1405 293.918C36.9768 293.554 38.8289 293.649 40.6177 294.171C42.0899 294.582 42.7231 292.304 41.2509 291.877Z" fill="#EBF2FF"/>
<path d="M59.7722 287.432C58.11 287.337 56.4637 287.448 54.8016 287.717C54.1684 287.811 53.8201 288.602 53.9784 289.172C54.1684 289.852 54.8016 290.105 55.4348 289.994C56.8753 289.773 58.3158 289.725 59.7722 289.804C61.2919 289.883 61.2919 287.511 59.7722 287.432Z" fill="#EBF2FF"/>
<path d="M81.5848 291.498C79.986 291.071 78.3396 290.834 76.6775 290.834C75.0153 290.834 73.3848 291.261 71.7385 291.292C70.203 291.324 68.7308 290.691 67.1953 290.533C65.5807 290.375 63.9344 290.596 62.383 291.071C60.9267 291.529 61.544 293.823 63.0162 293.364C64.4567 292.905 65.9764 292.731 67.4803 292.937C68.9208 293.127 70.2663 293.68 71.7385 293.665C73.2424 293.633 74.7304 293.253 76.2342 293.222C77.8331 293.19 79.4161 293.396 80.9516 293.807C82.4238 294.186 83.057 291.893 81.5848 291.498Z" fill="#EBF2FF"/>
<path d="M171.658 293.112C170.027 292.701 168.381 292.432 166.703 292.321C164.993 292.194 163.268 292.384 161.558 292.226C158.503 291.957 155.353 290.407 152.519 292.368C151.269 293.222 152.456 295.294 153.722 294.424C156.081 292.795 159.31 294.472 161.875 294.63C163.394 294.725 164.914 294.583 166.434 294.677C168.001 294.772 169.536 295.025 171.056 295.405C172.497 295.769 173.13 293.476 171.658 293.112Z" fill="#EBF2FF"/>
<path d="M192.427 294.551C190.559 294.139 188.643 293.95 186.728 294.013C185.208 294.06 185.192 296.433 186.728 296.385C188.437 296.322 190.115 296.464 191.793 296.828C193.297 297.16 193.93 294.883 192.427 294.551Z" fill="#EBF2FF"/>
<path d="M201.275 291.261C199.487 290.359 197.54 289.916 195.545 290.075C194.025 290.185 194.025 292.558 195.545 292.447C197.128 292.32 198.664 292.589 200.088 293.317C201.434 293.997 202.637 291.957 201.275 291.261Z" fill="#EBF2FF"/>
<path d="M209.571 295.688C206.041 294.913 202.463 294.819 198.901 295.325C198.268 295.42 197.92 296.226 198.078 296.78C198.268 297.46 198.901 297.697 199.534 297.602C202.669 297.159 205.866 297.286 208.937 297.966C210.425 298.298 211.074 296.021 209.571 295.688Z" fill="#EBF2FF"/>
<path d="M202.053 207.202C194.644 207.47 187.236 207.755 179.812 208.008C176.155 208.135 172.482 208.198 168.81 207.961C165.185 207.739 161.655 207.059 158.093 206.363C154.151 205.588 150.146 204.908 146.125 205.351C145.492 205.414 144.938 205.841 144.938 206.537C144.938 206.569 144.938 206.616 144.938 206.648C144.843 206.806 144.796 206.996 144.812 207.202C145.017 208.91 146.189 209.938 147.724 210.57C149.434 211.282 151.318 211.646 153.107 212.041C157.048 212.943 161.053 213.559 165.09 213.923C173.147 214.651 181.284 214.287 189.246 212.879C193.695 212.089 198.079 210.966 202.354 209.526C203.588 209.131 203.462 207.154 202.053 207.202Z" fill="#E0FFEC"/>
<path d="M158.013 176.898C158.947 177.009 159.929 176.677 160.831 176.503C161.797 176.313 162.747 176.107 163.712 175.886C167.591 175.032 171.437 174.036 175.252 172.944C175.838 172.77 176.297 172.09 176.075 171.489C174.983 168.5 174.461 165.432 174.429 162.253C174.397 159.422 174.445 156.465 172.925 153.95C172.276 152.89 170.82 153.412 170.709 154.551C170.472 157.097 170.234 159.628 169.997 162.174C169.823 163.977 169.743 165.986 168.762 167.567C167.654 169.354 165.184 169.497 163.332 169.987C160.91 170.619 158.52 171.347 156.146 172.169C155.275 172.47 155.164 173.45 155.544 174.051C155.829 175.364 156.525 176.74 158.013 176.898Z" fill="#E0FFEC"/>
<path d="M203.018 177.294C202.385 177.215 201.942 177.579 201.72 178.148C200.755 180.584 198.317 181.96 195.768 181.896C192.681 181.817 189.99 180.046 187.537 178.322C186.302 177.452 185.13 179.429 186.286 180.331C186.096 180.52 185.985 180.789 185.985 181.121C185.969 182.814 186.049 184.617 186.967 186.087C187.742 187.321 188.945 188.175 190.228 188.824C191.51 189.472 192.855 189.946 194.074 190.706C195.452 191.575 196.639 192.73 197.541 194.074C198.222 195.102 199.631 194.644 199.757 193.473C200.311 188.238 203.572 183.731 204.063 178.448C204.095 177.879 203.556 177.357 203.018 177.294Z" fill="#E0FFEC"/>
<path d="M189.436 117.654C191.351 118.429 193.425 118.871 195.372 119.504C199.503 120.848 203.588 122.367 207.577 124.059C208.226 124.344 209.144 124.185 209.318 123.347C210.949 115.661 213.703 108.259 217.518 101.379C218.151 100.241 216.568 98.8963 215.65 99.9401C212.547 103.467 210.141 107.405 208.242 111.675C207.608 113.083 206.738 115.234 204.901 115.234C203.651 115.234 202.337 114.807 201.118 114.57C199.836 114.317 198.554 114.063 197.271 113.81C194.295 113.225 191.319 112.64 188.359 112.055C187.536 111.897 186.966 112.514 186.887 113.162C186.839 113.257 186.808 113.352 186.776 113.462C186.349 115.439 187.694 116.942 189.436 117.654Z" fill="#E0FFEC"/>
<path d="M237.512 272.22C235.533 271.065 233.839 269.547 232.431 267.744C231.956 267.143 230.895 267.38 230.563 267.981C228.536 271.65 225.149 274.529 221.175 275.889C216.189 277.581 210.918 276.537 205.915 275.509C204.427 275.209 203.778 277.486 205.282 277.803C205.472 277.85 205.678 277.882 205.868 277.929C205.947 278.119 206.089 278.309 206.295 278.451C207.577 279.368 208.876 280.286 210.158 281.203C211.234 281.978 212.374 283.037 213.735 283.259C215.065 283.48 216.221 282.769 217.345 282.136C218.611 281.44 219.893 280.76 221.207 280.127C226.336 277.629 231.718 275.731 237.259 274.386C238.24 274.149 238.383 272.726 237.512 272.22Z" fill="#E0FFEC"/>
<path d="M126.132 41.3583C122.665 38.9859 118.486 37.4993 114.465 36.3922C113.99 36.2657 113.357 36.4713 113.12 36.9299C111.03 41.042 108.671 45.0275 105.632 48.5069C104.635 49.6457 106.297 51.3379 107.31 50.1834C107.468 50.0094 107.627 49.8196 107.769 49.6457C107.326 50.8635 106.629 51.9705 105.648 52.872C105.3 53.1884 104.92 53.4414 104.556 53.7261C104.065 54.1057 103.986 54.4694 103.97 55.0546C103.954 56.225 104.033 57.3953 104.065 58.5657C104.096 59.562 103.986 60.685 104.255 61.6655C104.508 62.6303 105.284 63.1996 106.123 63.6425C108.038 64.6389 110.033 65.4771 112.075 66.173C112.581 66.3469 113.135 66.0464 113.42 65.6352C114.718 63.6583 115.478 61.4283 116.539 59.3406C117.52 57.3953 118.739 55.5923 119.99 53.8052C122.491 50.2625 125.135 46.8147 126.654 42.7026C126.86 42.1965 126.543 41.643 126.132 41.3583Z" fill="#E0FFEC"/>
<path d="M67.2756 14.5186C67.4339 17.4444 67.5922 20.3703 67.7663 23.2962C67.9879 27.2817 68.1463 31.5203 66.1675 34.9998C65.6768 35.8538 65.0594 36.6446 64.2521 37.1823C62.3525 38.4476 59.8039 38.0838 57.6826 37.2772C55.9413 36.613 54.3109 35.664 52.8545 34.4937" stroke="#002464" stroke-width="0.949799" stroke-miterlimit="10" stroke-linecap="round" stroke-linejoin="round"/>
<path d="M54.6436 20.3877C55.8783 19.8812 57.2239 19.6754 58.5536 19.802" stroke="#002464" stroke-width="0.949799" stroke-miterlimit="10" stroke-linecap="round" stroke-linejoin="round"/>
<path d="M57.2713 23.9149C57.303 23.4878 57.2872 23.0608 57.208 22.6338" stroke="#002464" stroke-width="0.949799" stroke-miterlimit="10" stroke-linecap="round" stroke-linejoin="round"/>
<path d="M65.9619 18.4896C64.838 18.3473 63.6824 18.6161 62.7167 19.2013C62.6218 19.2646 62.511 19.3278 62.4476 19.4227C62.3527 19.5651 62.321 19.739 62.2893 19.8972C62.131 21.1783 62.2577 22.5068 62.6534 23.7246C62.8909 24.4521 63.2391 25.2271 63.0175 25.9704C62.8117 26.6821 62.131 27.1566 61.5137 27.5678" stroke="#002464" stroke-width="0.949799" stroke-miterlimit="10" stroke-linecap="round" stroke-linejoin="round"/>
<path d="M64.4268 21.9219C64.4742 22.0802 64.5376 22.5867 64.5059 22.9983" stroke="#002464" stroke-width="0.949799" stroke-miterlimit="10" stroke-linecap="round" stroke-linejoin="round"/>
<path d="M60.5 30.7313C61.2282 30.5889 61.9564 30.4306 62.6687 30.2881" stroke="#002464" stroke-width="0.949799" stroke-miterlimit="10" stroke-linecap="round" stroke-linejoin="round"/>
<path d="M49.3243 21.8416C47.8046 21.0192 45.6992 21.9523 45.0977 23.5655C44.4961 25.1787 45.3351 27.1399 46.8231 28.0097C47.1714 28.2153 47.5672 28.3893 47.8046 28.7214C48.0104 29.0219 48.042 29.4173 48.0579 29.7969C48.3428 35.1584 48.3587 40.5199 48.1212 45.8813" stroke="#002464" stroke-width="0.949799" stroke-miterlimit="10" stroke-linecap="round" stroke-linejoin="round"/>
<path d="M46.6182 24.3887C47.0614 24.7366 47.4413 25.1636 47.7421 25.6223" stroke="#002464" stroke-width="0.949799" stroke-miterlimit="10" stroke-linecap="round" stroke-linejoin="round"/>
<path d="M50.2427 22.7434C50.2268 22.9332 50.211 23.1388 50.2743 23.3128C50.3376 23.4868 50.5276 23.6291 50.7176 23.5975C50.86 23.5659 50.955 23.4393 51.0342 23.3286C51.4774 22.6486 51.6357 21.842 51.7307 21.0354C51.9206 19.5171 51.9206 17.983 51.7307 16.4805" stroke="#002464" stroke-width="0.949799" stroke-miterlimit="10" stroke-linecap="round" stroke-linejoin="round"/>
<path d="M53.1084 16.2907C58.5064 16.7494 64.0469 15.2944 68.511 12.2261C69.7299 11.4037 70.8855 10.4232 71.582 9.12627C72.2468 7.90847 72.3893 6.26365 71.4712 5.21982C70.7272 4.34996 69.4608 4.12855 68.321 4.23925C66.0415 4.46067 63.9361 5.93152 62.923 7.98755C62.7172 8.39876 62.638 9.0472 63.0813 9.20535C63.5245 9.36351 63.8728 8.82578 64.0153 8.38294" stroke="#002464" stroke-width="0.949799" stroke-miterlimit="10" stroke-linecap="round" stroke-linejoin="round"/>
<path d="M62.8119 4.53997C62.7802 2.94259 61.498 1.53501 59.9625 1.13962C58.427 0.744226 56.7332 1.2187 55.4668 2.18345C54.2004 3.1482 53.3297 4.53997 52.7282 6.02664C52.1741 7.40259 51.8259 8.90508 52.0792 10.3759C52.1108 10.5499 52.1425 10.7397 52.2691 10.8662C52.5382 11.1351 53.0131 10.9927 53.2664 10.7397C53.7255 10.281 53.8205 9.52189 53.6147 8.90508C53.3931 8.28827 52.9023 7.79798 52.3483 7.45004C50.9236 6.58018 49.0398 6.61182 47.5201 7.35515C46.0163 8.09848 44.8607 9.44281 44.1483 10.9611C43.0244 13.3176 42.8978 16.117 43.7843 18.5684" stroke="#002464" stroke-width="0.949799" stroke-miterlimit="10" stroke-linecap="round" stroke-linejoin="round"/>
<path d="M44.0537 19.8652C44.117 20.2448 44.1962 20.6244 44.2595 20.9881" stroke="#002464" stroke-width="0.949799" stroke-miterlimit="10" stroke-linecap="round" stroke-linejoin="round"/>
<path d="M65.06 36.5508C64.9809 40.1251 65.3608 43.7153 66.184 47.1947" stroke="#002464" stroke-width="0.949799" stroke-miterlimit="10" stroke-linecap="round" stroke-linejoin="round"/>
<path d="M53.3135 34.7959C54.2949 36.3616 55.1973 37.9748 56.7486 38.987C58.2999 39.9992 60.1995 40.5528 62.02 40.2523C62.7323 40.1416 63.4447 39.8727 63.9512 39.3666C64.4578 38.8605 64.7111 38.0539 64.442 37.3897C62.8273 38.3702 60.7852 38.4493 58.9648 37.9907C57.1285 37.532 55.4664 36.5989 53.8359 35.6183" fill="#002464"/>
<path d="M53.3135 34.7959C54.2949 36.3616 55.1973 37.9748 56.7486 38.987C58.2999 39.9992 60.1995 40.5528 62.02 40.2523C62.7323 40.1416 63.4447 39.8727 63.9512 39.3666C64.4578 38.8605 64.7111 38.0539 64.442 37.3897C62.8273 38.3702 60.7852 38.4493 58.9648 37.9907C57.1285 37.532 55.4664 36.5989 53.8359 35.6183" stroke="#002464" stroke-width="0.949799" stroke-miterlimit="10" stroke-linecap="round" stroke-linejoin="round"/>
<path d="M61.4343 43.9844C61.2602 44.5221 61.1019 45.0598 60.9277 45.5976" stroke="#002464" stroke-width="0.949799" stroke-miterlimit="10" stroke-linecap="round" stroke-linejoin="round"/>
<path d="M47.8206 32.7391C45.0978 32.6442 42.3593 33.435 40.1114 34.9533C37.8635 36.4874 36.1064 38.7332 35.2041 41.2953" stroke="#002464" stroke-width="0.949799" stroke-miterlimit="10" stroke-linecap="round" stroke-linejoin="round"/>
<path d="M37.642 36.8991C36.3756 36.7726 35.1567 37.3578 34.096 38.0695C31.864 39.572 30.0119 41.8652 29.6953 44.5223" stroke="#002464" stroke-width="0.949799" stroke-miterlimit="10" stroke-linecap="round" stroke-linejoin="round"/>
<path d="M65.8828 37.0879C67.4816 37.167 68.9855 37.9894 70.0619 39.1597C71.1384 40.3301 71.8349 41.8168 72.2306 43.3667C72.658 45.059 72.7214 46.9252 71.9299 48.4751C70.7743 50.7684 68.0515 51.8913 66.7535 54.1055" stroke="#002464" stroke-width="0.949799" stroke-miterlimit="10" stroke-linecap="round" stroke-linejoin="round"/>
<path d="M48.0417 36.6777C46.7279 37.168 45.4298 37.8639 44.5433 38.9552C43.6568 40.0465 43.2294 41.5964 43.7676 42.9091C44.3692 44.3641 45.9205 45.1391 47.4085 45.661C50.1788 46.6416 53.1073 47.116 55.9251 47.9701C58.7428 48.8083 61.5447 50.0735 63.5076 52.2561" stroke="#002464" stroke-width="0.949799" stroke-miterlimit="10" stroke-linecap="round" stroke-linejoin="round"/>
<path d="M65.3609 40.0468C65.8991 39.8412 66.5323 40.0468 66.9597 40.4422C67.3713 40.8376 67.6088 41.3911 67.7671 41.9447C68.0204 42.862 68.0837 43.8742 67.8146 44.7915C67.1181 47.0847 64.5061 48.4765 64.1104 50.833" stroke="#002464" stroke-width="0.949799" stroke-miterlimit="10" stroke-linecap="round" stroke-linejoin="round"/>
<path d="M48.2324 50.1211C51.5251 52.4776 55.9891 52.4302 59.5825 54.3122" stroke="#002464" stroke-width="0.949799" stroke-miterlimit="10" stroke-linecap="round" stroke-linejoin="round"/>
<path d="M61.5133 55.5771C59.5979 58.8035 58.8697 62.71 59.5029 66.4108C59.9778 69.2418 61.2284 72.1203 60.3894 74.8722C59.7246 77.0389 57.8249 78.8419 57.8883 81.1035C57.9832 84.2034 61.7824 86.639 61.0226 89.6439" stroke="#002464" stroke-width="0.949799" stroke-miterlimit="10" stroke-linecap="round" stroke-linejoin="round"/>
<path d="M61.2139 91.6211C61.2139 91.8427 61.2139 92.0643 61.2139 92.2701" stroke="#002464" stroke-width="0.949799" stroke-miterlimit="10" stroke-linecap="round" stroke-linejoin="round"/>
<path d="M65.2655 56.2266C64.5215 59.2473 64.8223 62.5054 66.1045 65.3522C66.9118 67.1393 68.0991 68.8 68.3524 70.7453C68.9222 74.9522 64.9648 78.9378 65.9146 83.0815" stroke="#002464" stroke-width="0.949799" stroke-miterlimit="10" stroke-linecap="round" stroke-linejoin="round"/>
<path d="M66.4531 84.5664C66.2948 84.7405 66.2315 84.9938 66.2948 85.2154" stroke="#002464" stroke-width="0.949799" stroke-miterlimit="10" stroke-linecap="round" stroke-linejoin="round"/>
<path d="M44.7182 48.5385C41.4255 46.9095 37.9904 45.4387 34.3495 44.8851C30.7086 44.3316 26.7986 44.8219 23.7593 46.8779C21.6697 48.2855 20.1026 50.3099 18.6779 52.3975C12.1559 61.9185 8.02426 72.8471 4.01928 83.6808C2.64207 87.4133 1.24904 91.2248 1.02742 95.2104C0.805796 99.1959 1.91389 103.434 4.85827 106.123C7.8343 108.843 12.1401 109.555 15.5752 111.674C17.823 113.05 19.6593 115.012 21.7963 116.577C27.0044 120.389 33.6214 121.654 40.0483 122.239" stroke="#002464" stroke-width="0.949799" stroke-miterlimit="10" stroke-linecap="round" stroke-linejoin="round"/>
<path d="M37.6577 100.54C35.4415 96.8396 32.2281 93.7555 28.4289 91.7153C27.3999 91.1618 25.7536 90.8929 25.3737 92C25.0096 93.0596 26.5926 93.9137 27.574 93.3918C28.5555 92.8698 28.9829 91.6995 29.3153 90.6398C31.7057 82.906 34.096 75.1089 34.745 67.043" stroke="#002464" stroke-width="0.949799" stroke-miterlimit="10" stroke-linecap="round" stroke-linejoin="round"/>
<path d="M30.0439 64.9873C30.0598 67.5178 30.5663 70.0641 31.532 72.4048" stroke="#002464" stroke-width="0.949799" stroke-miterlimit="10" stroke-linecap="round" stroke-linejoin="round"/>
<path d="M32.6396 98.1211C33.8427 98.6905 34.8242 99.7027 35.3466 100.936" stroke="#002464" stroke-width="0.949799" stroke-miterlimit="10" stroke-linecap="round" stroke-linejoin="round"/>
<path d="M7.20117 104.146C8.02433 105.285 9.3857 105.886 10.7471 106.218C12.1085 106.55 13.5173 106.677 14.8471 107.136C16.7308 107.784 18.393 109.081 19.4536 110.773" stroke="#002464" stroke-width="0.949799" stroke-miterlimit="10" stroke-linecap="round" stroke-linejoin="round"/>
<path d="M19.5488 107.958C20.0396 108.464 20.4353 109.049 20.7519 109.682" stroke="#002464" stroke-width="0.949799" stroke-miterlimit="10" stroke-linecap="round" stroke-linejoin="round"/>
<path d="M42.5811 35.8396C43.3726 35.0647 44.4173 34.5744 45.5096 34.4795" stroke="#002464" stroke-width="0.949799" stroke-miterlimit="10" stroke-linecap="round" stroke-linejoin="round"/>
<path d="M77.9616 65.6201C78.9905 70.1434 79.3863 74.809 79.1488 79.4588C78.8639 84.7254 77.7558 89.992 78.2782 95.2427C78.6581 99.0069 79.877 102.66 80.2569 106.424C81.2226 116.277 76.3311 125.783 75.9512 135.667" stroke="#002464" stroke-width="0.949799" stroke-miterlimit="10" stroke-linecap="round" stroke-linejoin="round"/>
<path d="M18.1075 113.446C16.5087 120.326 17.3477 127.728 20.4662 134.07C31.009 135.335 41.6309 136.6 52.2212 135.904C55.0072 135.715 57.7933 135.398 60.5794 135.636C65.4709 136.047 70.3465 138.182 75.1588 137.138" stroke="#002464" stroke-width="0.949799" stroke-miterlimit="10" stroke-linecap="round" stroke-linejoin="round"/>
<path d="M38.3065 97.9941C37.8 107.278 38.8764 116.657 41.4409 125.592" stroke="#002464" stroke-width="0.949799" stroke-miterlimit="10" stroke-linecap="round" stroke-linejoin="round"/>
<path d="M38.5283 98.3574C51.4772 101.378 64.8219 102.707 78.1033 102.264" stroke="#002464" stroke-width="0.949799" stroke-miterlimit="10" stroke-linecap="round" stroke-linejoin="round"/>
<path d="M41.8691 125.846C53.0293 128.566 64.6327 129.483 76.0777 128.519" stroke="#002464" stroke-width="0.949799" stroke-miterlimit="10" stroke-linecap="round" stroke-linejoin="round"/>
<path d="M44.0371 105.76C49.2293 108.622 54.8332 110.694 60.6428 111.912" stroke="#002464" stroke-width="0.949799" stroke-miterlimit="10" stroke-linecap="round" stroke-linejoin="round"/>
<path d="M53.8047 113.668C54.5487 113.842 55.2769 114.016 56.0209 114.206" stroke="#002464" stroke-width="0.949799" stroke-miterlimit="10" stroke-linecap="round" stroke-linejoin="round"/>
<path d="M65.9619 126.494C67.6399 126.953 69.4129 127.001 71.1067 126.668" stroke="#002464" stroke-width="0.949799" stroke-miterlimit="10" stroke-linecap="round" stroke-linejoin="round"/>
<path d="M72.4521 49.4087C75.539 49.2031 78.6892 50.2786 80.9845 52.3188C84.0555 55.0549 85.4486 59.1669 86.5092 63.1366C88.6779 71.2817 89.9285 79.664 90.2451 88.0779C90.3717 91.3517 90.2134 94.9735 87.9339 97.3142C86.4142 94.5464 87.0316 91.1461 87.7914 88.0937C89.8018 80.0593 92.6037 72.2148 96.1338 64.7182" stroke="#002464" stroke-width="0.949799" stroke-miterlimit="10" stroke-linecap="round" stroke-linejoin="round"/>
<path d="M97.7803 63.8643C98.8884 65.3984 100.028 66.9641 101.564 68.0396C104.286 69.9533 108.181 70.3328 110.08 73.0689" stroke="#002464" stroke-width="0.949799" stroke-miterlimit="10" stroke-linecap="round" stroke-linejoin="round"/>
<path d="M110.128 75.3789C109.432 80.4241 107.801 85.3427 105.332 89.8027C104.556 91.2103 103.685 92.6021 103.321 94.1678C103.084 95.2275 103.084 96.3029 103.02 97.3942C102.641 104.068 99.712 110.584 94.963 115.297C93.5383 116.705 91.9236 117.986 90.024 118.635C88.1244 119.283 85.9241 119.22 84.2461 118.113" stroke="#002464" stroke-width="0.949799" stroke-miterlimit="10" stroke-linecap="round" stroke-linejoin="round"/>
<path d="M97.8757 107.342C96.5934 110.568 94.1081 113.32 91.0371 114.933" stroke="#002464" stroke-width="0.949799" stroke-miterlimit="10" stroke-linecap="round" stroke-linejoin="round"/>
<path d="M97.6061 62.2508C97.7961 60.3845 97.7961 58.4866 97.5903 56.6046C97.527 56.0036 97.4478 55.371 97.7169 54.8174C97.9861 54.2481 98.5559 53.9001 99.11 53.5996C101.358 52.3344 103.685 51.2431 106.091 50.3258C106.439 50.1993 106.867 50.0727 107.152 50.3258C107.547 50.6737 107.247 51.3064 106.898 51.7017C105.964 52.7614 104.84 53.6629 103.59 54.3113C103.447 54.3904 103.289 54.4695 103.21 54.6276C103.147 54.7858 103.194 54.9598 103.242 55.1337C104.081 58.1071 103.97 61.3334 102.925 64.2277" stroke="#002464" stroke-width="0.949799" stroke-miterlimit="10" stroke-linecap="round" stroke-linejoin="round"/>
<path d="M122.633 51.2745C123.139 51.0689 123.694 50.9582 124.248 50.9424C124.754 50.9424 125.371 51.1005 125.498 51.5908C125.641 52.0969 125.166 52.5556 124.722 52.8561C123.44 53.7576 122.047 54.5009 120.591 55.0703" stroke="#002464" stroke-width="0.949799" stroke-miterlimit="10" stroke-linecap="round" stroke-linejoin="round"/>
<path d="M119.404 58.0913C121.81 56.6205 124.28 55.2287 126.781 53.916" stroke="#002464" stroke-width="0.949799" stroke-miterlimit="10" stroke-linecap="round" stroke-linejoin="round"/>
<path d="M117.932 60.9073C120.148 59.6895 122.364 58.4717 124.58 57.2539" stroke="#002464" stroke-width="0.949799" stroke-miterlimit="10" stroke-linecap="round" stroke-linejoin="round"/>
<path d="M116.966 64.0064C118.501 62.8677 120.195 61.9504 121.984 61.2861" stroke="#002464" stroke-width="0.949799" stroke-miterlimit="10" stroke-linecap="round" stroke-linejoin="round"/>
<path d="M113.041 67.2959C112.534 68.9882 111.774 70.6014 110.793 72.0564" stroke="#002464" stroke-width="0.949799" stroke-miterlimit="10" stroke-linecap="round" stroke-linejoin="round"/>
<path d="M31.1201 129.673C33.083 131.745 35.5525 133.326 38.2436 134.244" stroke="#002464" stroke-width="0.949799" stroke-miterlimit="10" stroke-linecap="round" stroke-linejoin="round"/>
<path d="M37.8643 130.495C38.8774 131.539 40.1596 132.33 41.5368 132.741" stroke="#002464" stroke-width="0.949799" stroke-miterlimit="10" stroke-linecap="round" stroke-linejoin="round"/>
<path d="M70.8067 132.14C69.9994 132.598 69.3029 133.231 68.7646 133.974" stroke="#002464" stroke-width="0.949799" stroke-miterlimit="10" stroke-linecap="round" stroke-linejoin="round"/>
<path d="M20.9414 135.809C23.1259 150.422 21.9387 165.305 22.2078 180.092C22.4769 195.18 24.2815 210.221 24.4082 225.309C24.519 236.76 23.7116 248.479 27.1784 259.392" stroke="#002464" stroke-width="0.949799" stroke-miterlimit="10" stroke-linecap="round" stroke-linejoin="round"/>
<path d="M22.54 259.994C32.3388 258.966 42.2009 258.507 52.0471 258.618C52.3954 258.618 52.7753 258.634 53.0286 258.855C53.3135 259.092 53.3294 259.488 53.3294 259.851C53.3294 261.686 53.3294 263.505 53.3294 265.339C53.3294 265.671 53.3135 266.067 53.0286 266.272C52.8386 266.415 52.5695 266.446 52.3004 266.462C43.0874 267.19 33.8268 267.316 24.5979 266.858C24.2022 266.842 23.759 266.794 23.474 266.541C23.1891 266.288 23.1574 265.893 23.1258 265.529C23.0466 264.296 22.9516 263.062 22.8725 261.828" stroke="#002464" stroke-width="0.949799" stroke-miterlimit="10" stroke-linecap="round" stroke-linejoin="round"/>
<path d="M48.5645 153.412C52.6961 151.404 56.8277 149.411 60.9593 147.402" stroke="#002464" stroke-width="0.949799" stroke-miterlimit="10" stroke-linecap="round" stroke-linejoin="round"/>
<path d="M55.0234 152.32C57.4454 159.248 59.8674 166.159 62.2894 173.086C64.0149 178.021 65.7562 183.003 66.5318 188.174C67.2442 192.935 67.1492 197.774 67.7033 202.551C68.2098 206.884 69.2546 211.123 69.8878 215.425C71.8665 228.915 69.7928 243.197 74.8584 255.865" stroke="#002464" stroke-width="0.949799" stroke-miterlimit="10" stroke-linecap="round" stroke-linejoin="round"/>
<path d="M72.4209 259.503C72.8641 261.923 73.2915 264.327 73.7348 266.747C73.8139 267.158 73.8931 267.601 74.2097 267.885C74.6371 268.281 75.3178 268.202 75.9035 268.107C83.8027 266.763 91.8443 266.177 99.8543 266.383C100.266 266.399 100.741 266.367 100.962 266.035C101.121 265.798 101.089 265.481 101.041 265.197C100.709 263.078 100.392 260.942 100.06 258.823C100.028 258.618 99.9967 258.396 99.8384 258.254C99.6643 258.08 99.411 258.048 99.1736 258.048C90.6887 257.495 82.1405 258.064 73.7981 259.709" stroke="#002464" stroke-width="0.949799" stroke-miterlimit="10" stroke-linecap="round" stroke-linejoin="round"/>
<path d="M76.6152 138.751C80.4461 148.114 84.2611 157.477 87.997 166.871C91.3688 175.364 94.6772 183.999 95.8645 193.062C97.1626 202.962 95.8803 213.068 97.1151 222.969C97.5108 226.101 98.144 229.2 98.2706 232.364C98.4131 235.89 97.8749 239.417 97.7008 242.944C97.5108 246.677 97.6849 250.441 98.2548 254.142" stroke="#002464" stroke-width="0.949799" stroke-miterlimit="10" stroke-linecap="round" stroke-linejoin="round"/>
<path d="M51.8256 152.765C49.6727 165.085 50.2267 177.706 50.6066 190.216C51.2715 212.358 51.2873 234.531 50.7016 256.673" stroke="#002464" stroke-width="0.949799" stroke-miterlimit="10" stroke-linecap="round" stroke-linejoin="round"/>
<path d="M47.33 222.732C46.4277 230.023 44.0848 237.14 40.4756 243.546" stroke="#002464" stroke-width="0.949799" stroke-miterlimit="10" stroke-linecap="round" stroke-linejoin="round"/>
<path d="M47.9637 237.599C46.3332 241.331 44.7028 245.064 43.0723 248.796" stroke="#002464" stroke-width="0.949799" stroke-miterlimit="10" stroke-linecap="round" stroke-linejoin="round"/>
<path d="M26.3555 207.344C29.4107 208.342 32.8141 208.199 35.7743 206.933" stroke="#002464" stroke-width="0.949799" stroke-miterlimit="10" stroke-linecap="round" stroke-linejoin="round"/>
<path d="M93.7436 198.803C92.1922 201.428 90.4668 203.974 88.583 206.378" stroke="#002464" stroke-width="0.949799" stroke-miterlimit="10" stroke-linecap="round" stroke-linejoin="round"/>
<path d="M80.3038 234.499C79.6231 235.432 79.7181 236.713 79.9239 237.852C80.8262 243.071 83.4223 247.974 87.2215 251.659" stroke="#002464" stroke-width="0.949799" stroke-miterlimit="10" stroke-linecap="round" stroke-linejoin="round"/>
<path d="M80.1299 249.366C81.3171 250.9 82.5044 252.434 83.6916 253.969" stroke="#002464" stroke-width="0.949799" stroke-miterlimit="10" stroke-linecap="round" stroke-linejoin="round"/>
<path d="M76.4258 261.149C82.1721 260.643 87.95 260.469 93.728 260.627" stroke="#002464" stroke-width="0.949799" stroke-miterlimit="10" stroke-linecap="round" stroke-linejoin="round"/>
<path d="M26.3711 263.173C32.1332 263.268 37.8953 263.363 43.6733 263.442" stroke="#002464" stroke-width="0.949799" stroke-miterlimit="10" stroke-linecap="round" stroke-linejoin="round"/>
<path d="M26.4817 268.043C24.1547 269.245 21.7169 270.194 19.1841 270.874C14.7833 272.06 9.81271 272.629 6.71003 275.951C4.85792 277.944 3.95562 280.79 4.31971 283.495" stroke="#002464" stroke-width="0.949799" stroke-miterlimit="10" stroke-linecap="round" stroke-linejoin="round"/>
<path d="M4.33594 283.702C20.1184 283.702 35.9168 283.702 51.6993 283.702" stroke="#002464" stroke-width="0.949799" stroke-miterlimit="10" stroke-linecap="round" stroke-linejoin="round"/>
<path d="M51.5254 267.363C51.5254 272.677 51.5254 278.007 51.5254 283.321" stroke="#002464" stroke-width="0.949799" stroke-miterlimit="10" stroke-linecap="round" stroke-linejoin="round"/>
<path d="M4.90527 281.266C20.1337 281.266 35.3622 281.266 50.5748 281.266" stroke="#002464" stroke-width="0.949799" stroke-miterlimit="10" stroke-linecap="round" stroke-linejoin="round"/>
<path d="M19.3262 272.504C21.6532 272.805 23.9802 273.105 26.323 273.406" stroke="#002464" stroke-width="0.949799" stroke-miterlimit="10" stroke-linecap="round" stroke-linejoin="round"/>
<path d="M24.1875 271.128C25.5172 271.207 26.8628 271.286 28.1925 271.381" stroke="#002464" stroke-width="0.949799" stroke-miterlimit="10" stroke-linecap="round" stroke-linejoin="round"/>
<path d="M20.8625 268.233C20.261 266.477 18.6938 265.086 16.8733 264.706C17.1266 266.193 17.8548 267.6 18.8996 268.676C17.2058 268.66 15.5278 268.644 13.834 268.628" stroke="#002464" stroke-width="0.949799" stroke-miterlimit="10" stroke-linecap="round" stroke-linejoin="round"/>
<path d="M100.946 266.018C103.368 266.998 105.157 267.33 107.737 267.773C112.233 268.564 117.22 268.675 120.623 271.711C122.649 273.53 123.805 276.282 123.678 279.002" stroke="#002464" stroke-width="0.949799" stroke-miterlimit="10" stroke-linecap="round" stroke-linejoin="round"/>
<path d="M123.662 279.225C107.942 280.648 92.2075 282.056 76.4883 283.479" stroke="#002464" stroke-width="0.949799" stroke-miterlimit="10" stroke-linecap="round" stroke-linejoin="round"/>
<path d="M75.3018 268.17C75.7767 273.468 76.1724 277.786 76.6473 283.084" stroke="#002464" stroke-width="0.949799" stroke-miterlimit="10" stroke-linecap="round" stroke-linejoin="round"/>
<path d="M122.887 276.853C107.722 278.213 92.5567 279.589 77.3916 280.949" stroke="#002464" stroke-width="0.949799" stroke-miterlimit="10" stroke-linecap="round" stroke-linejoin="round"/>
<path d="M107.738 269.419C105.442 269.925 103.147 270.431 100.852 270.937" stroke="#002464" stroke-width="0.949799" stroke-miterlimit="10" stroke-linecap="round" stroke-linejoin="round"/>
<path d="M102.767 268.485C101.438 268.691 100.124 268.897 98.7939 269.087" stroke="#002464" stroke-width="0.949799" stroke-miterlimit="10" stroke-linecap="round" stroke-linejoin="round"/>
<path d="M105.822 265.306C106.265 263.503 107.69 261.985 109.478 261.432C109.352 262.934 108.766 264.405 107.816 265.575C109.494 265.401 111.172 265.243 112.85 265.069" stroke="#002464" stroke-width="0.949799" stroke-miterlimit="10" stroke-linecap="round" stroke-linejoin="round"/>
<path d="M153.153 99.2285C159.723 110.268 162.604 123.063 165.374 135.604" stroke="#002464" stroke-width="0.949799" stroke-miterlimit="10" stroke-linecap="round" stroke-linejoin="round"/>
<path d="M163.965 109.287C166.862 118.255 168.761 127.586 170.724 136.822" stroke="#002464" stroke-width="0.949799" stroke-miterlimit="10" stroke-linecap="round" stroke-linejoin="round"/>
<path d="M160.277 101.869C161.053 102.945 161.718 104.083 162.304 105.254" stroke="#002464" stroke-width="0.949799" stroke-miterlimit="10" stroke-linecap="round" stroke-linejoin="round"/>
<path d="M203.777 135.904C201.656 143.512 200.532 151.388 200.484 159.296" stroke="#002464" stroke-width="0.949799" stroke-miterlimit="10" stroke-linecap="round" stroke-linejoin="round"/>
<path d="M224.942 55.9402C225.75 55.1652 226.589 54.4219 227.444 53.6943" stroke="#002464" stroke-width="0.949799" stroke-miterlimit="10" stroke-linecap="round" stroke-linejoin="round"/>
<path d="M209.002 81.1351C210.031 78.0036 211.313 74.9512 212.833 72.0253C214.368 69.0836 216.125 66.2684 218.12 63.6272C219.228 62.1406 220.415 60.7013 221.666 59.3096" stroke="#002464" stroke-width="0.949799" stroke-miterlimit="10" stroke-linecap="round" stroke-linejoin="round"/>
<path d="M213.276 81.7996C217.55 75.1412 223.028 69.2736 229.375 64.5605" stroke="#002464" stroke-width="0.949799" stroke-miterlimit="10" stroke-linecap="round" stroke-linejoin="round"/>
<path d="M146.205 210.208L146.237 210.414L148.532 226.435L150.432 239.799L151.334 246.157L154.152 265.863L154.627 269.153L156.273 280.619" stroke="#002464" stroke-width="0.949799" stroke-miterlimit="10" stroke-linecap="round" stroke-linejoin="round"/>
<path d="M203.272 210.206L200.423 230.197L199.584 236.001L197.478 250.726L195.658 263.568L194.566 271.159L193.22 280.617" stroke="#002464" stroke-width="0.949799" stroke-miterlimit="10" stroke-linecap="round" stroke-linejoin="round"/>
<path d="M193.221 280.617C190.641 281.867 187.981 282.847 185.243 283.543C182.662 284.207 180.05 284.619 177.407 284.777C173.75 285.014 170.077 284.761 166.468 284.049C164.236 283.606 162.036 282.974 159.883 282.167C158.648 281.708 157.445 281.187 156.258 280.617" stroke="#002464" stroke-width="0.949799" stroke-miterlimit="10" stroke-linecap="round" stroke-linejoin="round"/>
<path d="M156.272 278.388C167.923 284.065 181.569 284.065 193.22 278.388" stroke="#002464" stroke-width="0.949799" stroke-miterlimit="10" stroke-linecap="round" stroke-linejoin="round"/>
<path d="M203.256 210.095C202.734 210.253 202.212 210.427 201.673 210.57C196.988 211.961 192.112 212.958 187.142 213.575C184.355 213.922 181.554 214.16 178.736 214.255C175.285 214.381 171.818 214.35 168.367 214.112C165.518 213.922 162.668 213.622 159.867 213.179C155.276 212.467 150.78 211.439 146.458 210.063" stroke="#002464" stroke-width="0.949799" stroke-miterlimit="10" stroke-linecap="round" stroke-linejoin="round"/>
<path d="M149.307 229.993L162.399 214.873" stroke="#002464" stroke-width="0.949799" stroke-miterlimit="10" stroke-linecap="round" stroke-linejoin="round"/>
<path d="M177.674 215.521C173.353 220.582 153.66 243.736 151.349 246.155" stroke="#002464" stroke-width="0.949799" stroke-miterlimit="10" stroke-linecap="round" stroke-linejoin="round"/>
<path d="M199.836 212.737C197.889 215.046 154.832 265.182 154.151 265.862" stroke="#002464" stroke-width="0.949799" stroke-miterlimit="10" stroke-linecap="round" stroke-linejoin="round"/>
<path d="M199.582 236.001C187.773 249.666 173.352 266.446 161.59 280.206" stroke="#002464" stroke-width="0.949799" stroke-miterlimit="10" stroke-linecap="round" stroke-linejoin="round"/>
<path d="M180.366 281.345C185.067 276.094 190.94 268.74 195.657 263.568" stroke="#002464" stroke-width="0.949799" stroke-miterlimit="10" stroke-linecap="round" stroke-linejoin="round"/>
<path d="M154.627 269.15C157.682 272.93 160.69 276.884 163.793 280.68" stroke="#002464" stroke-width="0.949799" stroke-miterlimit="10" stroke-linecap="round" stroke-linejoin="round"/>
<path d="M150.432 239.798C150.97 240.778 180.319 277.202 183.121 280.855" stroke="#002464" stroke-width="0.949799" stroke-miterlimit="10" stroke-linecap="round" stroke-linejoin="round"/>
<path d="M193.568 269.911C191.557 267.554 151.349 216.786 148.215 212.896" stroke="#002464" stroke-width="0.949799" stroke-miterlimit="10" stroke-linecap="round" stroke-linejoin="round"/>
<path d="M197.479 250.726C194.266 246.598 169.713 216.153 169.159 215.204" stroke="#002464" stroke-width="0.949799" stroke-miterlimit="10" stroke-linecap="round" stroke-linejoin="round"/>
<path d="M186.112 214.35C189.642 218.952 196.608 227.366 200.169 231.937" stroke="#002464" stroke-width="0.949799" stroke-miterlimit="10" stroke-linecap="round" stroke-linejoin="round"/>
<path d="M14.166 292.037C15.844 291.356 17.8069 291.356 19.4849 292.053" stroke="#002464" stroke-width="0.949799" stroke-miterlimit="10" stroke-linecap="round" stroke-linejoin="round"/>
<path d="M35.0771 292.337C37.0717 291.466 39.4304 291.482 41.425 292.368" stroke="#002464" stroke-width="0.949799" stroke-miterlimit="10" stroke-linecap="round" stroke-linejoin="round"/>
<path d="M55.9424 289.111C57.3038 288.351 58.9817 288.161 60.4698 288.605" stroke="#002464" stroke-width="0.949799" stroke-miterlimit="10" stroke-linecap="round" stroke-linejoin="round"/>
<path d="M62.5742 292.052C64.0147 291.372 65.7086 291.245 67.2441 291.704C67.719 291.847 68.1939 292.037 68.7004 292.021C69.302 292.005 69.8402 291.688 70.4259 291.546C71.8031 291.229 73.1961 291.973 74.605 291.91C75.254 291.878 75.8873 291.672 76.5205 291.546C77.961 291.261 79.4648 291.324 80.8579 291.767" stroke="#002464" stroke-width="0.949799" stroke-miterlimit="10" stroke-linecap="round" stroke-linejoin="round"/>
<path d="M153.612 292.874C154.8 292.21 156.288 292.099 157.57 292.574C158.345 292.874 159.074 293.365 159.897 293.46C161.116 293.602 162.35 292.827 163.538 293.127C164.013 293.254 164.456 293.554 164.947 293.602C165.469 293.649 165.976 293.412 166.482 293.254C167.891 292.795 169.474 292.906 170.804 293.57" stroke="#002464" stroke-width="0.949799" stroke-miterlimit="10" stroke-linecap="round" stroke-linejoin="round"/>
<path d="M186.08 295.341C187.631 294.851 189.357 294.945 190.861 295.579" stroke="#002464" stroke-width="0.949799" stroke-miterlimit="10" stroke-linecap="round" stroke-linejoin="round"/>
<path d="M196.164 291.468C197.494 291.088 198.982 291.325 200.137 292.101" stroke="#002464" stroke-width="0.949799" stroke-miterlimit="10" stroke-linecap="round" stroke-linejoin="round"/>
<path d="M199.867 296.798C202.083 295.974 204.569 295.927 206.801 296.703" stroke="#002464" stroke-width="0.949799" stroke-miterlimit="10" stroke-linecap="round" stroke-linejoin="round"/>
<path d="M105.426 49.8357L112.723 37.1357" stroke="#002464" stroke-width="0.949799" stroke-miterlimit="10" stroke-linecap="round" stroke-linejoin="round"/>
<path d="M114.021 36.377L126.78 41.4379" stroke="#002464" stroke-width="0.949799" stroke-miterlimit="10" stroke-linecap="round" stroke-linejoin="round"/>
<path d="M125.53 43.0352L113.04 66.1259" stroke="#002464" stroke-width="0.949799" stroke-miterlimit="10" stroke-linecap="round" stroke-linejoin="round"/>
<path d="M127.382 42.418L114.48 66.4577" stroke="#002464" stroke-width="0.949799" stroke-miterlimit="10" stroke-linecap="round" stroke-linejoin="round"/>
<path d="M104.729 62.6465L110.903 65.6198" stroke="#002464" stroke-width="0.949799" stroke-miterlimit="10" stroke-linecap="round" stroke-linejoin="round"/>
<path d="M116.222 39.334L119.625 40.5834" stroke="#002464" stroke-width="0.949799" stroke-miterlimit="10" stroke-linecap="round" stroke-linejoin="round"/>
<path d="M13.2957 192.761C12.7891 192.761 13.2482 193.774 13.5806 193.394C13.9289 193.093 13.0266 192.666 13.0107 193.125" stroke="#002464" stroke-width="0.949799" stroke-miterlimit="10" stroke-linecap="round" stroke-linejoin="round"/>
<path d="M33.6521 29.2441C33.1456 29.2441 33.6046 30.2573 33.9371 29.8773C34.2853 29.5766 33.383 29.1492 33.3672 29.6082" stroke="#002464" stroke-width="0.949799" stroke-miterlimit="10" stroke-linecap="round" stroke-linejoin="round"/>
<path d="M59.8518 132.045C59.4719 132.077 59.1395 132.393 59.0762 132.773C59.3611 133.011 59.8835 132.726 59.836 132.362" stroke="#002464" stroke-width="0.949799" stroke-miterlimit="10" stroke-linecap="round" stroke-linejoin="round"/>
<path d="M102.229 157.367C102.023 157.018 101.532 157.762 101.944 157.81C102.26 157.636 102.434 157.224 102.308 156.892" stroke="#002464" stroke-width="0.949799" stroke-miterlimit="10" stroke-linecap="round" stroke-linejoin="round"/>
<path d="M131.926 216.896C131.926 216.865 131.91 216.833 131.91 216.801C131.799 217.07 131.688 217.339 131.578 217.608C131.578 217.608 131.593 217.608 131.593 217.592C131.309 217.561 131.024 217.513 130.723 217.481C130.691 217.434 130.66 217.387 130.628 217.323C130.739 217.054 130.849 216.786 130.96 216.517C130.96 216.517 130.944 216.517 130.944 216.533C131.229 216.564 131.514 216.612 131.815 216.643C131.799 216.627 131.768 216.596 131.752 216.58C131.103 215.932 130.09 216.944 130.739 217.592C130.755 217.608 130.786 217.64 130.802 217.655C131.024 217.877 131.388 217.924 131.673 217.766C131.673 217.766 131.688 217.766 131.688 217.75C131.942 217.608 132.132 217.228 132.021 216.944C131.942 216.754 131.863 216.627 131.752 216.469C131.562 216.216 131.134 216.216 130.881 216.359C130.881 216.359 130.865 216.359 130.865 216.374C130.58 216.533 130.47 216.88 130.533 217.181C130.533 217.213 130.549 217.244 130.549 217.276C130.77 218.162 132.132 217.782 131.926 216.896Z" fill="#002464"/>
<path d="M212.453 241.221C212.453 241.189 212.437 241.157 212.437 241.126C212.327 241.394 212.216 241.663 212.105 241.932C212.105 241.932 212.121 241.932 212.121 241.916C211.836 241.885 211.551 241.837 211.25 241.806C211.219 241.758 211.187 241.711 211.155 241.648C211.266 241.379 211.377 241.11 211.488 240.841C211.488 240.841 211.472 240.841 211.472 240.857C211.757 240.888 212.042 240.936 212.342 240.967C212.327 240.952 212.295 240.92 212.279 240.904C211.63 240.256 210.617 241.268 211.266 241.916C211.282 241.932 211.314 241.964 211.329 241.98C211.551 242.201 211.915 242.249 212.2 242.09C212.2 242.09 212.216 242.09 212.216 242.075C212.469 241.932 212.659 241.553 212.548 241.268C212.469 241.078 212.39 240.952 212.279 240.793C212.089 240.54 211.662 240.54 211.408 240.683C211.408 240.683 211.393 240.683 211.393 240.699C211.108 240.857 210.997 241.205 211.06 241.505C211.06 241.537 211.076 241.568 211.076 241.6C211.298 242.486 212.675 242.122 212.453 241.221Z" fill="#002464"/>
<path d="M149.259 151.197C151.032 157.255 152.805 163.312 154.593 169.369C155.258 171.615 155.923 173.877 156.905 175.996C157.11 176.423 157.348 176.866 157.759 177.072C158.171 177.277 158.678 177.198 159.121 177.103C165.215 175.949 171.215 174.351 177.072 172.327C173.985 164.53 174.824 155.721 172.592 147.639C172.513 147.37 172.418 147.085 172.196 146.959C172.006 146.848 171.769 146.88 171.563 146.896C165.2 147.607 158.868 148.651 152.615 150.043" stroke="#46C578" stroke-width="0.949799" stroke-miterlimit="10" stroke-linecap="round" stroke-linejoin="round"/>
<path d="M151.87 152.273C155.59 153.333 159.184 154.804 162.555 156.654C163.473 157.16 164.407 157.73 164.882 158.663C165.8 160.466 164.534 162.554 163.458 164.262C161.542 167.282 160.054 170.556 159.041 173.988" stroke="#46C578" stroke-width="0.949799" stroke-miterlimit="10" stroke-linecap="round" stroke-linejoin="round"/>
<path d="M162.983 154.961C164.551 153.032 166.355 151.308 168.334 149.821" stroke="#46C578" stroke-width="0.949799" stroke-miterlimit="10" stroke-linecap="round" stroke-linejoin="round"/>
<path d="M164.52 167.772C167.654 167.63 170.82 168.215 173.685 169.48" stroke="#46C578" stroke-width="0.949799" stroke-miterlimit="10" stroke-linecap="round" stroke-linejoin="round"/>
<path d="M188.675 161.067C187.678 168.517 186.997 176.013 186.664 183.51C186.633 184.174 186.617 184.886 186.934 185.487C187.171 185.945 187.567 186.277 187.962 186.594C191.777 189.741 195.782 192.651 199.93 195.34C201.719 188.618 203.428 181.865 205.09 175.112C205.217 174.558 205.36 173.989 205.201 173.435C205.027 172.834 204.536 172.407 204.046 172.012C199.645 168.469 194.12 166.334 190.384 162.111" stroke="#46C578" stroke-width="0.949799" stroke-miterlimit="10" stroke-linecap="round" stroke-linejoin="round"/>
<path d="M189.989 166.507C192.522 171.331 193.409 176.834 194.263 182.212C196.923 179.302 199.867 176.645 203.033 174.304" stroke="#46C578" stroke-width="0.949799" stroke-miterlimit="10" stroke-linecap="round" stroke-linejoin="round"/>
<path d="M191.335 179.634C190.195 181.184 189.056 182.749 187.932 184.299" stroke="#46C578" stroke-width="0.949799" stroke-miterlimit="10" stroke-linecap="round" stroke-linejoin="round"/>
<path d="M198.475 182.497C198.522 185.091 198.728 187.685 199.092 190.247" stroke="#46C578" stroke-width="0.949799" stroke-miterlimit="10" stroke-linecap="round" stroke-linejoin="round"/>
<path d="M199.455 88.3623C196.748 93.1228 194.231 97.994 191.92 102.96C190.005 107.072 188.216 111.311 187.535 115.802C187.472 116.198 187.44 116.656 187.741 116.925C187.915 117.083 188.153 117.115 188.374 117.163C195.893 118.459 203.144 121.259 209.586 125.323C210.061 120.974 211.106 116.688 212.657 112.592C214.953 106.534 218.372 100.92 220.303 94.736C220.509 94.0717 220.683 93.3442 220.367 92.7274C220.05 92.1106 219.338 91.8259 218.673 91.6678C215.887 90.9719 212.958 91.478 210.093 91.3515C207.576 91.2407 205.075 90.6397 202.78 89.5959" stroke="#46C578" stroke-width="0.949799" stroke-miterlimit="10" stroke-linecap="round" stroke-linejoin="round"/>
<path d="M200.263 89.3115C201.624 92.791 202.748 96.3653 203.635 100.003C203.793 100.62 203.935 101.268 203.793 101.885C203.603 102.739 202.922 103.372 202.273 103.957C197.952 107.816 193.535 111.564 189.023 115.202" stroke="#46C578" stroke-width="0.949799" stroke-miterlimit="10" stroke-linecap="round" stroke-linejoin="round"/>
<path d="M200.247 109.286C203.223 113.082 205.788 117.21 207.861 121.559" stroke="#46C578" stroke-width="0.949799" stroke-miterlimit="10" stroke-linecap="round" stroke-linejoin="round"/>
<path d="M205.392 97.9307C209.587 96.4124 213.876 95.1155 218.198 94.04" stroke="#46C578" stroke-width="0.949799" stroke-miterlimit="10" stroke-linecap="round" stroke-linejoin="round"/>
<path d="M146.362 208.941C144.779 205.209 143.196 201.476 141.613 197.759C141.439 197.364 141.281 196.953 141.36 196.526C141.502 195.751 142.373 195.371 143.133 195.134C149.053 193.268 155.053 191.623 161.116 190.247C161.369 190.184 161.654 190.136 161.875 190.247C162.113 190.374 162.24 190.642 162.335 190.896C165.2 198.028 168.065 205.161 170.914 212.294" stroke="#46C578" stroke-width="0.949799" stroke-miterlimit="10" stroke-linecap="round" stroke-linejoin="round"/>
<path d="M143.892 196.352C148.831 198.439 153.754 200.574 158.645 202.773C159.025 202.947 159.452 203.168 159.547 203.579C159.611 203.832 159.5 204.101 159.405 204.354C158.503 206.6 157.458 208.783 156.286 210.886" stroke="#46C578" stroke-width="0.949799" stroke-miterlimit="10" stroke-linecap="round" stroke-linejoin="round"/>
<path d="M157.553 199.23C158.534 197.19 159.531 195.165 160.513 193.125" stroke="#46C578" stroke-width="0.949799" stroke-miterlimit="10" stroke-linecap="round" stroke-linejoin="round"/>
<path d="M161.369 208.023C163.205 209.067 165.073 210.032 166.973 210.918" stroke="#46C578" stroke-width="0.949799" stroke-miterlimit="10" stroke-linecap="round" stroke-linejoin="round"/>
<path d="M166.371 197.269C170.645 198.154 174.872 199.34 178.988 200.827C179.241 200.922 179.494 201.017 179.637 201.254C179.747 201.444 179.732 201.665 179.732 201.887C179.557 205.335 179.114 208.766 178.402 212.151" stroke="#46C578" stroke-width="0.949799" stroke-miterlimit="10" stroke-linecap="round" stroke-linejoin="round"/>
<path d="M177.626 202.456C175.584 203.99 173.7 205.698 171.975 207.58" stroke="#46C578" stroke-width="0.949799" stroke-miterlimit="10" stroke-linecap="round" stroke-linejoin="round"/>
<path d="M173.684 197.253C173.621 196.652 173.557 196.051 173.494 195.45C176.945 194.801 180.475 194.548 183.989 194.691C184.353 194.707 184.733 194.738 185.034 194.928C185.493 195.213 185.667 195.798 185.81 196.32C187.029 201.254 187.694 206.774 187.804 211.851" stroke="#46C578" stroke-width="0.949799" stroke-miterlimit="10" stroke-linecap="round" stroke-linejoin="round"/>
<path d="M180.776 207.011C182.913 208.323 185.81 210.316 187.805 211.85" stroke="#46C578" stroke-width="0.949799" stroke-miterlimit="10" stroke-linecap="round" stroke-linejoin="round"/>
<path d="M180.903 204.513C182.075 202.188 183.262 199.879 184.433 197.554" stroke="#46C578" stroke-width="0.949799" stroke-miterlimit="10" stroke-linecap="round" stroke-linejoin="round"/>
<path d="M187.805 202.519C192.633 203.736 197.477 204.954 202.305 206.172C202.463 206.204 202.637 206.267 202.717 206.393C202.78 206.504 202.78 206.631 202.78 206.757C202.764 207.548 202.637 208.323 202.416 209.082" stroke="#46C578" stroke-width="0.949799" stroke-miterlimit="10" stroke-linecap="round" stroke-linejoin="round"/>
<path d="M188.549 204.544C190.686 206.647 192.855 208.703 195.055 210.728" stroke="#46C578" stroke-width="0.949799" stroke-miterlimit="10" stroke-linecap="round" stroke-linejoin="round"/>
<path d="M195.055 210.664C197.113 210.015 199.155 209.272 201.149 208.434" stroke="#46C578" stroke-width="0.949799" stroke-miterlimit="10" stroke-linecap="round" stroke-linejoin="round"/>
<path d="M202.891 276.046C206.342 278.655 209.856 281.186 213.418 283.637" stroke="#46C578" stroke-width="0.949799" stroke-miterlimit="10" stroke-linecap="round" stroke-linejoin="round"/>
<path d="M202.954 275.603C212.325 272.44 221.776 269.498 231.29 266.762C233.854 269.039 236.435 271.332 238.999 273.61C230.451 276.757 221.982 280.078 213.592 283.59" stroke="#46C578" stroke-width="0.949799" stroke-miterlimit="10" stroke-linecap="round" stroke-linejoin="round"/>
<path d="M203.224 275.951C208.258 276.489 213.307 276.742 218.373 276.71C219.544 276.71 220.732 276.679 221.887 276.41C224.151 275.888 226.114 274.449 227.665 272.725C229.216 271.001 230.388 268.976 231.543 266.968" stroke="#46C578" stroke-width="0.949799" stroke-miterlimit="10" stroke-linecap="round" stroke-linejoin="round"/>
<path d="M217.833 276.9C216.44 279.083 215.047 281.266 213.654 283.448" stroke="#46C578" stroke-width="0.949799" stroke-miterlimit="10" stroke-linecap="round" stroke-linejoin="round"/>
<path d="M228.504 272.361C231.464 272.504 234.44 272.741 237.385 273.058C237.559 273.074 237.78 273.121 237.828 273.311" stroke="#46C578" stroke-width="0.949799" stroke-miterlimit="10" stroke-linecap="round" stroke-linejoin="round"/>
<path d="M100.471 34.4307C101.61 35.3954 102.671 36.4392 103.668 37.5463" stroke="#46C578" stroke-width="0.949799" stroke-miterlimit="10" stroke-linecap="round" stroke-linejoin="round"/>
<path d="M105.22 29.2285C105.821 30.7943 106.359 32.3916 106.866 33.989" stroke="#46C578" stroke-width="0.949799" stroke-miterlimit="10" stroke-linecap="round" stroke-linejoin="round"/>
<path d="M110.095 32.6916C110.364 30.4774 110.633 28.2632 110.903 26.0332" stroke="#46C578" stroke-width="0.949799" stroke-miterlimit="10" stroke-linecap="round" stroke-linejoin="round"/>
<path d="M113.135 46.5621C111.821 47.2264 110.76 48.4916 110.586 49.9625C110.428 51.4333 111.33 53.0149 112.755 53.3944C113.293 53.5368 113.879 53.5052 114.417 53.3628C115.589 53.0623 116.618 52.2083 117.077 51.1012C117.536 49.9783 117.393 48.6181 116.633 47.685C115.874 46.7361 114.544 46.2932 113.388 46.657" stroke="#46C578" stroke-width="0.949799" stroke-miterlimit="10" stroke-linecap="round" stroke-linejoin="round"/>
<path d="M113.088 46.5771C113.547 48.5541 114.006 50.5311 114.481 52.4922" stroke="#46C578" stroke-width="0.949799" stroke-miterlimit="10" stroke-linecap="round" stroke-linejoin="round"/>
<path d="M111.015 50.752C112.914 49.9138 114.814 49.0755 116.713 48.2373" stroke="#46C578" stroke-width="0.949799" stroke-miterlimit="10" stroke-linecap="round" stroke-linejoin="round"/>
</svg>
