<svg width="24" height="24" viewBox="0 0 24 24" fill="none" xmlns="http://www.w3.org/2000/svg">
<path d="M11.9999 1.99622C16.0498 1.99622 19.3565 5.19096 19.4957 9.24527L19.4999 9.49622V13.5932L20.8799 16.7492C20.9489 16.9071 20.9846 17.0776 20.9846 17.25C20.9846 17.9403 20.4249 18.5 19.7346 18.5L14.9999 18.5015C14.9999 20.1583 13.6567 21.5015 11.9999 21.5015C10.4022 21.5015 9.09621 20.2526 9.00496 18.6778L8.99941 18.4992L4.27473 18.5C4.10339 18.5 3.93388 18.4648 3.77673 18.3965C3.14353 18.1215 2.85318 17.3852 3.12822 16.752L4.49987 13.5941V9.49611C4.50046 5.34132 7.85195 1.99622 11.9999 1.99622ZM13.4994 18.4992L10.4999 18.5015C10.4999 19.3299 11.1714 20.0015 11.9999 20.0015C12.7796 20.0015 13.4203 19.4066 13.493 18.6459L13.4994 18.4992ZM11.9999 3.49622C8.67971 3.49622 6.00034 6.17047 5.99987 9.49622V13.9058L4.65589 17H19.3524L17.9999 13.9068L18 9.50907L17.9962 9.28387C17.8852 6.0504 15.2414 3.49622 11.9999 3.49622Z" fill="#212121"/>
</svg>
