<svg width="50" height="32" viewBox="0 0 50 32" fill="none" xmlns="http://www.w3.org/2000/svg">
<g id="Qiwi">
<g id="Qiwi_2">
<rect id="Rectangle" width="50" height="32" rx="3" fill="#FF8C00"/>
<g id="Group">
<path id="path5489" d="M24.5991 17.64H25.2263V19.0458H25.6795L26.4927 17.64H27.1784L26.2024 19.2899V19.3014L27.2366 21.1018H26.5277L25.6911 19.5914H25.2383V21.1018H24.6107V17.6396H24.5991V17.64ZM28.6423 18.5579C29.397 18.5579 30.013 19.1039 30.013 19.8589C30.013 20.6259 29.4089 21.1603 28.6539 21.1603C27.8985 21.1603 27.2943 20.6259 27.2943 19.8589C27.2828 19.0923 27.8869 18.5579 28.6423 18.5579ZM30.5009 18.6157H31.0934V20.5678H31.8719V18.6161H32.4641V20.5678H33.2427V18.6161H33.8352V21.1018H30.524V18.6157H30.5009ZM35.5898 18.5579C36.2983 18.5579 36.6933 19.0808 36.6933 19.7315C36.6913 19.8132 36.6836 19.8946 36.6702 19.9752H34.9622C34.9972 20.4049 35.3341 20.6375 35.7061 20.6375C35.9614 20.6375 36.217 20.5212 36.4145 20.3703L36.6586 20.8119C36.403 21.0321 36.0195 21.1719 35.6595 21.1719C34.8344 21.1719 34.3234 20.5793 34.3234 19.8705C34.3234 19.0923 34.8459 18.5579 35.5898 18.5579ZM36.9836 20.5793C37.2859 20.5327 37.5065 20.2775 37.5065 19.3942V18.6161H39.3192V21.1018H38.7032V19.1151H38.099V19.3939C38.099 20.4742 37.8087 21.1018 36.9836 21.1249V20.579V20.5793ZM41.0849 18.5579C41.7934 18.5579 42.1884 19.0808 42.1884 19.7315C42.1865 19.8132 42.1788 19.8946 42.1653 19.9752H40.4574C40.4924 20.4049 40.8293 20.6375 41.2012 20.6375C41.4565 20.6375 41.7122 20.5212 41.9097 20.3703L42.1538 20.8119C41.8981 21.0321 41.5146 21.1719 41.1546 21.1719C40.3299 21.1719 39.8186 20.5793 39.8186 19.8705C39.8186 19.0923 40.3414 18.5579 41.0849 18.5579ZM42.6998 18.6157H43.3154V19.5686H43.6177L44.2218 18.6161H44.9071L44.1171 19.8008V19.8127L44.9999 21.1018H44.2799L43.6292 20.0915H43.3042V21.1018H42.6878V18.6157H42.6994H42.6998ZM28.6423 20.6259C29.0489 20.6259 29.3858 20.3121 29.3858 19.8474C29.3858 19.3942 29.0489 19.0689 28.6419 19.0689C28.2357 19.0689 27.9104 19.383 27.9104 19.8474C27.9104 20.3121 28.2354 20.6259 28.6423 20.6259ZM36.0661 19.5455C36.0661 19.2202 35.8451 19.0226 35.5663 19.0226C35.2529 19.0226 35.0203 19.2317 34.9622 19.5455H36.0661ZM41.5612 19.5455C41.5612 19.2202 41.3406 19.0226 41.0618 19.0226C40.7477 19.0226 40.5155 19.2317 40.4574 19.5455H41.5612Z" fill="#2D3540"/>
<path id="path5491" d="M33.2778 10.0998V15.9669C33.2782 15.9884 33.2744 16.0097 33.2664 16.0297C33.2584 16.0496 33.2464 16.0677 33.2313 16.0829C33.2161 16.0981 33.198 16.11 33.178 16.118C33.1581 16.126 33.1367 16.1299 33.1153 16.1294H31.9186C31.8971 16.1299 31.8758 16.126 31.8558 16.118C31.8359 16.11 31.8178 16.0981 31.8026 16.0829C31.7874 16.0677 31.7755 16.0496 31.7675 16.0297C31.7595 16.0097 31.7556 15.9884 31.7561 15.9669V10.0998C31.7556 10.0783 31.7595 10.057 31.7675 10.037C31.7755 10.0171 31.7874 9.999 31.8026 9.98381C31.8178 9.96862 31.8359 9.95667 31.8558 9.94868C31.8758 9.94069 31.8971 9.93682 31.9186 9.93732H33.1153C33.1367 9.93682 33.1581 9.94069 33.178 9.94868C33.198 9.95667 33.2161 9.96862 33.2313 9.98381C33.2464 9.999 33.2584 10.0171 33.2664 10.037C33.2744 10.057 33.2782 10.0783 33.2778 10.0998ZM42.6186 9.93732C42.6652 9.93732 42.7233 9.96043 42.7811 10.007C42.8161 10.0417 42.8161 10.0998 42.8045 10.1464L40.8293 16.025C40.8174 16.0554 40.7966 16.0816 40.7698 16.1003C40.7429 16.1189 40.7111 16.1292 40.6784 16.1297H39.6096C39.5399 16.1297 39.4817 16.0947 39.4586 16.025L38.3078 12.5979L37.1577 16.0247C37.1457 16.0551 37.125 16.0813 37.0981 16.0999C37.0713 16.1185 37.0395 16.1288 37.0068 16.1294H35.9379C35.8683 16.1294 35.8101 16.0947 35.787 16.0247L33.8118 10.146C33.8003 10.0998 33.8003 10.0532 33.8349 10.007C33.8584 9.96043 33.9165 9.93732 33.9628 9.93732H35.2988C35.3685 9.93732 35.4266 9.98354 35.4501 10.0532L36.507 13.527L37.669 10.0532C37.681 10.0228 37.7018 9.99662 37.7286 9.97798C37.7555 9.95934 37.7873 9.94909 37.82 9.94851H38.761C38.8307 9.94851 38.8888 9.98354 38.9119 10.0532L40.0739 13.527L41.1312 10.0532C41.1407 10.0203 41.1605 9.99131 41.1876 9.97045C41.2148 9.9496 41.2479 9.93798 41.2822 9.93732H42.6182H42.6186ZM44.64 9.93732C44.7212 9.93732 44.7909 10.007 44.8025 10.0998V15.9669C44.803 15.9884 44.7991 16.0097 44.7911 16.0297C44.7831 16.0496 44.7712 16.0677 44.756 16.0829C44.7408 16.0981 44.7227 16.11 44.7028 16.118C44.6828 16.126 44.6615 16.1299 44.64 16.1294H43.4433C43.4218 16.1299 43.4005 16.126 43.3806 16.118C43.3606 16.11 43.3425 16.0981 43.3273 16.0829C43.3121 16.0677 43.3002 16.0496 43.2922 16.0297C43.2842 16.0097 43.2803 15.9884 43.2808 15.9669V10.0998C43.2803 10.0783 43.2842 10.057 43.2922 10.037C43.3002 10.0171 43.3121 9.999 43.3273 9.98381C43.3425 9.96862 43.3606 9.95667 43.3806 9.94868C43.4005 9.94069 43.4218 9.93682 43.4433 9.93732H44.64ZM31.0588 15.9207C31.1285 16.0019 31.0704 16.1178 30.9657 16.1178H29.5018C29.473 16.1186 29.4443 16.1127 29.4182 16.1006C29.392 16.0885 29.3689 16.0706 29.3508 16.0481L29.1071 15.7463C28.5958 16.0712 27.9913 16.2691 27.3525 16.2691C25.5637 16.2691 24.1113 14.8168 24.1113 13.0276C24.1113 11.2383 25.5637 9.78602 27.3525 9.78602C29.1418 9.78602 30.5941 11.2383 30.5941 13.0276C30.5941 13.6667 30.4081 14.2708 30.0828 14.7818L31.0588 15.9203V15.9207ZM18.8249 18.7668C19.1271 18.8831 19.2434 19.3359 19.2665 19.5334C19.3131 19.8938 19.2087 20.0332 19.0925 20.0332C18.9762 20.0332 18.8133 19.8938 18.6393 19.615C18.4649 19.3359 18.3952 19.0225 18.4884 18.8596C18.5461 18.7549 18.674 18.7087 18.8253 18.7668H18.8249ZM17.0591 20.0798C17.2451 20.0798 17.4542 20.161 17.6401 20.3235C18.0002 20.6257 18.1049 20.9742 17.9189 21.2299C17.8142 21.3577 17.6401 21.4389 17.4426 21.4389C17.2451 21.4389 17.036 21.3692 16.8967 21.2414C16.5713 20.9626 16.4785 20.4976 16.6872 20.2423C16.7688 20.1375 16.8967 20.0798 17.0591 20.0798ZM12.9932 23.4372C8.5781 23.4372 5 19.8588 5 15.444C5 11.0293 8.57846 7.45117 12.9928 7.45117C17.4076 7.45117 20.9861 11.0296 20.9861 15.444C20.9861 16.9426 20.5679 18.3487 19.8594 19.5453C19.836 19.58 19.7778 19.5685 19.7663 19.5219C19.4875 17.5586 18.2908 16.4778 16.5482 16.1529C16.3969 16.1294 16.3738 16.0366 16.5713 16.0135C17.1057 15.9669 17.8608 15.9784 18.2558 16.0481C18.2789 15.8506 18.2908 15.6415 18.2908 15.4325C18.2908 12.5163 15.9206 10.146 13.0044 10.146C10.0886 10.146 7.71833 12.5163 7.71833 15.4325C7.71833 18.3487 10.0886 20.7189 13.0048 20.7189H13.2485C13.1657 20.2472 13.1306 19.7684 13.1438 19.2897C13.1557 18.9643 13.2254 18.9178 13.3648 19.1734C14.0967 20.4398 15.1425 21.5783 17.187 22.0315C18.8599 22.4034 20.5329 22.8331 22.3337 25.1217C22.4962 25.3193 22.2524 25.5283 22.0665 25.3658C20.231 23.7391 18.5581 23.2047 17.036 23.2047C15.3281 23.2166 14.1664 23.4372 12.9928 23.4372H12.9932ZM28.1542 14.6193L27.515 13.8408C27.4457 13.7595 27.5038 13.6317 27.6082 13.6317H28.9558C29.0255 13.4457 29.0605 13.2366 29.0605 13.0276C29.0605 12.0634 28.3401 11.2268 27.3525 11.2268C26.3653 11.2268 25.6446 12.0634 25.6446 13.0276C25.6446 13.9917 26.3653 14.8168 27.3525 14.8168C27.6313 14.8284 27.9104 14.7471 28.1542 14.6193Z" fill="white"/>
</g>
</g>
</g>
</svg>
