<svg width="50" height="32" viewBox="0 0 50 32" fill="none" xmlns="http://www.w3.org/2000/svg">
<g id="Sberbank (&#208;&#161;&#208;&#177;&#208;&#181;&#209;&#128;&#208;&#177;&#208;&#176;&#208;&#189;&#208;&#186;)">
<g id="Sberbank (&#208;&#161;&#208;&#177;&#208;&#181;&#209;&#128;&#208;&#177;&#208;&#176;&#208;&#189;&#208;&#186;)_2">
<rect id="Rectangle" width="50" height="32" rx="3" fill="#299D37"/>
<g id="Group">
<path id="Vector" fill-rule="evenodd" clip-rule="evenodd" d="M38.1526 23.0595H39.0664C38.9025 23.1511 38.6832 23.3248 38.4079 23.5803L37.4942 24.5138L37.9954 25.2311C38.5195 25.9779 38.978 26.5479 39.3711 26.9409H38.0641C37.9004 26.5608 37.6874 26.1745 37.4254 25.7814L36.8359 24.897L37.347 24.2485C37.8053 23.6524 38.074 23.256 38.1526 23.0595ZM36.7671 23.4919V26.4987L36.8064 26.7247C36.8325 26.7641 36.8917 26.7969 36.9831 26.823V26.9409H35.7154V26.823L35.8923 26.7247C35.9185 26.6854 35.9316 26.6102 35.9316 26.4987V23.4919L35.8923 23.2757C35.8662 23.2299 35.807 23.2004 35.7154 23.1873V23.0595H36.9831V23.1873C36.8915 23.2002 36.8323 23.2299 36.8064 23.2757L36.7671 23.4919ZM34.8804 23.4919V26.4987L34.9197 26.7247L35.0966 26.823V26.9409H33.8192V26.823C33.9107 26.7969 33.9764 26.7641 34.0157 26.7247L34.045 26.4987V24.9363H32.5514V26.4987L32.5907 26.7247C32.617 26.7641 32.6758 26.7969 32.7673 26.823V26.9409H31.4801V26.823C31.585 26.7969 31.6503 26.7641 31.6766 26.7247L31.7159 26.4987V23.4919L31.6766 23.2757C31.6503 23.2299 31.585 23.2004 31.4801 23.1873V23.0595H32.7673V23.1873C32.6756 23.2002 32.6168 23.2299 32.5907 23.2757L32.5514 23.4919V24.6809H34.045V23.4919L34.0157 23.2757C33.9764 23.2299 33.9107 23.2004 33.8192 23.1873V23.0595H35.0966V23.1873C35.0048 23.2002 34.9458 23.2299 34.9197 23.2757L34.8804 23.4919ZM28.6996 23.1873V23.0595H29.8196C29.8326 23.2364 29.8788 23.4264 29.9572 23.6294L30.7826 25.9485C30.9202 26.3547 31.0544 26.6854 31.1855 26.9409H30.2029L29.7805 25.5456H28.5324L28.2671 26.4693L28.1884 26.9409H27.4809L28.7385 24.0323C28.8631 23.7246 28.9252 23.5149 28.9252 23.4034C28.9256 23.279 28.8502 23.2069 28.6996 23.1873ZM29.1615 23.708L28.6308 25.2704H29.6921L29.1615 23.708ZM27.1765 23.9046H26.9601L26.911 23.7375C26.8585 23.5475 26.7799 23.4231 26.6752 23.3641L26.1347 23.2953H25.6141C25.496 23.2953 25.4176 23.315 25.3783 23.3543C25.3457 23.3871 25.3292 23.4459 25.3292 23.5312V24.4549H25.5453C26.1742 24.4549 26.6099 24.5172 26.8523 24.6416C27.1995 24.8119 27.3731 25.146 27.3731 25.6438C27.3731 26.1287 27.2355 26.4757 26.9601 26.6854C26.7178 26.8558 26.3413 26.9409 25.8301 26.9409H24.2777V26.823L24.4642 26.7247L24.4937 26.4987V23.4919L24.4642 23.2757C24.4381 23.2299 24.376 23.2004 24.2777 23.1873V23.0595H27.1765V23.9046ZM25.3292 24.7005V26.3612C25.3292 26.4923 25.3522 26.5773 25.3979 26.6167C25.4506 26.6691 25.5422 26.6953 25.6731 26.6953H25.791C26.0402 26.6953 26.2234 26.61 26.3415 26.4398C26.4462 26.2826 26.4987 26.0304 26.4987 25.6831C26.4987 25.3426 26.4429 25.1002 26.3315 24.956C26.2135 24.7856 25.994 24.7005 25.6731 24.7005H25.3292ZM23.9338 24.1699C23.9338 24.6219 23.7963 24.9462 23.5209 25.1427C23.2851 25.3131 22.9184 25.3982 22.4204 25.3982H22.0273V26.4987L22.0666 26.7247C22.0863 26.7641 22.1484 26.7969 22.2531 26.823V26.9409H20.9757V26.823L21.1526 26.7247L21.1919 26.4987V23.4919L21.1526 23.2757C21.1264 23.2299 21.0673 23.2004 20.9757 23.1873V23.0595H22.5872C23.0261 23.0595 23.347 23.125 23.5502 23.256C23.8061 23.4264 23.9338 23.731 23.9338 24.1699ZM22.0865 23.3346C22.0472 23.3608 22.0275 23.4197 22.0275 23.5115V25.1525H22.4206C22.6629 25.1525 22.8333 25.0607 22.9315 24.8774C23.0168 24.7137 23.0593 24.4647 23.0593 24.1306C23.0593 23.5738 22.8266 23.2953 22.3616 23.2953H22.2633L22.0865 23.3346ZM20.3865 23.9046H20.1801L20.131 23.7375C20.0656 23.5475 19.9836 23.4231 19.8854 23.3641L19.3547 23.2953H18.9224L18.7651 23.3346L18.7258 23.482V24.6809H19.2368C19.5906 24.6809 19.8231 24.6416 19.9345 24.5629V25.0543C19.8233 24.9757 19.5906 24.9363 19.2368 24.9363H18.7258V26.3906C18.7258 26.5086 18.7651 26.5905 18.8438 26.6363L19.3351 26.6953H19.4432L19.9738 26.6167C20.0656 26.5577 20.1377 26.4136 20.19 26.1843L20.2293 26.0369H20.4749V26.9409H17.6744V26.823C17.7727 26.7969 17.835 26.7641 17.8611 26.7247L17.9004 26.4987V23.4919L17.8611 23.2757C17.835 23.2299 17.7727 23.2004 17.6744 23.1873V23.0595H20.3865V23.9046ZM17.0357 23.9046H16.8293L16.7802 23.7375C16.7213 23.5475 16.6393 23.4231 16.5346 23.3641L16.0138 23.2953H15.4733C15.3619 23.2953 15.2833 23.315 15.2375 23.3543C15.2178 23.3871 15.208 23.4459 15.208 23.5312V24.4549H15.4242C16.0466 24.4549 16.4821 24.5172 16.7311 24.6416C17.0717 24.8119 17.2421 25.146 17.2421 25.6438C17.2421 26.1287 17.1045 26.4757 16.8293 26.6854C16.5935 26.8558 16.2168 26.9409 15.6993 26.9409H14.1369V26.823C14.2419 26.7969 14.3073 26.7641 14.3335 26.7247L14.3728 26.4987V23.4919L14.3335 23.2757C14.3073 23.2299 14.2419 23.2004 14.1369 23.1873V23.0595H17.0357V23.9046ZM13.1248 23.374C13.0069 23.2889 12.8235 23.2462 12.5745 23.2462C12.1815 23.2462 11.903 23.3903 11.7393 23.6786C11.6017 23.9276 11.5329 24.3336 11.5329 24.897C11.5329 25.4605 11.6082 25.8763 11.7589 26.145C11.9423 26.4791 12.2567 26.6461 12.7023 26.6461C13.0299 26.6461 13.3542 26.5675 13.6751 26.4103L13.793 26.656C13.4196 26.8851 12.9808 26.9999 12.4763 26.9999C11.2446 26.9999 10.6289 26.348 10.6289 25.0444C10.6289 23.6754 11.2676 22.9907 12.545 22.9907C13.0364 22.9907 13.4131 23.0497 13.6751 23.1676V23.9734H13.4294L13.3606 23.7375C13.3082 23.5738 13.2296 23.4526 13.1248 23.374ZM15.208 24.7005V26.3612C15.208 26.4923 15.2277 26.5773 15.267 26.6167C15.3194 26.6691 15.4144 26.6953 15.5519 26.6953H15.66C16.1317 26.6953 16.3675 26.3578 16.3675 25.6831C16.3675 25.3426 16.3119 25.1002 16.2005 24.956C16.0761 24.7856 15.8532 24.7005 15.5323 24.7005H15.208Z" fill="white"/>
<g id="Group_2">
<path id="Vector_2" fill-rule="evenodd" clip-rule="evenodd" d="M29.5451 5.93658L30.1878 6.52423L22.0708 11.1888L18.1409 8.91159L18.5081 8.17702L22.0708 10.2154L29.5451 5.93658ZM27.9106 5L28.7738 5.44074L22.0708 9.29724L18.9489 7.5159L19.4814 6.87315L22.0708 8.36066L27.9106 5ZM30.7571 7.13025L31.2346 7.773L22.0708 13.0435L17.645 10.5093L17.847 9.70125L22.0708 12.1253L30.7571 7.13025Z" fill="white"/>
<path id="Vector_3" fill-rule="evenodd" clip-rule="evenodd" d="M32.0795 9.4991C32.3487 10.2583 32.4835 11.0538 32.4835 11.8865C32.4835 12.7191 32.3487 13.5271 32.0795 14.3105L31.8958 14.8067C31.5164 15.7003 30.9838 16.4962 30.2981 17.1941C29.6003 17.8794 28.8047 18.4061 27.9108 18.7734C26.9683 19.1774 25.995 19.3794 24.9909 19.3794C23.9746 19.3794 23.0013 19.1771 22.0709 18.7734C21.2016 18.4061 20.4119 17.8794 19.7019 17.1941C19.0041 16.4962 18.4715 15.7003 18.1043 14.8067C17.7124 13.8635 17.5166 12.8902 17.5166 11.8865V11.3906L22.0709 13.98L31.6754 8.4707L32.0795 9.4991Z" fill="white"/>
</g>
</g>
</g>
</g>
</svg>
