<svg width="216" height="206" viewBox="0 0 216 206" fill="none" xmlns="http://www.w3.org/2000/svg">
<path d="M90.427 26.9447C90.544 28.4376 91.7658 29.9435 93.1565 30.359C95.3141 30.9951 95.769 28.4506 95.3011 26.9836C94.9372 25.8152 94.0273 24.3742 92.7146 24.1665C91.1159 23.8938 90.323 25.5685 90.427 26.9447Z" fill="#F4F5FA"/>
<path d="M105.1 30.5667C106.53 31.5014 108.362 28.2688 107.998 27.6976C107.634 27.1264 106.881 26.8927 106.283 27.2432C105.62 27.6457 105.061 28.1909 104.658 28.84C104.307 29.3983 104.541 30.2032 105.1 30.5667Z" fill="#F4F5FA"/>
<path d="M97.1587 36.6293C98.0166 37.3823 100.07 37.6939 100.031 35.9932C99.9922 34.6301 97.4187 33.5915 96.6908 34.9546C96.3659 35.5648 96.6518 36.1879 97.1587 36.6293Z" fill="#F4F5FA"/>
<path d="M45.3791 71.4994C53.3981 69.0328 60.2864 63.2557 64.2114 55.8559C65.3161 53.7787 69.1372 47.6382 66.7978 48.0017C60.1824 49.0013 52.8263 53.558 51.2277 55.6222C49.6421 57.6604 43.9365 67.6437 43.7805 70.305C43.7416 71.0969 44.6253 71.733 45.3791 71.4994Z" fill="#F4F5FA"/>
<path d="M117.603 71.3436C119.721 72.2394 121.983 72.7067 124.283 72.6548C124.985 72.6418 125.505 72.0836 125.544 71.3955C125.804 66.709 120.566 56.9983 105.698 50.1308C105.139 49.8711 104.359 50.702 104.437 51.3901C105.516 59.6597 109.532 67.9423 117.603 71.3436Z" fill="#F4F5FA"/>
<path d="M85.1493 51.9353C89.1265 53.9605 93.5067 54.7654 97.9518 54.311C98.6277 54.2461 99.0436 53.4282 98.9136 52.8181C98.7577 52.0911 98.0948 51.7925 97.4189 51.8574C93.7016 52.2469 89.8414 51.5198 86.501 49.8192C85.9031 49.5076 85.1623 49.5855 84.7724 50.1957C84.4344 50.7279 84.5384 51.6237 85.1493 51.9353Z" fill="#F4F5FA"/>
<path d="M50.6563 107.72C51.2932 108.096 51.9691 107.81 52.372 107.265C54.8025 103.981 56.5962 100.268 57.714 96.3472C58.1559 94.7894 55.7384 94.1273 55.2965 95.6851C54.3346 99.0994 52.8009 102.293 50.7863 105.188C51.3452 104.175 51.7351 103.085 51.9301 101.917C52.0341 101.254 51.7611 100.566 51.0593 100.372C50.4614 100.203 49.6295 100.579 49.5126 101.241C49.2786 102.721 48.7067 104.098 47.7449 105.253C47.303 105.772 47.238 106.512 47.7449 107.032C48.1868 107.473 49.0836 107.551 49.5256 107.032C49.7205 106.811 49.8895 106.577 50.0585 106.343C49.9415 106.85 50.2274 107.46 50.6563 107.72Z" fill="#F4F5FA"/>
<path d="M104.815 97.8012C98.7974 99.6187 92.546 100.411 86.2556 100.151C84.644 100.086 84.644 102.592 86.2556 102.657C86.8274 102.683 87.3993 102.695 87.9711 102.695C87.2303 103.02 86.5155 103.371 85.8137 103.76C84.397 104.539 85.6577 106.707 87.0874 105.928C88.556 105.11 90.0896 104.474 91.7142 104.007C92.442 103.799 92.676 103.15 92.572 102.579C96.9519 102.28 101.293 101.501 105.504 100.229C107.024 99.7485 106.362 97.3339 104.815 97.8012Z" fill="#F4F5FA"/>
<path d="M158.608 65.3069C159.544 65.5796 160.389 65.0733 160.818 64.2424C162.144 61.633 162.456 55.9728 158.868 54.9082C155.151 53.8048 156.529 62.1912 156.984 63.4894C157.27 64.2684 157.777 65.0603 158.608 65.3069Z" fill="#F4F5FA"/>
<path d="M159.856 72.7976C158.79 74.6541 157.959 76.6403 157.387 78.7045C156.958 80.2624 159.375 80.9244 159.804 79.3666C160.324 77.4972 161.052 75.7316 162.014 74.0569C162.833 72.6548 160.662 71.3955 159.856 72.7976Z" fill="#F4F5FA"/>
<path d="M165.457 56.3882C167.186 53.4153 168.681 50.3255 169.98 47.1319C170.24 46.5088 169.707 45.7558 169.109 45.587C168.395 45.3923 167.823 45.8337 167.563 46.4568C166.341 49.4427 164.911 52.3248 163.287 55.1159C162.481 56.518 164.638 57.7902 165.457 56.3882Z" fill="#F4F5FA"/>
<path d="M168.433 52.2469C167.12 54.337 165.808 56.4272 164.482 58.5043C163.741 59.6857 165.262 60.7892 166.237 60.179C166.068 60.4257 165.899 60.6853 165.717 60.932C164.807 62.2691 166.977 63.5284 167.887 62.2042C167.926 62.1393 167.965 62.0744 168.017 62.0225C168.394 62.7884 169.655 63.1389 170.292 62.1912C171.111 60.9839 171.929 59.7766 172.735 58.5692C173.372 57.6345 172.488 56.7257 171.592 56.7387C171.631 56.6868 171.657 56.6349 171.696 56.5829C172.605 55.2458 170.435 53.9865 169.525 55.3107C169.109 55.9338 168.68 56.544 168.264 57.1671C169.031 55.9468 169.811 54.7135 170.578 53.4932C171.462 52.143 169.291 50.8838 168.433 52.2469Z" fill="#F4F5FA"/>
<path d="M42.7553 125.362C43.4702 126.141 44.8869 127.439 45.9267 126.661C46.8365 125.973 46.2517 119.455 44.237 116.236C42.4824 113.432 37.9333 108.55 36.2566 109.005C35.1648 109.303 33.6571 115.457 42.7553 125.362Z" fill="#F4F5FA"/>
<path d="M72.8161 134.242C76.5722 135.566 80.5492 134.761 84.3702 134.229C85.384 134.086 86.4367 133.969 87.4894 133.944L90.4007 134.125C91.6094 134.333 92.7791 134.748 93.8448 135.462C95.1835 136.371 96.4442 134.19 95.1185 133.294C92.1292 131.282 88.3862 131.23 84.9291 131.646C81.147 132.1 77.209 133.139 73.492 131.827C71.9583 131.295 71.3085 133.71 72.8161 134.242Z" fill="#F4F5FA"/>
<path d="M7.10433 148.328C-0.550747 151.768 -2.01938 164.958 3.99811 171.877C5.75266 173.903 12.9269 180.523 13.6547 179.342C15.4482 176.408 17.3717 171.423 17.3717 165.295C17.3717 160.479 13.3558 145.511 7.10433 148.328Z" fill="#F4F5FA"/>
<path d="M32.2029 169.216C29.0445 171.942 25.5482 174.214 21.8049 176.045C20.3492 176.759 21.623 178.914 23.0787 178.213C27.0169 176.291 30.6692 173.851 33.9836 170.982C35.1924 169.93 33.4117 168.165 32.2029 169.216Z" fill="#F4F5FA"/>
<path d="M35.8656 172.163C33.526 173.292 31.1735 174.422 28.8339 175.551C28.2231 175.85 28.0541 176.72 28.379 177.265C28.743 177.888 29.4838 178.005 30.0947 177.719C32.4342 176.59 34.7868 175.46 37.1263 174.331C37.7372 174.032 37.9062 173.163 37.5813 172.617C37.2173 171.994 36.4765 171.877 35.8656 172.163Z" fill="#F4F5FA"/>
<path d="M180.741 158.129C180.559 157.805 180.286 157.519 179.948 157.324C179.221 156.909 178.311 157.013 177.505 157.026C175.75 157.039 173.996 157.052 172.228 157.078C158.127 157.208 144.025 157.402 129.924 157.584C121.97 157.688 114.029 157.74 106.075 157.818C98.5238 157.896 90.7128 158.662 83.2007 158.246C83.8245 157.311 84.2274 156.234 84.1754 155.078C84.1494 154.481 83.7985 154.066 83.2527 153.871C80.1335 152.703 76.8323 153.689 73.6611 153.001C69.7491 152.158 66.175 147.99 63.4846 145.277C58.8968 140.655 55.0238 134.904 49.8121 130.958C48.4604 129.932 46.5759 128.621 44.7694 128.958C43.2487 129.244 40.5974 132.282 41.988 133.645C47.7066 139.292 53.4122 144.965 59.1437 150.587C62.068 153.443 65.2392 156.377 68.8653 158.389C67.5656 158.129 66.2659 157.883 64.9533 157.649C59.1307 156.584 53.3082 155.507 47.4467 154.702C44.5614 154.3 41.6371 154.183 38.7519 153.754C38.5439 151.534 32.2405 150.431 30.395 149.652C28.9133 149.029 26.392 147.224 24.6894 147.679C22.0121 148.406 24.9623 150.171 26.08 150.678C28.2765 151.677 31.3047 153.365 33.7091 153.599C32.2665 153.599 26.6259 152.923 26.301 154.871C25.8721 157.389 30.6159 156.169 31.8116 156.104C34.7749 155.935 37.5692 156.247 40.4804 156.584C46.8488 157.311 53.1003 158.038 59.3907 159.181C67.7736 160.7 76.0395 162.543 84.3184 164.53C83.7985 170.592 84.2404 176.707 85.5661 182.653C85.917 184.223 88.3344 183.561 87.9835 181.99C86.7488 176.447 86.3459 170.761 86.7748 165.114C90.0889 165.854 93.4161 166.464 96.8213 166.827C100.863 167.256 104.931 167.373 108.986 167.191C113.691 171.306 117.46 176.473 119.838 182.25C120.475 183.782 121.008 185.366 121.437 186.963C121.905 188.65 122.269 190.377 122.906 192.013C124.049 194.986 126.025 197.387 128.728 199.088C131.626 200.931 135.084 201.827 138.489 201.944C139.658 201.983 140.035 200.581 139.373 199.802C135.214 194.856 131.432 189.611 128.052 184.107C125.349 179.706 122.958 175.149 120.761 170.488C121.177 171.085 123.179 174.85 125.583 174.526C133.667 173.409 179.286 166.672 178.987 162.595C178.948 161.375 181.833 160.44 180.741 158.129ZM81.1992 159.999C81.3291 160.466 81.7191 160.843 82.3559 160.817C82.5898 160.804 82.8108 160.804 83.0447 160.791C83.0707 160.804 83.0837 160.804 83.1097 160.817C83.8895 161.115 84.6693 161.388 85.4621 161.647C85.4101 161.66 85.3451 161.673 85.2931 161.699L81.771 161.297C80.9522 161.089 80.1334 160.882 79.3147 160.687C79.9775 160.557 80.6143 160.336 81.1992 159.999Z" fill="#F4F5FA"/>
<path d="M178.492 154.858L209.814 107.538H120.318L88.9961 154.858H178.492ZM154.954 126.349C157.632 126.349 159.802 128.517 159.802 131.191C159.802 133.866 157.632 136.034 154.954 136.034C152.277 136.034 150.107 133.866 150.107 131.191C150.107 128.517 152.277 126.349 154.954 126.349Z" fill="#F4F5FA"/>
<path d="M68.0995 184.73C64.1615 191.545 58.8848 200.516 55.7656 204.865C65.5132 205.93 74.312 193.35 82.7728 188.988C85.6191 187.521 88.6863 186.547 91.7276 185.574C92.3254 185.379 92.7153 184.821 92.6244 184.197C92.5464 183.639 69.6331 184.691 68.0995 184.73Z" fill="#F4F5FA"/>
<path d="M66.1097 81.8981C65.2908 80.509 63.1072 81.7683 63.9391 83.1703C63.9781 83.2482 64.0171 83.3131 64.0691 83.391C64.0301 83.5079 63.9911 83.6377 63.9911 83.7805C63.5751 90.5572 61.5605 97.1002 59.39 103.5C58.8441 105.11 58.2982 106.707 57.7523 108.317C57.2064 109.914 56.6345 111.51 56.4005 113.185C56.1666 114.847 56.3356 116.457 56.9984 118.001C57.5963 119.404 58.5061 120.637 59.455 121.818C60.3388 122.922 61.2876 123.973 62.1584 125.09C62.8863 126.024 63.9391 127.868 65.3948 127.465C66.3306 127.206 66.7076 126.193 66.8895 125.349C67.1235 124.337 67.2144 123.298 67.2924 122.273C67.3834 121.156 67.4874 120.027 67.4874 118.91C67.4874 117.119 67.2924 115.34 67.0975 113.549C66.7205 110.043 66.5386 106.642 66.9935 103.137C67.9033 96.1135 70.0089 88.4541 66.1097 81.8981Z" fill="#F4F5FA"/>
<path d="M111.923 19.1035C110.844 18.7659 109.739 19.5449 109.414 20.5704C109.167 21.3883 109.232 22.349 109.141 23.1928C109.037 24.2054 108.881 25.1921 108.686 26.1917C108.296 28.139 107.751 30.0604 107.036 31.9168C106.347 33.7084 105.515 35.461 105.203 37.3693C104.943 38.9402 105.047 40.7447 106.23 41.952C107.491 43.2373 109.453 43.0945 110.87 42.1727C113.859 40.2124 114.73 36.162 114.782 32.8386C114.834 30.4758 112.716 19.3501 111.923 19.1035Z" fill="#E0FFEC"/>
<path d="M109.545 15.5464C110.896 13.9755 111.143 11.8075 110.389 9.89911C109.61 7.93881 107.985 6.54972 106.126 5.62798C102.123 3.6547 97.1457 2.52525 92.8828 4.27784C88.9188 5.91359 85.7866 9.25001 83.4342 12.7422C81.1077 16.1955 79.4961 20.168 78.7553 24.2704C78.3394 26.5812 78.1575 28.9439 78.2874 31.2807C78.4304 33.7214 78.8203 36.2788 80.263 38.317C80.6529 38.8753 81.3547 39.1349 81.9785 38.7714C82.2385 38.6156 82.4334 38.356 82.5374 38.0574C82.7583 38.3949 82.9923 38.7325 83.2392 39.057C84.3439 40.498 85.7606 42.1468 87.6971 42.2896C90.1665 42.4843 90.7253 39.9398 90.8683 38.0314C91.0372 35.8115 90.6603 33.5786 90.3224 31.3846C89.6596 27.0745 89.6076 22.8293 90.6993 18.5842C90.9203 17.7274 91.1802 16.8965 91.4661 16.0656C93.2987 17.0912 95.4821 17.4937 97.5876 17.6495C98.2634 21.1157 109.181 15.9618 109.545 15.5464Z" fill="#E0FFEC"/>
<path d="M167.057 33.9137C171.128 29.8476 171.128 23.2552 167.057 19.1891C162.986 15.123 156.387 15.123 152.316 19.1891C148.245 23.2552 148.245 29.8476 152.316 33.9137C156.387 37.9798 162.986 37.9798 167.057 33.9137Z" fill="#E0FFEC"/>
<path d="M163.884 39.8879C163.65 39.2777 163.026 38.7844 162.337 39.0181C161.739 39.2128 161.206 39.9009 161.466 40.563C161.661 41.0693 161.856 41.5626 162.051 42.0689C162.285 42.6791 162.909 43.1724 163.598 42.9387C164.195 42.744 164.728 42.0559 164.468 41.3938C164.273 40.9005 164.079 40.3942 163.884 39.8879Z" fill="#E0FFEC"/>
<path d="M173.632 66.0209C173.203 64.6708 172.787 63.3336 172.358 61.9835C171.877 60.4516 169.447 61.1007 169.941 62.6456C170.37 63.9957 170.786 65.3329 171.215 66.683C171.696 68.2149 174.126 67.5658 173.632 66.0209Z" fill="#E0FFEC"/>
<path d="M152.254 15.4036C152.774 14.9752 152.709 14.0794 152.254 13.625C151.734 13.1057 151.006 13.1836 150.473 13.625C148.237 15.4944 146.418 17.8442 145.183 20.4796C144.897 21.0897 145.014 21.8297 145.638 22.1932C146.184 22.5048 147.068 22.362 147.354 21.7388C148.51 19.2852 150.148 17.1562 152.254 15.4036Z" fill="#E0FFEC"/>
<path d="M91.0759 35.8894C93.3504 40.0177 99.0949 41.277 102.708 38.1093C104.515 36.5255 105.723 34.2536 106.685 32.0856C107.79 29.606 108.609 27.0096 109.219 24.3742C109.947 21.2066 110.389 17.974 110.558 14.7415C110.584 14.2351 109.804 14.2481 109.778 14.7415C109.518 19.8564 108.596 25.0103 106.776 29.8267C105.294 33.7603 102.76 39.3037 97.7692 39.1739C95.2609 39.1089 92.9345 37.6809 91.7258 35.4999C91.5178 35.0455 90.842 35.448 91.0759 35.8894Z" fill="#002464"/>
<path d="M95.3654 21.1416C96.8731 20.8301 98.4068 21.0248 99.7845 21.7258C100.226 21.9465 100.629 21.2844 100.174 21.0508C98.6017 20.2589 96.8731 20.0382 95.1574 20.3887C94.6635 20.4925 94.8715 21.2455 95.3654 21.1416Z" fill="#002464"/>
<path d="M97.2511 23.4135C97.1212 23.9718 96.9912 24.53 96.8482 25.0882C96.7312 25.5815 97.4851 25.7893 97.6021 25.2959C97.7321 24.7377 97.862 24.1795 98.005 23.6212C98.109 23.1409 97.3681 22.9332 97.2511 23.4135Z" fill="#002464"/>
<path d="M107.178 20.882C106.152 20.9599 104.839 20.8561 103.981 21.5181C103.331 22.0244 103.149 22.8553 103.123 23.6472C103.097 24.8026 103.266 25.958 103.305 27.1134C103.318 27.5808 103.344 28.165 103.058 28.5674C102.746 28.9959 102.083 29.0218 101.629 29.2425C101.174 29.4502 101.564 30.1253 102.018 29.9176C102.811 29.5411 103.565 29.5281 103.916 28.5934C104.228 27.7626 104.059 26.7889 104.007 25.9321C103.942 24.9584 103.708 23.803 103.994 22.8553C104.397 21.5571 106.087 21.7518 107.165 21.6739C107.685 21.635 107.685 20.856 107.178 20.882Z" fill="#002464"/>
<path d="M105.686 24.9714C105.608 25.4907 105.478 25.997 105.296 26.4903C105.127 26.9576 105.881 27.1653 106.05 26.698C106.232 26.2047 106.362 25.6984 106.44 25.1791C106.518 24.6987 105.764 24.478 105.686 24.9714Z" fill="#002464"/>
<path d="M97.4714 31.0211C98.2122 32.3712 99.6939 32.7347 101.124 32.9165C101.618 32.9814 101.618 32.2024 101.124 32.1375C99.9799 31.9947 98.7451 31.7221 98.1472 30.6186C97.9003 30.1902 97.2244 30.5797 97.4714 31.0211Z" fill="#002464"/>
<path d="M102.489 37.3304C101.605 40.9524 100.968 44.5745 100.461 48.2614C100.396 48.7547 101.15 48.9624 101.215 48.4691C101.722 44.7822 102.359 41.1601 103.242 37.5381C103.359 37.0448 102.606 36.8371 102.489 37.3304Z" fill="#002464"/>
<path d="M82.1741 45.587C86.8269 50.3385 94.274 51.9613 100.486 49.5466C100.954 49.3648 100.746 48.6119 100.279 48.7936C94.313 51.1044 87.2038 49.5985 82.7199 45.0288C82.382 44.6783 81.8232 45.2235 82.1741 45.587Z" fill="#002464"/>
<path d="M85.294 50.2217C88.7644 53.4542 93.7164 53.2725 98.1096 52.7142C98.6035 52.6493 98.6035 51.8704 98.1096 51.9353C93.9504 52.4546 89.1543 52.7402 85.8529 49.6634C85.489 49.3259 84.9301 49.8712 85.294 50.2217Z" fill="#002464"/>
<path d="M79.4692 43.1983C75.3493 44.4706 71.2553 45.8467 67.1613 47.1838C63.0674 48.521 58.8824 49.5855 55.1523 51.8185C53.4368 52.8441 52.0721 53.8826 50.8634 55.4665C49.7067 56.9854 48.719 58.6341 47.7702 60.2958C45.1319 64.9564 42.8964 69.8507 40.778 74.7709C38.4385 80.1845 36.2551 85.6759 34.2406 91.2323C32.642 95.6332 31.0824 100.086 29.8867 104.617C29.7827 105.019 29.6788 105.435 29.5748 105.837C29.4578 106.331 30.2116 106.538 30.3286 106.045C31.3423 101.8 32.772 97.6584 34.2276 93.5561C36.1511 88.1295 38.2306 82.7679 40.466 77.4582C42.5975 72.3952 44.8459 67.3711 47.4323 62.5287C48.4071 60.6983 49.4468 58.8678 50.6165 57.1541C51.3833 56.0247 52.2281 54.8303 53.3198 53.9735C54.8144 52.8181 56.543 51.8704 58.2586 51.0785C60.2861 50.1438 62.4305 49.5466 64.562 48.8715C68.539 47.5993 72.49 46.2491 76.467 44.9769C77.5327 44.6393 78.5985 44.3018 79.6642 43.9773C80.1581 43.7955 79.9501 43.0425 79.4692 43.1983Z" fill="#002464"/>
<path d="M31.7058 107.564C33.4993 106.655 35.7348 106.655 37.6323 107.265C39.4908 107.862 40.7775 109.498 42.5191 110.342C44.6375 111.368 46.9249 110.887 49.1604 110.667C51.0449 110.485 53.4233 110.576 54.632 112.289C54.9179 112.692 55.5938 112.302 55.3078 111.9C53.1764 108.875 49.1344 110.069 46.0672 110.199C44.9884 110.238 43.8967 110.134 42.909 109.667C42.0902 109.277 41.3623 108.706 40.6475 108.148C39.3998 107.2 38.2041 106.486 36.6315 106.227C34.838 105.928 32.9535 106.058 31.3029 106.889C30.874 107.122 31.2639 107.798 31.7058 107.564Z" fill="#002464"/>
<path d="M63.9523 82.1837C63.1725 90.4274 61.4178 98.5802 58.7403 106.408C57.9865 108.628 57.1416 110.809 56.2448 112.977C56.0498 113.445 56.8037 113.639 56.9987 113.185C60.2221 105.474 62.5356 97.3858 63.8613 89.1292C64.2253 86.8183 64.5242 84.5075 64.7452 82.1837C64.7712 81.6904 63.9913 81.6904 63.9523 82.1837Z" fill="#002464"/>
<path d="M100.876 47.08C104.58 49.274 108.232 51.5588 111.806 53.9605C115.081 56.1545 118.382 58.4394 120.877 61.5291C123.451 64.7098 125.088 68.5525 126.726 72.2784C128.494 76.3158 130.157 80.4052 131.756 84.5205C133.536 89.0902 135.239 93.6989 136.928 98.3076C137.097 98.7749 137.851 98.5672 137.682 98.0998C134.615 89.8043 131.548 81.5087 128.052 73.3948C126.414 69.591 124.802 65.6575 122.385 62.2561C120.098 59.0236 116.991 56.5829 113.755 54.363C109.687 51.5718 105.515 48.9364 101.265 46.4309C100.837 46.1453 100.447 46.8204 100.876 47.08Z" fill="#002464"/>
<path d="M174.711 12.5734C176.44 10.6521 178.168 9.57455 178.168 9.57455" stroke="#002464" stroke-width="0.909825" stroke-miterlimit="10" stroke-linecap="round" stroke-linejoin="round"/>
<path d="M178.414 20.168C181.118 19.1684 183.808 19.1684 183.808 19.1684" stroke="#002464" stroke-width="0.909825" stroke-miterlimit="10" stroke-linecap="round" stroke-linejoin="round"/>
<path d="M132.068 26.5552C132.068 26.5552 134.941 26.5163 137.826 27.6457" stroke="#002464" stroke-width="0.909825" stroke-miterlimit="10" stroke-linecap="round" stroke-linejoin="round"/>
<path d="M135.852 36.9669C135.852 36.9669 138.373 34.1757 140.882 32.6958" stroke="#002464" stroke-width="0.909825" stroke-miterlimit="10" stroke-linecap="round" stroke-linejoin="round"/>
<path d="M112.301 75.8874C111.768 79.7171 112.002 83.5728 111.989 87.4285C111.976 89.4148 111.911 91.414 111.586 93.3873C111.287 95.2827 110.741 97.1262 110.091 98.9307C109.285 101.19 108.362 103.384 107.609 105.655C106.686 108.395 105.867 111.173 105.139 113.977C104.138 117.833 103.332 121.74 102.851 125.7C102.787 126.193 103.566 126.193 103.631 125.7C104.424 119.183 106.088 112.744 108.128 106.512C108.817 104.409 109.623 102.358 110.416 100.281C111.092 98.4893 111.703 96.6718 112.106 94.8023C112.496 92.9459 112.665 91.0635 112.73 89.1681C112.873 84.8061 112.444 80.4311 113.042 76.0951C113.12 75.6018 112.379 75.394 112.301 75.8874Z" fill="#002464"/>
<path d="M114.835 86.6755C115.55 85.4682 116.316 84.2998 117.148 83.1703C117.447 82.7679 116.771 82.3784 116.472 82.7809C115.654 83.9103 114.874 85.0787 114.159 86.2861C113.912 86.7145 114.588 87.1039 114.835 86.6755Z" fill="#002464"/>
<path d="M115.38 88.5709C116.251 87.753 117.226 87.1039 118.318 86.6236C118.773 86.4159 118.383 85.7538 117.928 85.9485C116.784 86.4548 115.744 87.1558 114.834 88.0257C114.457 88.3632 115.016 88.9084 115.38 88.5709Z" fill="#002464"/>
<path d="M106.102 98.723C100.111 100.411 93.8986 101.125 87.6731 100.878C87.1663 100.852 87.1663 101.631 87.6731 101.657C93.9635 101.917 100.254 101.177 106.31 99.4759C106.791 99.3461 106.583 98.5932 106.102 98.723Z" fill="#002464"/>
<path d="M91.1282 102.981C89.4255 103.358 87.7748 103.942 86.2021 104.695C85.7472 104.915 86.1501 105.591 86.592 105.37C88.1127 104.643 89.6854 104.098 91.3361 103.734C91.817 103.63 91.6221 102.877 91.1282 102.981Z" fill="#002464"/>
<path d="M140.388 99.6317C144.157 91.3621 148.004 83.1444 151.93 74.9527C153.047 72.6419 154.165 70.318 155.283 68.0072C155.504 67.5529 154.828 67.1634 154.607 67.6178C150.63 75.7835 146.731 83.9883 142.922 92.2319C141.844 94.5687 140.765 96.9055 139.699 99.2423C139.504 99.6837 140.18 100.086 140.388 99.6317Z" fill="#002464"/>
<path d="M155.461 65.8262C155.136 63.1908 154.812 60.5555 154.5 57.9071C154.357 56.6478 154.214 55.3366 154.578 54.0903C154.916 52.922 155.669 51.9223 156.449 51.0266C158.1 49.1441 159.907 47.3916 161.739 45.6909C162.662 44.8341 163.611 43.9773 164.547 43.1334C165.028 42.705 165.69 41.952 166.236 42.731C166.678 43.3541 166.275 44.2369 166.002 44.8471C164.95 47.2098 163.364 49.287 161.427 50.9876C161.05 51.3122 161.596 51.8704 161.973 51.5329C163.962 49.7933 165.586 47.6512 166.665 45.2365C167.107 44.2369 167.562 42.9517 166.665 42.0559C165.755 41.1342 164.846 41.8092 164.066 42.5103C161.856 44.5095 159.647 46.5088 157.567 48.6508C155.747 50.5332 153.759 52.5195 153.551 55.2717C153.421 56.9854 153.785 58.7509 153.993 60.4516C154.214 62.2431 154.422 64.0347 154.643 65.8262C154.747 66.3195 155.526 66.3195 155.461 65.8262Z" fill="#002464"/>
<path d="M167.94 45.7169C168.954 45.2106 169.603 46.5088 169.564 47.3267C169.512 48.3003 169.045 49.3 168.642 50.1827C167.862 51.8574 166.848 53.4542 165.613 54.8303C165.028 55.4795 164.365 56.1026 163.573 56.4921C162.975 56.7906 162.676 56.8166 162.715 56.0377C162.728 55.5184 162.923 54.9991 163.144 54.5188C163.989 52.6104 165.002 50.754 165.938 48.8715C166.159 48.4301 165.483 48.0277 165.262 48.4821C164.274 50.4813 163.131 52.4676 162.299 54.5318C162 55.2588 161.714 56.3233 162.117 57.0763C162.494 57.7773 163.326 57.4657 163.885 57.1931C165.548 56.4012 166.783 54.7784 167.784 53.2855C168.85 51.7017 169.967 49.7543 170.292 47.8459C170.448 46.9761 170.331 46.0284 169.655 45.3923C169.071 44.8471 168.278 44.6783 167.55 45.0288C167.095 45.2625 167.485 45.9376 167.94 45.7169Z" fill="#002464"/>
<path d="M169.499 49.9361C170.33 49.9231 169.823 52.6493 169.707 53.1037C169.447 54.2202 168.979 55.2717 168.368 56.2324C167.367 57.8292 166.197 59.0885 164.65 60.153C164.235 60.4386 164.624 61.1137 165.04 60.8281C167.029 59.452 168.628 57.6734 169.681 55.4665C170.265 54.2461 170.629 52.9349 170.694 51.5848C170.733 50.728 170.707 49.1441 169.486 49.1571C168.992 49.1701 168.992 49.949 169.499 49.9361Z" fill="#002464"/>
<path d="M170.357 53.6879C172.476 53.9865 170.552 57.8552 169.941 58.7769C168.927 60.3088 167.485 61.5291 165.938 62.5028C165.509 62.7754 165.899 63.4375 166.328 63.1778C168.265 61.9575 170.045 60.3737 171.111 58.3225C171.826 56.9724 173.074 53.2855 170.565 52.9349C170.071 52.87 169.863 53.623 170.357 53.6879Z" fill="#002464"/>
<path d="M171.865 56.3882C173.515 56.8815 171.722 59.5429 171.202 60.3218C170.37 61.5551 169.304 62.6326 168.095 63.5154C167.692 63.814 168.082 64.4891 168.485 64.1905C170.084 63.0221 171.449 61.5421 172.424 59.8155C173.125 58.5822 174.048 56.2324 172.06 55.6352C171.592 55.4924 171.384 56.2454 171.865 56.3882Z" fill="#002464"/>
<path d="M162.623 59.2962C163.156 61.9575 162.974 64.6708 162.103 67.2413C161.947 67.7216 162.701 67.9163 162.857 67.449C163.767 64.7487 163.936 61.8796 163.377 59.0885C163.286 58.5952 162.532 58.8029 162.623 59.2962Z" fill="#002464"/>
<path d="M169.654 64.9175C169.277 67.4879 168.224 69.9026 166.547 71.9019C166.223 72.2783 166.781 72.8366 167.093 72.4471C168.848 70.344 169.992 67.8384 170.395 65.1252C170.473 64.6318 169.719 64.4241 169.654 64.9175Z" fill="#002464"/>
<path d="M165.756 73.7583C163.052 82.3135 160.803 90.9986 159.01 99.7745C158.906 100.268 159.66 100.476 159.764 99.9822C161.557 91.1933 163.819 82.5083 166.509 73.966C166.652 73.4857 165.911 73.2779 165.756 73.7583Z" fill="#002464"/>
<path d="M160.427 73.8232C159.543 75.6147 158.802 77.4582 158.217 79.3666C158.074 79.8469 158.828 80.0546 158.971 79.5743C159.543 77.7308 160.245 75.9393 161.103 74.2127C161.324 73.7713 160.648 73.3818 160.427 73.8232Z" fill="#002464"/>
<path d="M67.5007 150.807C69.1124 152.859 71.4519 154.326 74.0255 154.819C77.0929 155.403 80.2902 154.689 83.2927 155.663C83.7736 155.818 83.9815 155.066 83.5006 154.91C80.6542 154.001 77.6647 154.572 74.7663 154.157C72.1018 153.78 69.7103 152.365 68.0596 150.249C67.7477 149.86 67.2018 150.418 67.5007 150.807Z" fill="#002464"/>
<path d="M77.9749 151.807C80.2365 151.599 82.485 151.989 84.5257 152.962C84.9806 153.183 85.3705 152.508 84.9156 152.287C82.745 151.249 80.3665 150.807 77.9749 151.015C77.481 151.08 77.468 151.859 77.9749 151.807Z" fill="#002464"/>
<path d="M80.9769 149.133C82.9135 149.003 84.8371 149.314 86.6178 150.08C87.0727 150.275 87.4756 149.613 87.0077 149.405C85.0971 148.574 83.0565 148.211 80.9769 148.341C80.483 148.393 80.47 149.172 80.9769 149.133Z" fill="#002464"/>
<path d="M76.3115 144.537C78.4561 144.823 80.6007 145.108 82.7453 145.394C83.7981 145.537 84.8509 145.666 85.9037 145.822C86.7095 145.939 87.6453 146.108 88.0872 146.874C88.3472 147.302 89.0101 146.913 88.7631 146.484C87.8143 144.888 85.3838 144.978 83.7721 144.771C81.2766 144.433 78.794 144.109 76.2985 143.771C75.8176 143.68 75.8176 144.459 76.3115 144.537Z" fill="#002464"/>
<path d="M35.2164 107.122C33.6438 113.601 37.2699 119.702 41.4808 124.324C43.8332 126.907 46.4066 129.296 48.876 131.763C51.4753 134.346 54.0357 136.955 56.596 139.591C59.4943 142.59 62.3796 145.602 65.2259 148.652C65.5638 149.016 66.1226 148.471 65.7717 148.107C60.885 142.875 55.9072 137.721 50.8515 132.645C48.4471 130.231 45.9777 127.868 43.5993 125.427C41.3509 123.129 39.1934 120.676 37.6728 117.833C35.9702 114.639 35.0864 110.9 35.9572 107.317C36.0872 106.85 35.3464 106.642 35.2164 107.122Z" fill="#002464"/>
<path d="M53.1 112.406C58.8186 120.273 64.5501 128.141 70.2687 136.008C71.8933 138.241 73.5049 140.461 75.1295 142.694C75.4154 143.096 76.1042 142.707 75.8053 142.304C70.0867 134.437 64.3552 126.57 58.6366 118.703C57.012 116.47 55.4004 114.25 53.7758 112.017C53.4769 111.614 52.8011 112.004 53.1 112.406Z" fill="#002464"/>
<path d="M72.3885 134.567C79.3678 136.981 86.7239 133.749 93.8071 135.294C94.301 135.398 94.5089 134.645 94.0151 134.541C86.9448 132.996 79.5497 136.215 72.5965 133.814C72.1156 133.645 71.9206 134.398 72.3885 134.567Z" fill="#002464"/>
<path d="M81.8489 133.36C82.6808 133.36 83.5126 133.36 84.3445 133.36C84.8514 133.36 84.8514 132.58 84.3445 132.58C83.5126 132.58 82.6808 132.58 81.8489 132.58C81.342 132.58 81.342 133.36 81.8489 133.36Z" fill="#002464"/>
<path d="M44.9397 129.153C39.2341 131.802 33.5286 134.45 27.823 137.098C24.9377 138.435 22.0395 139.786 19.1542 141.123C16.9057 142.174 14.6443 143.213 12.4609 144.394C8.50986 146.536 4.61084 149.25 2.23243 153.157C-0.119973 157.039 -0.470888 161.673 0.880772 165.971C2.25843 170.32 5.13071 174.149 8.75679 176.889C12.9677 180.069 18.1404 181.796 23.2741 182.808C28.8367 183.912 34.5293 184.301 40.1829 184.639C46.4343 185.015 52.6857 185.184 58.9502 185.197C71.479 185.223 84.0079 184.652 96.5237 184.016C98.0703 183.938 99.6039 183.86 101.151 183.782C101.644 183.756 101.657 182.977 101.151 183.003C88.9336 183.639 76.7167 184.262 64.4868 184.405C58.4043 184.47 52.3088 184.418 46.2264 184.172C40.3648 183.938 34.4773 183.6 28.6418 182.886C23.4171 182.237 18.1534 181.16 13.4096 178.81C9.10771 176.681 5.45563 173.474 3.12921 169.242C0.971755 165.295 0.113971 160.57 1.63459 156.26C3.1682 151.911 6.76829 148.756 10.5893 146.406C14.9822 143.693 19.817 141.707 24.4828 139.539C30.0714 136.942 35.66 134.359 41.2486 131.763C42.6133 131.126 43.9779 130.49 45.3556 129.854C45.7845 129.608 45.3946 128.932 44.9397 129.153Z" fill="#002464"/>
<path d="M27.1067 155.299C38.9727 154.949 50.8777 155.702 62.6138 157.545C68.4103 158.467 74.1679 159.648 79.8605 161.089C85.553 162.543 91.1936 164.348 97.0291 165.192C100.239 165.659 103.502 165.841 106.738 165.464C109.961 165.088 113.236 163.984 116.498 164.685C116.992 164.789 117.2 164.036 116.706 163.932C113.899 163.335 111.118 163.984 108.336 164.452C105.399 164.945 102.423 164.984 99.4725 164.698C93.52 164.127 87.7625 162.348 82.0049 160.817C70.5808 157.792 58.8707 155.818 47.0827 154.936C40.4414 154.442 33.7741 154.287 27.1067 154.481C26.6129 154.533 26.6129 155.312 27.1067 155.299Z" fill="#002464"/>
<path d="M103.073 183.406C108.038 185.716 112.795 188.482 117.253 191.649C119.527 193.272 121.698 195.038 123.881 196.79C125.987 198.478 128.144 200.127 130.549 201.373C133.213 202.749 136.163 203.606 139.191 203.424C139.685 203.398 139.698 202.619 139.191 202.645C133.512 202.996 128.651 199.62 124.427 196.232C120.294 192.908 116.122 189.715 111.56 187.002C108.935 185.444 106.245 184.016 103.476 182.73C103.008 182.523 102.619 183.198 103.073 183.406Z" fill="#002464"/>
<path d="M116.146 164.465C122.306 174.123 128.311 183.873 134.172 193.713C135.823 196.479 137.46 199.257 139.085 202.048C139.332 202.476 140.008 202.087 139.761 201.658C133.99 191.766 128.064 181.965 121.994 172.267C120.279 169.541 118.563 166.814 116.835 164.088C116.549 163.66 115.873 164.049 116.146 164.465Z" fill="#002464"/>
<path d="M107.036 165.451C112.989 171.735 117.823 179.056 121.254 187.002C122.229 189.273 123.087 191.584 123.841 193.934C123.997 194.414 124.751 194.207 124.595 193.726C121.943 185.379 117.836 177.525 112.469 170.592C110.935 168.606 109.31 166.71 107.582 164.893C107.244 164.529 106.698 165.088 107.036 165.451Z" fill="#002464"/>
<path d="M25.6893 150.041C29.4456 151.405 33.2669 152.573 37.1401 153.534C37.621 153.65 37.829 152.898 37.3481 152.781C33.4748 151.82 29.6536 150.652 25.8973 149.288C25.4164 149.12 25.2214 149.873 25.6893 150.041Z" fill="#002464"/>
<path d="M85.2266 165.516C85.3565 171.358 85.8375 177.187 86.6173 182.99C86.6823 183.483 87.4361 183.276 87.3711 182.782C86.5913 177.057 86.1364 171.293 86.0064 165.516C86.0064 165.023 85.2266 165.023 85.2266 165.516Z" fill="#002464"/>
<path d="M68.0201 184.95C63.4972 191.922 58.7664 198.75 53.8276 205.423C53.6067 205.722 53.9706 206.046 54.2695 205.995C57.1158 205.475 59.9881 204.93 62.7304 203.943C65.3687 202.983 67.7081 201.568 69.7486 199.646C71.9321 197.595 73.9726 195.427 76.364 193.597C78.5864 191.883 80.9908 190.39 83.4862 189.118C86.4104 187.638 89.5037 186.482 92.6879 185.664C93.1687 185.535 92.9738 184.795 92.4799 184.912C86.9953 186.314 81.7836 188.728 77.1827 192.026C74.8303 193.7 72.6989 195.622 70.6714 197.66C69.5927 198.737 68.5139 199.828 67.2792 200.724C66.1225 201.568 64.8489 202.256 63.5232 202.814C60.5079 204.073 57.2588 204.67 54.0616 205.255C54.2045 205.449 54.3605 205.631 54.5035 205.826C59.4422 199.153 64.186 192.324 68.6959 185.353C68.9688 184.924 68.293 184.535 68.0201 184.95Z" fill="#002464"/>
<path d="M76.366 184.821C75.0533 186.482 73.9875 188.3 73.1686 190.26C72.9737 190.727 73.7275 190.922 73.9225 190.468C74.6893 188.637 75.7031 186.924 76.9249 185.379C77.2238 184.989 76.678 184.431 76.366 184.821Z" fill="#002464"/>
<path d="M69.5929 185.924C66.2786 190.805 62.9642 195.687 59.6628 200.568C59.3769 200.983 60.0528 201.373 60.3387 200.957C63.6531 196.076 66.9674 191.195 70.2688 186.314C70.5547 185.911 69.8789 185.522 69.5929 185.924Z" fill="#002464"/>
<path d="M120.489 175.201C125.247 182.692 129.809 190.312 134.189 198.036C134.436 198.478 135.112 198.075 134.865 197.647C130.485 189.923 125.922 182.315 121.165 174.811C120.892 174.383 120.217 174.772 120.489 175.201Z" fill="#002464"/>
<path d="M126.986 174.214C134.498 172.981 142.023 171.735 149.535 170.501C153.291 169.878 157.047 169.268 160.803 168.645C164.156 168.1 167.535 167.632 170.85 166.879C174.164 166.126 177.4 164.945 180.064 162.777C180.454 162.465 179.895 161.907 179.518 162.232C177.114 164.192 174.164 165.282 171.174 166.009C167.951 166.788 164.65 167.23 161.375 167.775C154.032 168.982 146.689 170.19 139.345 171.397C135.161 172.085 130.976 172.773 126.791 173.461C126.284 173.539 126.492 174.292 126.986 174.214Z" fill="#002464"/>
<path d="M22.6865 177.771C26.7547 175.85 30.7059 173.682 34.5142 171.28C34.9431 171.008 34.5532 170.346 34.1243 170.605C30.316 172.994 26.3647 175.162 22.2965 177.096C21.8416 177.304 22.2315 177.979 22.6865 177.771Z" fill="#002464"/>
<path d="M30.16 176.837C31.9536 175.681 33.9293 174.928 36.0478 174.617C36.5418 174.539 36.3338 173.786 35.8399 173.864C33.6693 174.188 31.6157 174.98 29.7701 176.175C29.3411 176.434 29.7311 177.109 30.16 176.837Z" fill="#002464"/>
<path d="M149.407 165.023C150.589 164.893 151.746 165.01 152.877 165.399C153.358 165.568 153.553 164.815 153.085 164.646C151.902 164.244 150.654 164.101 149.407 164.244C148.913 164.296 148.9 165.075 149.407 165.023Z" fill="#002464"/>
<path d="M147.015 166.595C147.938 166.595 148.861 166.595 149.796 166.595C150.303 166.595 150.303 165.815 149.796 165.815C148.874 165.815 147.951 165.815 147.015 165.815C146.521 165.815 146.521 166.595 147.015 166.595Z" fill="#002464"/>
<path d="M58.065 54.2462C53.9447 57.7254 50.8514 62.2951 49.1227 67.3971C48.9667 67.8774 49.7206 68.0722 49.8765 67.6048C51.5532 62.6197 54.5946 58.1798 58.6109 54.7914C59.0008 54.4669 58.4419 53.9216 58.065 54.2462Z" fill="#002464"/>
<path d="M56.4657 95.7241C55.179 99.0605 53.6453 102.306 51.8776 105.422C51.6307 105.863 52.3065 106.253 52.5535 105.811C54.3601 102.631 55.9068 99.3331 57.2196 95.9318C57.3886 95.4644 56.6347 95.2567 56.4657 95.7241Z" fill="#002464"/>
<path d="M51.2038 102.02C50.385 103.254 49.5661 104.487 48.7473 105.72C48.4743 106.136 49.1502 106.525 49.4232 106.11C50.242 104.877 51.0608 103.643 51.8797 102.41C52.1526 101.994 51.4768 101.605 51.2038 102.02Z" fill="#002464"/>
<path d="M125.92 90.5053C126.7 92.2838 127.727 93.9066 128.962 95.3996C129.287 95.789 129.832 95.2308 129.507 94.8543C128.312 93.4133 127.337 91.8165 126.583 90.1158C126.388 89.6485 125.712 90.0509 125.92 90.5053Z" fill="#002464"/>
<path d="M125.933 95.3606C126.271 95.6981 126.609 96.0357 126.96 96.3862C127.311 96.7367 127.87 96.1915 127.506 95.8409C127.168 95.5034 126.83 95.1659 126.479 94.8154C126.128 94.4519 125.582 95.0101 125.933 95.3606Z" fill="#002464"/>
<path d="M0.580078 191.896C2.32164 190.961 4.25815 190.416 6.23366 190.325C8.28714 190.221 10.1197 190.74 12.0952 191.234C13.8627 191.688 15.5653 191.532 17.3459 191.286C19.1134 191.052 20.985 190.805 22.5576 191.844C22.9735 192.117 23.3634 191.441 22.9475 191.169C21.3878 190.143 19.5423 190.234 17.7618 190.455C16.852 190.572 15.9552 190.714 15.0454 190.766C13.9407 190.818 12.901 190.65 11.8353 190.364C9.85975 189.819 7.96222 189.416 5.90874 189.572C3.90724 189.715 1.97073 190.286 0.203178 191.234C-0.251708 191.454 0.138189 192.13 0.580078 191.896Z" fill="#002464"/>
<path d="M27.7552 191.845C28.3531 191.845 28.9379 191.845 29.5358 191.845C30.0427 191.845 30.0427 191.065 29.5358 191.065C28.9379 191.065 28.3531 191.065 27.7552 191.065C27.2483 191.065 27.2483 191.845 27.7552 191.845Z" fill="#002464"/>
<path d="M40.9349 191.845C41.4158 191.845 41.8837 191.845 42.3646 191.845C42.8715 191.845 42.8715 191.065 42.3646 191.065C41.8837 191.065 41.4158 191.065 40.9349 191.065C40.428 191.065 40.428 191.845 40.9349 191.845Z" fill="#002464"/>
<path d="M143.934 186.067C147.118 185.197 150.51 185.794 153.734 186.106C157.113 186.43 160.479 186.781 163.845 187.209C164.339 187.274 164.339 186.495 163.845 186.43C160.401 186.002 156.931 185.638 153.474 185.301C150.251 184.989 146.897 184.444 143.726 185.314C143.245 185.457 143.453 186.21 143.934 186.067Z" fill="#002464"/>
<path d="M150.692 176.772C151.563 176.473 152.46 176.395 153.369 176.551C153.863 176.642 154.071 175.889 153.577 175.798C152.525 175.616 151.498 175.681 150.484 176.019C150.003 176.188 150.211 176.94 150.692 176.772Z" fill="#002464"/>
<path d="M168.174 182.185C168.889 182.068 169.604 181.939 170.306 181.822C170.799 181.731 170.591 180.991 170.098 181.069C169.383 181.186 168.668 181.315 167.966 181.432C167.472 181.51 167.68 182.263 168.174 182.185Z" fill="#002464"/>
<path d="M186.708 170.501C187.072 170.41 187.461 170.488 187.76 170.735C188.137 171.059 188.696 170.514 188.306 170.19C187.799 169.761 187.15 169.593 186.5 169.761C186.019 169.878 186.227 170.631 186.708 170.501Z" fill="#002464"/>
<path d="M97.4714 199.763C99.694 198.569 102.32 199.763 104.62 200.062C105.751 200.204 106.804 200.127 107.908 199.893C108.961 199.672 110.352 199.257 111.145 200.217C111.47 200.607 112.016 200.049 111.691 199.672C110.963 198.789 109.845 198.763 108.792 198.932C107.428 199.14 106.206 199.49 104.815 199.322C102.242 199.01 99.551 197.777 97.0685 199.101C96.6396 199.335 97.0295 200.01 97.4714 199.763Z" fill="#002464"/>
<path d="M4.24561 143.732C3.97267 143.745 3.7647 143.914 3.73871 144.186C3.72571 144.355 3.8167 144.511 3.92068 144.641C4.02466 144.758 4.15463 144.836 4.3106 144.862C4.55755 144.9 4.77851 144.732 4.8305 144.485C4.76551 144.563 4.71352 144.641 4.64853 144.719C4.93448 144.511 5.01246 144.173 4.8435 143.862C4.70052 143.576 4.36259 143.433 4.06365 143.55C3.7647 143.68 3.64773 143.992 3.71272 144.29C3.77771 144.589 4.01166 144.797 4.3106 144.81C4.51856 144.823 4.71352 144.628 4.70053 144.42C4.68753 144.199 4.53156 144.044 4.3106 144.031C4.37559 144.044 4.40159 144.044 4.3626 144.044C4.3366 144.031 4.34959 144.044 4.41458 144.07C4.36259 144.031 4.47957 144.135 4.44058 144.083C4.46657 144.109 4.47957 144.161 4.45357 144.096C4.46657 144.122 4.47957 144.186 4.46657 144.122C4.45358 144.044 4.46657 144.186 4.46657 144.148C4.46657 144.135 4.46657 144.109 4.46657 144.096C4.49257 144.148 4.44058 144.186 4.46657 144.122C4.44058 144.186 4.42758 144.199 4.44058 144.173C4.45357 144.148 4.44058 144.161 4.40159 144.212C4.45358 144.161 4.3236 144.264 4.37559 144.225C4.36259 144.238 4.33659 144.238 4.3236 144.251C4.25861 144.251 4.24561 144.264 4.28461 144.251C4.25861 144.251 4.24561 144.251 4.21962 144.238C4.24561 144.251 4.24562 144.251 4.20662 144.238C4.16763 144.225 4.16763 144.225 4.19362 144.238C4.14163 144.199 4.12864 144.186 4.15463 144.212C4.20662 144.251 4.14164 144.212 4.14164 144.186C4.15463 144.199 4.15464 144.212 4.16763 144.225C4.15464 144.212 4.15463 144.186 4.14164 144.173C4.14164 144.186 4.14163 144.199 4.15463 144.199C4.16763 144.225 4.15463 144.212 4.15463 144.148C4.15463 144.186 4.14164 144.225 4.16763 144.122C4.15464 144.186 4.21962 144.044 4.18063 144.096C4.19362 144.07 4.3236 143.966 4.21962 144.044C4.15463 144.096 4.10264 144.161 4.07665 144.251C4.06365 144.316 4.08965 144.212 4.10265 144.212C4.14164 144.148 4.20662 144.096 4.28461 144.07C4.3236 144.057 4.36259 144.057 4.41458 144.07C4.45357 144.083 4.46657 144.083 4.44058 144.07C4.38859 144.057 4.54456 144.122 4.49257 144.083C4.44058 144.057 4.57055 144.161 4.53156 144.109C4.51856 144.096 4.45357 144.018 4.50556 144.083C4.54456 144.135 4.51856 144.096 4.50556 144.083C4.46657 144.018 4.51856 144.109 4.51856 144.122C4.51856 144.109 4.50556 144.096 4.50556 144.083C4.51856 144.148 4.53156 144.161 4.50556 144.238C4.49257 144.264 4.47957 144.29 4.47957 144.316C4.34959 144.42 4.3106 144.459 4.37559 144.433C4.34959 144.446 4.3236 144.459 4.3106 144.459C4.23262 144.472 4.20662 144.472 4.25861 144.472C4.46657 144.459 4.66153 144.303 4.64853 144.083C4.62254 143.914 4.46657 143.719 4.24561 143.732Z" fill="#002464"/>
<path d="M17.0738 132.723C16.9958 132.723 16.9308 132.723 16.8528 132.723C16.3459 132.723 16.3459 133.503 16.8528 133.503C16.9308 133.503 16.9958 133.503 17.0738 133.503C17.5677 133.503 17.5677 132.723 17.0738 132.723C16.9958 132.723 16.9308 132.723 16.8528 132.723C16.3459 132.723 16.3459 133.503 16.8528 133.503C16.9308 133.503 16.9958 133.503 17.0738 133.503C17.5677 133.503 17.5677 132.723 17.0738 132.723Z" fill="#002464"/>
<path d="M58.3505 40.1735C58.1815 39.7711 57.8046 39.5763 57.3757 39.6542C56.9988 39.7191 56.6738 40.0307 56.6738 40.4331C56.6738 40.8356 57.0118 41.1472 57.3757 41.2121C57.8046 41.29 58.1815 41.1082 58.3505 40.6928C58.4285 40.4981 58.2595 40.2644 58.0775 40.2124C57.8566 40.1475 57.6746 40.2903 57.5966 40.4851C57.5966 40.4591 57.6097 40.4461 57.6356 40.4331C57.6097 40.4591 57.6096 40.4591 57.6226 40.4461C57.6486 40.4331 57.6356 40.4331 57.6096 40.4461C57.6486 40.4331 57.6486 40.4331 57.6096 40.4461C57.5317 40.4721 57.6746 40.4461 57.5837 40.4461C57.5577 40.4461 57.4667 40.4331 57.5447 40.4461C57.5057 40.4331 57.4797 40.4331 57.4407 40.4202C57.5447 40.4591 57.3627 40.3812 57.4277 40.4072C57.4537 40.4202 57.4407 40.4202 57.4147 40.3942C57.4407 40.4331 57.4407 40.4331 57.4147 40.3942C57.4147 40.4072 57.4277 40.4202 57.4277 40.4331C57.4147 40.3942 57.4147 40.3942 57.4277 40.4331C57.4147 40.524 57.4537 40.3812 57.4147 40.4721C57.4537 40.4072 57.3757 40.4981 57.4277 40.4461C57.3497 40.524 57.4927 40.4072 57.4407 40.4331C57.4017 40.4461 57.5057 40.4072 57.5187 40.4072C57.4537 40.4202 57.5187 40.4072 57.5576 40.4072C57.6616 40.4072 57.4927 40.3812 57.5837 40.4072C57.6226 40.4202 57.6226 40.4202 57.5837 40.4072C57.5967 40.4072 57.5966 40.4202 57.6096 40.4202C57.5706 40.3942 57.5706 40.3942 57.6096 40.4202C57.5966 40.4072 57.5837 40.3812 57.5837 40.3682C57.6616 40.563 57.8436 40.7058 58.0646 40.6409C58.2595 40.6019 58.4285 40.3682 58.3505 40.1735Z" fill="#002464"/>
<path d="M112.846 47.7296C112.846 47.7426 112.846 47.7426 112.846 47.7556C112.846 48.2625 113.626 48.2625 113.626 47.7556C113.626 47.7426 113.626 47.7166 113.626 47.7036C113.626 47.1967 112.846 47.1967 112.846 47.7036C112.846 47.7166 112.846 47.7296 112.846 47.7296C112.846 48.2365 113.626 48.2365 113.626 47.7296C113.626 47.7166 113.626 47.7166 113.626 47.7036C113.626 47.1967 112.846 47.1967 112.846 47.7036C112.846 47.7166 112.846 47.7426 112.846 47.7556C112.846 48.2625 113.626 48.2625 113.626 47.7556C113.626 47.7426 113.626 47.7426 113.626 47.7296C113.626 47.2357 112.846 47.2357 112.846 47.7296Z" fill="#002464"/>
<path d="M135.579 65.255C135.644 64.9045 135.488 64.5669 135.163 64.3852C134.851 64.2164 134.474 64.2424 134.201 64.4891C134.097 64.5799 134.058 64.7357 134.097 64.8655C134.227 65.268 134.643 65.4627 135.046 65.3589C135.228 65.3069 135.397 65.1901 135.501 65.0213C135.657 64.7617 135.566 64.4891 135.306 64.3333C134.968 64.1385 134.513 64.2424 134.266 64.528C133.98 64.8655 134.058 65.3718 134.435 65.6055C134.799 65.8392 135.358 65.7483 135.566 65.3459C135.657 65.1641 135.618 64.9175 135.423 64.8136C135.254 64.7098 134.981 64.7617 134.89 64.9564C134.838 65.0473 134.942 64.8915 134.877 64.9694C134.955 64.8655 134.838 65.0473 134.929 64.9434C134.916 64.9564 134.799 64.9694 134.916 64.9564C134.903 64.9564 134.812 64.9564 134.877 64.9564C134.929 64.9564 134.838 64.9434 134.825 64.9434C134.773 64.9304 134.89 64.9564 134.825 64.9434C134.864 64.9694 134.864 64.9824 134.851 64.9564C134.825 64.9304 134.838 64.9434 134.864 64.9824C134.851 64.9564 134.838 64.9434 134.851 64.9824C134.864 65.0083 134.864 65.0083 134.851 64.9694C134.851 64.9824 134.851 64.9954 134.851 65.0083C134.851 64.9564 134.851 64.9694 134.851 65.0213C134.851 65.0343 134.838 65.0473 134.838 65.0603C134.851 65.0343 134.864 65.0213 134.838 65.0473C134.799 65.0862 134.864 65.0213 134.864 65.0213C134.786 65.0732 134.877 65.0213 134.89 65.0083C134.812 65.0473 134.89 65.0083 134.916 65.0083C134.825 65.0343 134.903 64.9954 134.942 65.0083C134.864 64.9694 134.955 65.0603 134.89 64.9954C134.955 65.0473 134.838 64.9434 134.903 65.0083C134.864 64.8785 134.838 64.7617 134.799 64.6319C134.786 64.6968 134.825 64.6059 134.838 64.5929C134.799 64.6448 134.877 64.5799 134.838 64.5929C134.799 64.6059 134.903 64.5799 134.838 64.5929C134.747 64.6059 134.916 64.6059 134.825 64.5929C134.812 64.5929 134.734 64.6059 134.786 64.5929C134.812 64.5929 134.812 64.5929 134.786 64.5929C134.799 64.5929 134.812 64.6059 134.825 64.6059C134.799 64.6059 134.734 64.541 134.812 64.6059C134.825 64.6189 134.825 64.6319 134.838 64.6448C134.812 64.6059 134.825 64.6059 134.838 64.6578C134.799 64.7876 134.773 64.9045 134.734 65.0343C134.708 65.0603 134.695 65.0603 134.721 65.0473C134.747 65.0343 134.734 65.0343 134.695 65.0473C134.708 65.0473 134.721 65.0473 134.721 65.0343C134.669 65.0343 134.669 65.0473 134.695 65.0343C134.721 65.0343 134.721 65.0343 134.669 65.0213C134.682 65.0213 134.695 65.0213 134.695 65.0343C134.734 65.0473 134.734 65.0473 134.708 65.0343C134.682 65.0213 134.682 65.0213 134.721 65.0473C134.734 65.0473 134.812 65.0992 134.76 65.0733C134.721 65.0473 134.786 65.1122 134.747 65.0603C134.773 65.0992 134.773 65.1382 134.76 65.0862C134.773 65.1511 134.76 65.0603 134.76 65.0343C134.721 65.242 134.812 65.4497 135.033 65.5146C135.293 65.5796 135.54 65.4627 135.579 65.255Z" fill="#002464"/>
<path d="M183.978 96.2045C183.913 96.1785 183.887 96.1655 183.926 96.1785C183.874 96.1266 183.848 96.1136 183.874 96.1395C183.835 96.0746 183.822 96.0616 183.835 96.1006C183.809 96.0227 183.796 96.0097 183.809 96.0487C183.822 96.1006 183.796 95.9318 183.796 96.0227C183.796 96.0876 183.822 95.9059 183.796 95.9967C183.783 96.0617 183.848 95.8929 183.809 95.9708C183.783 96.0227 183.874 95.8929 183.835 95.9318C183.809 95.9578 183.822 95.9448 183.874 95.8929C183.835 95.9059 183.861 95.9059 183.926 95.8669C183.887 95.8799 183.913 95.8669 183.991 95.8539C184.069 95.8669 184.095 95.8669 184.043 95.8669C184.108 95.8929 184.134 95.9059 184.095 95.8929C184.147 95.9448 184.173 95.9578 184.147 95.9318C184.186 95.9967 184.199 96.0097 184.186 95.9708C184.212 96.0487 184.225 96.0616 184.212 96.0227C184.199 95.9578 184.225 96.1266 184.225 96.0617C184.225 96.0487 184.225 96.0357 184.225 96.0357C184.212 96.1136 184.212 96.1266 184.225 96.0876C184.238 95.9967 184.186 96.1655 184.212 96.1136C184.251 96.0357 184.16 96.1785 184.199 96.1395C184.225 96.1136 184.212 96.1266 184.16 96.1785C184.199 96.1655 184.173 96.1655 184.108 96.2045C184.147 96.1915 184.121 96.2045 184.043 96.2174C183.965 96.2045 183.939 96.1915 183.978 96.2045C184.173 96.2564 184.407 96.1395 184.459 95.9318C184.511 95.7371 184.394 95.5034 184.186 95.4515C183.861 95.3736 183.562 95.5813 183.471 95.8929C183.38 96.1915 183.536 96.542 183.848 96.6329C184.173 96.7108 184.472 96.503 184.55 96.2045C184.641 95.8799 184.498 95.5683 184.173 95.4515C183.978 95.3866 183.744 95.5294 183.692 95.7241C183.666 95.9448 183.77 96.1395 183.978 96.2045Z" fill="#002464"/>
<path d="M179.986 157.636H83.7969L118.81 104.747H214.999L179.986 157.636Z" stroke="#002464" stroke-width="0.909825" stroke-miterlimit="10" stroke-linecap="round" stroke-linejoin="round"/>
<path d="M126.168 107.019H192.607" stroke="#002464" stroke-width="0.77985" stroke-miterlimit="10" stroke-linecap="round" stroke-linejoin="round"/>
<path d="M92.9088 41.4209C95.4693 42.6802 98.5367 42.2518 100.85 40.5641C101.604 40.0188 102.306 39.2529 102.475 38.2403C100.317 39.4346 97.8738 40.4472 95.5473 39.6423C94.9104 39.4216 94.3125 39.0711 93.7147 38.7206C93.0778 38.3441 92.4279 37.695 91.791 37.3185C92.012 38.6427 92.4019 40.2136 92.9088 41.4209Z" fill="#002464"/>
<path d="M92.8041 41.5885C94.6238 42.4454 96.6904 42.5622 98.601 41.9261C100.317 41.3549 102.266 40.1865 102.656 38.2781C102.695 38.1093 102.526 37.9795 102.37 38.0574C100.694 38.9791 98.8219 39.8619 96.8593 39.7061C95.8195 39.6282 94.8967 39.1868 94.0129 38.6546C93.259 38.2132 92.6351 37.603 91.8943 37.1357C91.7383 37.0318 91.5823 37.2006 91.6083 37.3564C91.8423 38.7454 92.1802 40.1345 92.7261 41.4457C92.8171 41.6794 93.194 41.5756 93.103 41.3419C92.5701 40.0307 92.2322 38.6416 91.9853 37.2525C91.8943 37.3304 91.7903 37.3953 91.6993 37.4732C92.5701 38.0184 93.311 38.7195 94.2208 39.2128C95.0527 39.6672 95.9105 40.0177 96.8723 40.0826C98.8999 40.2384 100.85 39.3296 102.578 38.3819C102.487 38.304 102.383 38.2391 102.292 38.1613C101.928 39.9917 99.9657 41.0952 98.315 41.5885C96.5604 42.1208 94.6757 42.004 93.0121 41.225C92.7781 41.1471 92.5831 41.4847 92.8041 41.5885Z" fill="#002464"/>
<path d="M158.594 37.2006C165.069 37.2006 170.317 31.9579 170.317 25.4907C170.317 19.0235 165.069 13.7808 158.594 13.7808C152.12 13.7808 146.871 19.0235 146.871 25.4907C146.871 31.9579 152.12 37.2006 158.594 37.2006Z" stroke="#46C578" stroke-width="0.909825" stroke-miterlimit="10" stroke-linecap="round" stroke-linejoin="round"/>
<path d="M158.595 39.4335C166.304 39.4335 172.554 33.1911 172.554 25.4907C172.554 17.7903 166.304 11.5479 158.595 11.5479C150.886 11.5479 144.637 17.7903 144.637 25.4907C144.637 33.1911 150.886 39.4335 158.595 39.4335Z" stroke="#46C578" stroke-width="0.909825" stroke-miterlimit="10" stroke-linecap="round" stroke-linejoin="round"/>
<path d="M162.312 43.5748L160.766 39.5763" stroke="#46C578" stroke-width="0.909825" stroke-miterlimit="10" stroke-linecap="round" stroke-linejoin="round"/>
<path d="M172.424 60.8021L174.634 66.5402C174.894 67.2283 174.426 68.0332 173.594 68.3577C172.762 68.6693 171.865 68.3837 171.605 67.6957L170.137 63.8789" stroke="#46C578" stroke-width="0.909825" stroke-miterlimit="10" stroke-linecap="round" stroke-linejoin="round"/>
<path d="M163.795 38.4209L164.9 41.3029" stroke="#46C578" stroke-width="0.909825" stroke-miterlimit="10" stroke-linecap="round" stroke-linejoin="round"/>
<path d="M81.9018 11.5479C79.0034 15.2088 76.5209 19.3112 75.4421 23.8549C74.3633 28.3987 74.8312 33.4487 77.4307 37.3304C77.6906 37.7199 78.1066 38.1483 78.5615 38.0055C78.8734 37.9016 79.0424 37.5511 79.1204 37.2265C79.3543 36.3308 79.2893 35.3701 78.9254 34.5133C79.4193 36.5904 80.1732 38.6027 81.174 40.498C81.3559 40.8356 81.5769 41.1991 81.9408 41.3159C82.4347 41.4847 82.9806 41.0822 83.1756 40.6019C83.3706 40.1086 83.2926 39.5633 83.2276 39.044C83.5915 40.3033 83.9684 41.5756 84.6963 42.6661C85.4242 43.7566 86.5809 44.6393 87.8937 44.7043" stroke="#46C578" stroke-width="0.909825" stroke-miterlimit="10" stroke-linecap="round" stroke-linejoin="round"/>
<path d="M91.168 15.5593C89.5303 24.517 90.2062 33.8901 93.1046 42.5362C92.8577 43.0425 92.0648 42.718 91.6749 42.3026C90.8431 41.4327 90.1802 40.4072 89.7383 39.2907" stroke="#46C578" stroke-width="0.909825" stroke-miterlimit="10" stroke-linecap="round" stroke-linejoin="round"/>
<path d="M86.5293 34.9807C86.8932 38.33 88.063 41.6015 89.9347 44.4187" stroke="#46C578" stroke-width="0.909825" stroke-miterlimit="10" stroke-linecap="round" stroke-linejoin="round"/>
<path d="M83.7985 14.1832C81.4589 20.8301 81.225 28.191 83.1356 34.9676" stroke="#46C578" stroke-width="0.909825" stroke-miterlimit="10" stroke-linecap="round" stroke-linejoin="round"/>
<path d="M83.4087 25.6725C83.3047 27.8405 83.4737 30.0215 83.9026 32.1505" stroke="#46C578" stroke-width="0.909825" stroke-miterlimit="10" stroke-linecap="round" stroke-linejoin="round"/>
<path d="M78.5234 22.5178C78.1465 24.9325 78.0685 27.3991 78.2634 29.8267" stroke="#46C578" stroke-width="0.909825" stroke-miterlimit="10" stroke-linecap="round" stroke-linejoin="round"/>
<path d="M89.1671 16.1955C87.9843 20.2329 87.6204 24.4911 88.0883 28.6713" stroke="#46C578" stroke-width="0.909825" stroke-miterlimit="10" stroke-linecap="round" stroke-linejoin="round"/>
<path d="M89.1934 13.1317C90.2981 15.0401 92.1696 16.4811 94.2881 17.0653C96.4066 17.6495 98.759 17.3639 100.682 16.2993C100.916 16.1695 101.163 16.0137 101.254 15.7671C101.475 15.1958 100.773 14.6636 100.163 14.6376C98.72 14.5857 97.6023 16.0137 97.3553 17.4418C97.3163 17.6754 97.2903 17.9221 97.3943 18.1298C97.4983 18.3635 97.7322 18.5193 97.9662 18.6361C99.0449 19.1684 100.319 19.0645 101.501 18.8438C105.114 18.1558 108.52 16.3642 111.119 13.7548" stroke="#46C578" stroke-width="0.909825" stroke-miterlimit="10" stroke-linecap="round" stroke-linejoin="round"/>
<path d="M91.2734 12.0412C91.9623 13.1317 93.0541 13.9496 94.3019 14.3131" stroke="#46C578" stroke-width="0.909825" stroke-miterlimit="10" stroke-linecap="round" stroke-linejoin="round"/>
<path d="M111.105 11.5479C110.793 7.35463 106.777 3.5898 102.878 1.993C98.9793 0.383211 94.4044 0.811626 90.6354 2.69404C86.8663 4.57645 83.8771 7.809 81.8496 11.5089" stroke="#46C578" stroke-width="0.909825" stroke-miterlimit="10" stroke-linecap="round" stroke-linejoin="round"/>
<path d="M111.872 18.3375C113.626 24.9065 114.237 28.9959 115.056 35.7336C115.251 37.3564 115.225 39.3946 113.769 40.1475C112.327 40.9005 110.481 39.6283 110.117 38.0444C110.039 37.7199 110.039 37.2915 110.338 37.1227C110.715 36.902 111.157 37.2785 111.391 37.655C112.262 39.083 112.34 41.1342 111.144 42.3156C109.948 43.4969 107.452 43.0685 107.102 41.4198" stroke="#46C578" stroke-width="0.909825" stroke-miterlimit="10" stroke-linecap="round" stroke-linejoin="round"/>
<path d="M110.3 28.165C110.027 30.2162 110.222 32.3323 110.859 34.3056" stroke="#46C578" stroke-width="0.909825" stroke-miterlimit="10" stroke-linecap="round" stroke-linejoin="round"/>
<path d="M162.911 20.8431L160.402 28.9829" stroke="#46C578" stroke-width="0.909825" stroke-miterlimit="10" stroke-linecap="round" stroke-linejoin="round"/>
<path d="M164.625 21.9206L162.48 28.4506" stroke="#46C578" stroke-width="0.909825" stroke-miterlimit="10" stroke-linecap="round" stroke-linejoin="round"/>
<path d="M154.957 136.683C157.993 136.683 160.455 134.224 160.455 131.191C160.455 128.159 157.993 125.7 154.957 125.7C151.92 125.7 149.459 128.159 149.459 131.191C149.459 134.224 151.92 136.683 154.957 136.683Z" stroke="#46C578" stroke-width="0.909825" stroke-miterlimit="10" stroke-linecap="round" stroke-linejoin="round"/>
</svg>
